<svg id="automatically" xmlns="http://www.w3.org/2000/svg" width="354.37" height="210.92" viewBox="0 0 354.37 210.92">
  <path id="Path_10" data-name="Path 10" d="M1105.11,840.72a83.24,83.24,0,1,1-83.24-83.24A83.24,83.24,0,0,1,1105.11,840.72Z" transform="translate(-938.63 -725.69)"/>
  <circle id="Ellipse_1" data-name="Ellipse 1" cx="77.26" cy="77.26" r="77.26" transform="translate(5.405 38.342) rotate(-0.45)" fill="#a5bf8f"/>
  <path id="Path_11" data-name="Path 11" d="M1024,792.94a2.14,2.14,0,0,1-2.14,2.14h0a2.13,2.13,0,0,1-2.13-2.14V781a2.13,2.13,0,0,1,2.13-2.14h0A2.14,2.14,0,0,1,1024,781Z" transform="translate(-938.63 -725.69)" fill="#fcf0d4"/>
  <path id="Path_12" data-name="Path 12" d="M995.51,800.81a2.12,2.12,0,0,1-.47,3h0a2.12,2.12,0,0,1-3-.47l-7-9.68a2.12,2.12,0,0,1,.47-3h0a2.14,2.14,0,0,1,3,.47Z" transform="translate(-938.63 -725.69)" fill="#fcf0d4"/>
  <path id="Path_13" data-name="Path 13" d="M977.09,823.92a2.14,2.14,0,0,1,1.37,2.69h0a2.14,2.14,0,0,1-2.69,1.38l-11.38-3.7A2.13,2.13,0,0,1,963,821.6h0a2.12,2.12,0,0,1,2.69-1.37Z" transform="translate(-938.63 -725.69)" fill="#fcf0d4"/>
  <path id="Path_14" data-name="Path 14" d="M975.77,853.46a2.13,2.13,0,0,1,2.69,1.37h0a2.14,2.14,0,0,1-1.37,2.69l-11.38,3.7a2.14,2.14,0,0,1-2.69-1.38h0a2.13,2.13,0,0,1,1.37-2.69Z" transform="translate(-938.63 -725.69)" fill="#fcf0d4"/>
  <path id="Path_15" data-name="Path 15" d="M992.05,878.12a2.15,2.15,0,0,1,3-.47h0a2.13,2.13,0,0,1,.47,3l-7,9.68a2.12,2.12,0,0,1-3,.47h0a2.12,2.12,0,0,1-.47-3Z" transform="translate(-938.63 -725.69)" fill="#fcf0d4"/>
  <path id="Path_16" data-name="Path 16" d="M1068,828a2.14,2.14,0,0,1-2.69-1.37h0a2.14,2.14,0,0,1,1.37-2.69l11.38-3.7a2.13,2.13,0,0,1,2.69,1.37h0a2.13,2.13,0,0,1-1.37,2.69Z" transform="translate(-938.63 -725.69)" fill="#fcf0d4"/>
  <path id="Path_17" data-name="Path 17" d="M1051.68,803.32a2.12,2.12,0,0,1-3,.47h0a2.13,2.13,0,0,1-.47-3l7-9.68a2.14,2.14,0,0,1,3-.47h0a2.13,2.13,0,0,1,.48,3Z" transform="translate(-938.63 -725.69)" fill="#fcf0d4"/>
  <path id="Path_18" data-name="Path 18" d="M1023.09,893.83v12.73c35.76,0,64.74-30,64.74-67h-12.29C1075.54,869.51,1052.06,893.83,1023.09,893.83Z" transform="translate(-938.63 -725.69)" fill="#4f4c44"/>
  <path id="Path_19" data-name="Path 19" d="M1021.87,898.87A58.15,58.15,0,1,1,1080,838h7.69a65.83,65.83,0,1,0-65.77,68.55Z" transform="translate(-938.63 -725.69)"/>
  <path id="Path_20" data-name="Path 20" d="M1022.51,834.78a6,6,0,1,1-6.62,5.27,6,6,0,0,1,6.62-5.27Z" transform="translate(-938.63 -725.69)" fill="#755c22"/>
  <path id="Path_21" data-name="Path 21" d="M986.08,858.89c.89,1.72,36.18-16.51,36.18-16.51a2.08,2.08,0,0,0-1.88-3.64C1020.14,838.87,985.05,856.9,986.08,858.89Z" transform="translate(-938.63 -725.69)" fill="#c49a39"/>
  <path id="Path_22" data-name="Path 22" d="M1293,831.15a105.455,105.455,0,1,1,0-.01Z" transform="translate(-938.63 -725.69)"/>
  <path id="Path_23" data-name="Path 23" d="M1286.48,831.15a98.94,98.94,0,1,1-98.94-98.94A98.94,98.94,0,0,1,1286.48,831.15Z" transform="translate(-938.63 -725.69)" fill="#a5bf8f"/>
  <path id="Path_24" data-name="Path 24" d="M1241.63,894.36a13,13,0,0,1-13.05,13h-82.09a13,13,0,0,1-13-13h0a13,13,0,0,1,13-13.05h82.09a13,13,0,0,1,13.05,13.05Z" transform="translate(-938.63 -725.69)"/>
  <path id="Path_25" data-name="Path 25" d="M1190.26,763.2a2.72,2.72,0,0,1-2.72,2.72h0a2.72,2.72,0,0,1-2.72-2.72V748a2.72,2.72,0,0,1,2.72-2.72h0a2.72,2.72,0,0,1,2.72,2.72Z" transform="translate(-938.63 -725.69)" fill="#fcf0d4"/>
  <path id="Path_26" data-name="Path 26" d="M1164.05,767.33a2.72,2.72,0,0,1-1.48,3.55h0a2.71,2.71,0,0,1-3.55-1.47l-5.82-14.06a2.71,2.71,0,0,1,1.47-3.55h0a2.71,2.71,0,0,1,3.55,1.47Z" transform="translate(-938.63 -725.69)" fill="#fcf0d4"/>
  <path id="Path_27" data-name="Path 27" d="M1141.41,781.18a2.73,2.73,0,0,1,0,3.85h0a2.72,2.72,0,0,1-3.84,0l-10.77-10.77a2.72,2.72,0,0,1,0-3.84h0a2.72,2.72,0,0,1,3.85,0Z" transform="translate(-938.63 -725.69)" fill="#fcf0d4"/>
  <path id="Path_28" data-name="Path 28" d="M1125.8,802.64a2.72,2.72,0,0,1,1.47,3.55h0a2.72,2.72,0,0,1-3.55,1.47l-14.07-5.82a2.74,2.74,0,0,1-1.47-3.56h0a2.73,2.73,0,0,1,3.55-1.47Z" transform="translate(-938.63 -725.69)" fill="#fcf0d4"/>
  <path id="Path_29" data-name="Path 29" d="M1119.59,828.43a2.72,2.72,0,0,1,2.72,2.72h0a2.72,2.72,0,0,1-2.73,2.72h-15.22a2.71,2.71,0,0,1-2.71-2.72h0a2.71,2.71,0,0,1,2.71-2.72Z" transform="translate(-938.63 -725.69)" fill="#fcf0d4"/>
  <path id="Path_30" data-name="Path 30" d="M1123.72,854.65a2.71,2.71,0,0,1,3.55,1.47h0a2.73,2.73,0,0,1-1.47,3.55l-14.07,5.82a2.71,2.71,0,0,1-3.55-1.47h0a2.73,2.73,0,0,1,1.47-3.55Z" transform="translate(-938.63 -725.69)" fill="#fcf0d4"/>
  <path id="Path_31" data-name="Path 31" d="M1249.28,859.67a2.71,2.71,0,0,1-1.47-3.55h0a2.71,2.71,0,0,1,3.55-1.47l14.06,5.82a2.71,2.71,0,0,1,1.47,3.55h0a2.71,2.71,0,0,1-3.55,1.47Z" transform="translate(-938.63 -725.69)" fill="#fcf0d4"/>
  <path id="Path_32" data-name="Path 32" d="M1255.49,833.87a2.72,2.72,0,0,1-2.72-2.72h0a2.72,2.72,0,0,1,2.72-2.72h15.22a2.72,2.72,0,0,1,2.72,2.72h0a2.72,2.72,0,0,1-2.72,2.72Z" transform="translate(-938.63 -725.69)" fill="#fcf0d4"/>
  <path id="Path_33" data-name="Path 33" d="M1251.36,807.66a2.72,2.72,0,0,1-3.55-1.47h0a2.72,2.72,0,0,1,1.47-3.56l14.06-5.82a2.72,2.72,0,0,1,3.55,1.47h0a2.72,2.72,0,0,1-1.47,3.56Z" transform="translate(-938.63 -725.69)" fill="#fcf0d4"/>
  <path id="Path_34" data-name="Path 34" d="M1237.51,785a2.73,2.73,0,0,1-3.85,0h0a2.73,2.73,0,0,1,0-3.85l10.77-10.76a2.71,2.71,0,0,1,3.85,0h0a2.71,2.71,0,0,1,0,3.84Z" transform="translate(-938.63 -725.69)" fill="#fcf0d4"/>
  <path id="Path_35" data-name="Path 35" d="M1216.05,769.42a2.71,2.71,0,0,1-3.55,1.46h0a2.72,2.72,0,0,1-1.47-3.55l5.82-14.06a2.72,2.72,0,0,1,3.56-1.47h0a2.72,2.72,0,0,1,1.47,3.55Z" transform="translate(-938.63 -725.69)" fill="#fcf0d4"/>
  <path id="Path_36" data-name="Path 36" d="M1118.4,869a78.83,78.83,0,1,1,138.27,0l6.37,6.37a87.53,87.53,0,1,0-151,0Z" transform="translate(-938.63 -725.69)"/>
  <path id="Path_37" data-name="Path 37" d="M1195.56,894.65a8,8,0,1,1-8-8A8,8,0,0,1,1195.56,894.65Z" transform="translate(-938.63 -725.69)" fill="#755c22"/>
  <path id="Path_38" data-name="Path 38" d="M1187.54,796.6c-2.72,0-2.72,98-2.72,98a2.88,2.88,0,1,0,5.76,0C1190.58,894.2,1190.7,796.6,1187.54,796.6Z" transform="translate(-938.63 -725.69)" fill="#c49a39"/>
</svg>
