<svg id="Layer_1" data-name="Layer 1" xmlns="http://www.w3.org/2000/svg" viewBox="0 0 249.8 82.59"><defs><style>.cls-1{fill:#89ca86;}.cls-2{fill:#94ce91;}.cls-3{fill:#181a1c;}.cls-4{fill:#73b571;}.cls-5{fill:#424449;}.cls-6{fill:#f4f4f4;}.cls-7{fill:#32353a;}.cls-8{fill:#57585e;}.cls-9{fill:#487545;}.cls-10{fill:#3d3036;}.cls-11{fill:#695c61;}.cls-12{fill:#5e995b;}.cls-13{fill:#847a7e;}.cls-14{fill:#f26f75;}.cls-15{fill:#fcd9dc;}.cls-16{fill:#ededed;}.cls-17{fill:#ede5a5;}.cls-18{fill:#aed8a8;}</style></defs><title>berlin</title><path class="cls-1" d="M490.72,674.82h172.9a7.51,7.51,0,0,0,7.51-7.51v-13a13.29,13.29,0,0,0-7-11.73C653.55,636.88,630,628.66,608,628.4c-24.86-13.16-47.19-23.86-63-24.23s-48.87-4.08-93.5,17.43c-10.71,1.48-20,.93-21.83.37s-9.46,9.27-6.31,15.76-.37,13.87-1.85,20.47,4.45,10,11.87,11.94S490.72,674.82,490.72,674.82Z" transform="translate(-421.33 -603.7)"/><path class="cls-2" d="M451.55,621.6c-1,.14-2,.26-3,.37C470,625.4,488.8,634,524.1,640.14c45.68,7.91,77.44-10.33,83.9-11.74-24.86-13.16-47.19-23.86-63-24.23S496.18,600.09,451.55,621.6Z" transform="translate(-421.33 -603.7)"/><circle class="cls-3" cx="477.08" cy="666.88" r="17.56" transform="translate(-641.18 -368.82) rotate(-22.63)"/><path class="cls-4" d="M611.43,670.8H501.74c-13.47,0-64-12.25-78.65-18.28-.54,1.93-1.12,3.84-1.53,5.68-1.48,6.6,4.45,10,11.87,11.94s57.29,4.68,57.29,4.68h172.9a7.51,7.51,0,0,0,6.65-4Z" transform="translate(-421.33 -603.7)"/><path class="cls-3" d="M450.36,672.09c17.11,1.43,40.36,2.73,40.36,2.73h2.9a5.86,5.86,0,0,0,.38-1.54c0-.87.64-4.45.64-5.43S492.8,663.14,493,662a9.36,9.36,0,0,0-1.32-4.69c-.87-1.61-1.61-3.59-2.6-4.08a20.55,20.55,0,0,1-3.54-2.07c-.91-.78-5.38-3.74-5.38-3.74s-8.57-.62-9-.62-8.93,2.5-8.93,2.5L455.55,654l-5.19,9.15Z" transform="translate(-421.33 -603.7)"/><path class="cls-3" d="M636.89,652.38c-.25-.37-9-5.56-9.25-5.69s-10.46-1.11-10.46-1.11l-10.7,6.55-5.68,7.81-.5,9.84,1,5H643.5c.44-1.72,1.06-4.23,1.06-4.68,0-.7-2.23-10.2-2.23-10.2S637.14,652.75,636.89,652.38Z" transform="translate(-421.33 -603.7)"/><circle class="cls-5" cx="472.26" cy="668.74" r="17.56" transform="translate(-522.87 -518.91) rotate(-9.27)"/><circle class="cls-6" cx="50.93" cy="65.03" r="14.13"/><path class="cls-7" d="M468.55,669a.7.7,0,0,0,.76-.57.69.69,0,0,0-.52-.79l-8.94-2.21a12.27,12.27,0,0,0-.4,2.6Z" transform="translate(-421.33 -603.7)"/><path class="cls-7" d="M469.45,671.41a.69.69,0,0,0-.69-1.2l-8.12,4a13.74,13.74,0,0,0,1.35,2.24Z" transform="translate(-421.33 -603.7)"/><path class="cls-7" d="M469.38,666.65a.7.7,0,0,0,1.07-.9l-5.51-7.55a12.82,12.82,0,0,0-2,1.73Z" transform="translate(-421.33 -603.7)"/><path class="cls-7" d="M469.2,681.19l2.46-8.54a.67.67,0,0,0-.43-.84.68.68,0,0,0-.87.37l-3.61,8.14A12.09,12.09,0,0,0,469.2,681.19Z" transform="translate(-421.33 -603.7)"/><path class="cls-7" d="M475.73,667.68a.68.68,0,0,0-.52.79.69.69,0,0,0,.76.57l9.1-1a12.94,12.94,0,0,0-.4-2.6Z" transform="translate(-421.33 -603.7)"/><path class="cls-7" d="M474.16,672.18a.7.7,0,0,0-1.31.47l2.47,8.54a12,12,0,0,0,2.44-.87Z" transform="translate(-421.33 -603.7)"/><path class="cls-7" d="M473,665.35l.64-9.38c-.44,0-.88-.06-1.33-.06s-.9,0-1.33.06l.63,9.38a.71.71,0,0,0,.7.65A.7.7,0,0,0,473,665.35Z" transform="translate(-421.33 -603.7)"/><path class="cls-7" d="M483.87,674.19l-8.11-4a.7.7,0,0,0-.91.28.69.69,0,0,0,.22.92l7.46,5A13,13,0,0,0,483.87,674.19Z" transform="translate(-421.33 -603.7)"/><path class="cls-7" d="M474.18,666.7a.71.71,0,0,0,.95-.05l6.46-6.72a13.29,13.29,0,0,0-2-1.73l-5.51,7.55A.7.7,0,0,0,474.18,666.7Z" transform="translate(-421.33 -603.7)"/><circle class="cls-8" cx="50.93" cy="65.19" r="1.04"/><path class="cls-8" d="M472.26,671.08a.31.31,0,1,1,.31-.31A.31.31,0,0,1,472.26,671.08Z" transform="translate(-421.33 -603.7)"/><path class="cls-8" d="M470.18,669.57a.31.31,0,1,1,.39.2A.31.31,0,0,1,470.18,669.57Z" transform="translate(-421.33 -603.7)"/><path class="cls-8" d="M471,667.13a.32.32,0,0,1,.44.07.31.31,0,1,1-.5.36A.31.31,0,0,1,471,667.13Z" transform="translate(-421.33 -603.7)"/><path class="cls-8" d="M473.54,667.13a.31.31,0,1,1-.43.07A.31.31,0,0,1,473.54,667.13Z" transform="translate(-421.33 -603.7)"/><path class="cls-8" d="M474.33,669.57a.31.31,0,0,1-.39.2.3.3,0,0,1-.19-.39.31.31,0,0,1,.39-.2A.3.3,0,0,1,474.33,669.57Z" transform="translate(-421.33 -603.7)"/><circle class="cls-5" cx="200.8" cy="65.03" r="17.56"/><circle class="cls-6" cx="200.8" cy="65.03" r="14.13"/><path class="cls-7" d="M618.42,669a.69.69,0,0,0,.76-.57.68.68,0,0,0-.52-.79l-8.94-2.21a12.94,12.94,0,0,0-.4,2.6Z" transform="translate(-421.33 -603.7)"/><path class="cls-7" d="M619.32,671.41a.69.69,0,0,0,.22-.92.7.7,0,0,0-.91-.28l-8.11,4a13,13,0,0,0,1.34,2.24Z" transform="translate(-421.33 -603.7)"/><path class="cls-7" d="M619.26,666.65a.7.7,0,0,0,1.06-.9l-5.51-7.55a13.29,13.29,0,0,0-2,1.73Z" transform="translate(-421.33 -603.7)"/><path class="cls-7" d="M619.07,681.19l2.47-8.54a.7.7,0,0,0-1.31-.47l-3.6,8.14A12,12,0,0,0,619.07,681.19Z" transform="translate(-421.33 -603.7)"/><path class="cls-7" d="M625.6,667.68a.69.69,0,0,0-.52.79.7.7,0,0,0,.76.57l9.1-1a12.27,12.27,0,0,0-.4-2.6Z" transform="translate(-421.33 -603.7)"/><path class="cls-7" d="M624,672.18a.68.68,0,0,0-.87-.37.67.67,0,0,0-.43.84l2.46,8.54a12.09,12.09,0,0,0,2.45-.87Z" transform="translate(-421.33 -603.7)"/><path class="cls-7" d="M622.83,665.35l.63-9.38c-.43,0-.88-.06-1.33-.06s-.89,0-1.33.06l.64,9.38a.7.7,0,0,0,.69.65A.71.71,0,0,0,622.83,665.35Z" transform="translate(-421.33 -603.7)"/><path class="cls-7" d="M633.75,674.19l-8.12-4a.69.69,0,0,0-.69,1.2l7.46,5A13.74,13.74,0,0,0,633.75,674.19Z" transform="translate(-421.33 -603.7)"/><path class="cls-7" d="M624.06,666.7a.71.71,0,0,0,1-.05l6.45-6.72a13.29,13.29,0,0,0-2-1.73l-5.51,7.55A.71.71,0,0,0,624.06,666.7Z" transform="translate(-421.33 -603.7)"/><circle class="cls-8" cx="200.8" cy="65.19" r="1.04"/><path class="cls-8" d="M622.13,671.08a.31.31,0,1,1,.31-.31A.31.31,0,0,1,622.13,671.08Z" transform="translate(-421.33 -603.7)"/><path class="cls-8" d="M620.06,669.57a.3.3,0,0,1,.19-.39.31.31,0,0,1,.39.2.3.3,0,0,1-.19.39A.31.31,0,0,1,620.06,669.57Z" transform="translate(-421.33 -603.7)"/><path class="cls-8" d="M620.85,667.13a.31.31,0,1,1-.07.43A.31.31,0,0,1,620.85,667.13Z" transform="translate(-421.33 -603.7)"/><path class="cls-8" d="M623.42,667.13a.31.31,0,0,1,.06.43.31.31,0,1,1-.5-.36A.32.32,0,0,1,623.42,667.13Z" transform="translate(-421.33 -603.7)"/><path class="cls-8" d="M624.21,669.57a.31.31,0,1,1-.2-.39A.31.31,0,0,1,624.21,669.57Z" transform="translate(-421.33 -603.7)"/><path class="cls-9" d="M659.8,655.91a1.82,1.82,0,0,0-1.68,2.54l4.2,9.91a1.81,1.81,0,0,0,1.68,1.11h6.81a7.33,7.33,0,0,0,.32-2.16v-11.4Z" transform="translate(-421.33 -603.7)"/><path class="cls-9" d="M598.73,629.8h-.55c0,.29.33,28.77-2.36,41H539.26c3.18-18.66-3-43.27-3-43.52l-.54.14c.07.25,6.2,24.82,3,43.38h-37c-3.11-9.58-6.35-15.66-13.76-25.9-3.74-5.16-9-15.94-8.39-19.7l-.55-.09c-.66,3.95,4.61,14.75,8.49,20.11,7.42,10.26,10.63,16.32,13.74,25.94l.27.2H596l.27-.22C599.07,659,598.74,630.09,598.73,629.8Z" transform="translate(-421.33 -603.7)"/><path class="cls-10" d="M601.8,631.3a1.41,1.41,0,0,0,.71-2.66c-20.27-10.53-40.36-19.69-54.25-20l-3.78-.11c-3.31-.11-7.06-.23-11.38-.23a180.72,180.72,0,0,0-51.68,7.3,6.8,6.8,0,0,0-4.78,7.52h0a3.61,3.61,0,0,0,3.41,3.07Z" transform="translate(-421.33 -603.7)"/><path class="cls-11" d="M497.87,613.08a181.56,181.56,0,0,1,32.41-3.29,1.81,1.81,0,0,1,1.8,1.5l2.37,13.49a1.81,1.81,0,0,1-1.86,2.12l-32.89-1.38A1.8,1.8,0,0,1,498,624l-1.56-8.85A1.81,1.81,0,0,1,497.87,613.08Zm46,14.3,57.71,2.43c-18.46-9.59-39.17-19.37-53.31-19.71-1.16,0-2.42-.06-3.81-.11l-2.89-.09a1.81,1.81,0,0,0-1.84,2.12l2.43,13.86A1.82,1.82,0,0,0,543.83,627.38Zm-52.06-11a1.82,1.82,0,0,0-2.21-1.45c-2.58.64-5.16,1.33-7.72,2.09a5.33,5.33,0,0,0-3.73,5.9,2.1,2.1,0,0,0,2,1.79l11,.47a1.82,1.82,0,0,0,1.86-2.12Z" transform="translate(-421.33 -603.7)"/><path class="cls-5" d="M591.09,629.7l2.09,2.27a1.07,1.07,0,0,1-.79,1.79h-3.1a1,1,0,0,1-.81-.37l-2.76-3.23Z" transform="translate(-421.33 -603.7)"/><path class="cls-4" d="M579.59,627.28V629a2.35,2.35,0,0,0,2.35,2.35h7.89a2.63,2.63,0,0,0,2.63-2.63h0a3.15,3.15,0,0,0-1.28-2.53l-3.13-2.28a3.15,3.15,0,0,0-3-.39l-4,1.55A2.35,2.35,0,0,0,579.59,627.28Z" transform="translate(-421.33 -603.7)"/><path class="cls-12" d="M591.18,626.21l-3.13-2.28a3.15,3.15,0,0,0-3-.39l-1.48.58,2.87,2.09a3.13,3.13,0,0,1,1.29,2.53,2.63,2.63,0,0,1-2.63,2.63h4.71a2.63,2.63,0,0,0,2.63-2.63A3.15,3.15,0,0,0,591.18,626.21Z" transform="translate(-421.33 -603.7)"/><path class="cls-13" d="M545.74,627.46l7.75.32,7.56-15.5a67,67,0,0,0-7.13-1.61Z" transform="translate(-421.33 -603.7)"/><path class="cls-13" d="M565.35,613.59l-1.93-.61-7.27,14.92,2.18.09Z" transform="translate(-421.33 -603.7)"/><path class="cls-13" d="M524.1,610l-2.28.12-7.82,16,2.18.09Z" transform="translate(-421.33 -603.7)"/><path class="cls-13" d="M519,610.28q-4.18.3-8.3.79l-7.12,14.61,7.75.33Z" transform="translate(-421.33 -603.7)"/><path class="cls-12" d="M495.14,674.82a23.68,23.68,0,1,0-46.56-6.08,22.81,22.81,0,0,0,.23,3.22l3,.26a21.13,21.13,0,0,1-.29-3.48,20.71,20.71,0,1,1,40.51,6.08Z" transform="translate(-421.33 -603.7)"/><path class="cls-12" d="M622.13,645.06a23.69,23.69,0,0,0-22.88,29.76h3.08a20.71,20.71,0,1,1,39.6,0H645a23.66,23.66,0,0,0-22.88-29.76Z" transform="translate(-421.33 -603.7)"/><path class="cls-4" d="M550.77,634.86c-2.06,0-3.73,1.18-3.73,2.64s1.67,2.64,3.73,2.64,3.73-1.18,3.73-2.64S552.83,634.86,550.77,634.86Z" transform="translate(-421.33 -603.7)"/><path class="cls-12" d="M554.15,636.34h-6.76a1.16,1.16,0,1,0,0,2.32h6.76a1.16,1.16,0,1,0,0-2.32Z" transform="translate(-421.33 -603.7)"/><ellipse class="cls-4" cx="73.31" cy="31.16" rx="3.73" ry="2.64"/><path class="cls-12" d="M498,633.7h-6.76a1.16,1.16,0,0,0,0,2.32H498a1.16,1.16,0,1,0,0-2.32Z" transform="translate(-421.33 -603.7)"/><path class="cls-10" d="M436.79,636.82l4.27-5a1.94,1.94,0,0,0-1.48-3.2H424c-1.26,2.84-1.87,6.12-.67,8.85h12A2,2,0,0,0,436.79,636.82Z" transform="translate(-421.33 -603.7)"/><path class="cls-14" d="M440.34,630.24a.83.83,0,0,0-.76-.48H423.53a11.35,11.35,0,0,0-.6,6.63h12.39a.81.81,0,0,0,.62-.29l4.27-5A.83.83,0,0,0,440.34,630.24Z" transform="translate(-421.33 -603.7)"/><path class="cls-15" d="M431.79,630.32H425a.9.9,0,1,0,0,1.79h6.8a.9.9,0,0,0,0-1.79Z" transform="translate(-421.33 -603.7)"/><path class="cls-10" d="M666.28,654a3.13,3.13,0,0,1-1.17-.23l-16.71-6.65a2.54,2.54,0,0,1,.94-4.9h.15l12.3.71a6.53,6.53,0,0,1,5.12,3l2,3.2a3.16,3.16,0,0,1-2.66,4.86Z" transform="translate(-421.33 -603.7)"/><path class="cls-16" d="M666.28,646.3l2,3.2a2.44,2.44,0,0,1-.06,2.69h0a2.43,2.43,0,0,1-2.88.85l-16.7-6.65a1.79,1.79,0,0,1-1.06-2.17h0a1.79,1.79,0,0,1,1.83-1.29l12.3.71A5.77,5.77,0,0,1,666.28,646.3Z" transform="translate(-421.33 -603.7)"/><path class="cls-17" d="M661.07,649.91a13.41,13.41,0,0,0-1.61-6.4l-10-.58a1.8,1.8,0,0,0-.77,3.46L661,651.3A12.81,12.81,0,0,0,661.07,649.91Z" transform="translate(-421.33 -603.7)"/><path class="cls-14" d="M651.47,643l-2-.11a1.8,1.8,0,0,0-.77,3.46l3.88,1.54A13.53,13.53,0,0,0,651.47,643Z" transform="translate(-421.33 -603.7)"/><path class="cls-18" d="M564.13,630.62,542,629.75a.69.69,0,1,0,0,1.37l22.12.87a.69.69,0,0,0,0-1.37Z" transform="translate(-421.33 -603.7)"/><path class="cls-18" d="M510.63,628.43l-22.12-.87a.71.71,0,0,0-.72.67.69.69,0,0,0,.67.71l22.12.87a.71.71,0,0,0,.72-.67A.69.69,0,0,0,510.63,628.43Z" transform="translate(-421.33 -603.7)"/></svg>