<svg xmlns="http://www.w3.org/2000/svg" viewBox="0 0 326.36 224.83"><defs><style>.cls-1{isolation:isolate;}.cls-2{opacity:0.2;mix-blend-mode:multiply;}.cls-3{fill:#736f7b;}.cls-4{fill:#fbae3e;}.cls-5{fill:#34373e;}.cls-6{fill:#514b5a;}.cls-7{fill:#afb9d2;}.cls-8{fill:#d5d5d5;}.cls-9{fill:#ededee;}</style></defs><title>camion</title><g class="cls-1"><g id="Layer_1" data-name="Layer 1"><g class="cls-2"><path class="cls-3" d="M1310.92,909.87h0V862.14a32.19,32.19,0,0,0-2.15-11.56l-20.73-53.91a16.12,16.12,0,0,0-15-10.33h-47.51V770.23A21.47,21.47,0,0,0,1204,748.75h-182.6A21.48,21.48,0,0,0,1000,770.23V931.35a5.37,5.37,0,0,0,5.37,5.37h21.48a5.37,5.37,0,0,0,5.37-5.37h16.14a26.86,26.86,0,1,0,53.17,5.37,26.37,26.37,0,0,0-.54-5.37H1102a26.86,26.86,0,1,0,52.63,0h70.9a26.37,26.37,0,0,0-.54,5.37,26.85,26.85,0,1,0,53.17-5.37h32.73a5.39,5.39,0,0,0,5.4-5.37V915.24A5.38,5.38,0,0,0,1310.92,909.87Z" transform="translate(-989.96 -738.75)"/></g><path class="cls-4" d="M1298.8,840.58l-20.73-53.91a16.12,16.12,0,0,0-15-10.33h-48V899.87H1301V852.14a32.19,32.19,0,0,0-2.15-11.56Z" transform="translate(-989.96 -738.75)"/><path class="cls-5" d="M1300.92,921.35H1020.1V899.87h280.82a5.38,5.38,0,0,1,5.4,5.37V916a5.39,5.39,0,0,1-5.4,5.37Z" transform="translate(-989.96 -738.75)"/><path class="cls-6" d="M1241.87,899.87A26.85,26.85,0,1,1,1215,926.72a26.85,26.85,0,0,1,26.85-26.85Z" transform="translate(-989.96 -738.75)"/><path class="cls-6" d="M1118.35,899.87a26.85,26.85,0,1,1-26.86,26.85,26.85,26.85,0,0,1,26.86-26.85Z" transform="translate(-989.96 -738.75)"/><path class="cls-6" d="M1064.64,899.87a26.85,26.85,0,1,1-26.85,26.85,26.85,26.85,0,0,1,26.85-26.85Z" transform="translate(-989.96 -738.75)"/><path class="cls-7" d="M1064.64,910.61a16.11,16.11,0,1,1-16.11,16.11,16.11,16.11,0,0,1,16.11-16.11Z" transform="translate(-989.96 -738.75)"/><path class="cls-7" d="M1118.35,910.61a16.11,16.11,0,1,1-16.12,16.11,16.11,16.11,0,0,1,16.12-16.11Z" transform="translate(-989.96 -738.75)"/><path class="cls-7" d="M1241.87,910.61a16.11,16.11,0,1,1-16.11,16.11,16.11,16.11,0,0,1,16.11-16.11Z" transform="translate(-989.96 -738.75)"/><path class="cls-8" d="M1215.52,760.23A21.47,21.47,0,0,0,1194,738.75h-182.6A21.48,21.48,0,0,0,990,760.23V921.35a5.37,5.37,0,0,0,5.37,5.37h21.48a5.37,5.37,0,0,0,5.37-5.37V905.24a5.37,5.37,0,0,1,5.37-5.37h188V760.23Z" transform="translate(-989.96 -738.75)"/><path class="cls-4" d="M1064.64,921.35a5.37,5.37,0,1,1-5.37,5.37,5.36,5.36,0,0,1,5.37-5.37Z" transform="translate(-989.96 -738.75)"/><path class="cls-4" d="M1241.87,921.35a5.37,5.37,0,1,1-5.37,5.37,5.36,5.36,0,0,1,5.37-5.37Z" transform="translate(-989.96 -738.75)"/><path class="cls-4" d="M1118.35,921.35a5.37,5.37,0,1,1-5.37,5.37,5.37,5.37,0,0,1,5.37-5.37Z" transform="translate(-989.96 -738.75)"/><path class="cls-9" d="M1289.92,838.23,1274.81,799a5.41,5.41,0,0,0-5-3.47h-31.4a5.37,5.37,0,0,0-5.37,5.37v13.74a16.1,16.1,0,0,0,6,12.58l16.39,13.12a16.13,16.13,0,0,0,10.06,3.53h20.57a4.11,4.11,0,0,0,3.88-5.53l0-.06Z" transform="translate(-989.96 -738.75)"/><path class="cls-9" d="M1301,877.87h-5.37a5.37,5.37,0,0,1-5.37-5.37v-5.37a5.36,5.36,0,0,1,5.37-5.37H1301v16.11Z" transform="translate(-989.96 -738.75)"/></g></g></svg>