<svg xmlns="http://www.w3.org/2000/svg" viewBox="0 0 332.06 205.35"><defs><style>.cls-1{isolation:isolate;}.cls-2{opacity:0.2;mix-blend-mode:multiply;}.cls-3{fill:#736f7b;}.cls-4{fill:#635d6b;}.cls-5{fill:#8d8a94;}.cls-6{fill:#ffc84b;}.cls-7{fill:#ffdc5a;}.cls-8{fill:#ededee;}.cls-9{fill:#514b5a;}</style></defs><title>chantier</title><g class="cls-1"><g id="Layer_1" data-name="Layer 1"><g class="cls-2"><path class="cls-3" d="M410.81,668.85a29,29,0,0,0,57.83,0H474a5.28,5.28,0,0,0,5.28-5.28V647.73a5.28,5.28,0,0,0,5.28-5.28V631.89a5.27,5.27,0,0,0-5.28-5.28v-37a5.28,5.28,0,0,0-5.28-5.28H400.13a15.84,15.84,0,0,0-13,6.76l-24.83,35.48H320.93V594.93h5.28a5.27,5.27,0,0,0,5.28-5.28V569.11l29.84-21.69h33.52a10.56,10.56,0,0,0,10.56-10.56h63.35V558a5.28,5.28,0,0,0,5.28,5.27h5.28A5.27,5.27,0,0,0,484.6,558v-52.8a5.27,5.27,0,0,0-5.28-5.28H474a5.28,5.28,0,0,0-5.28,5.28H236.46a5.28,5.28,0,0,0-5.28,5.28H178.39a10.41,10.41,0,0,0-4.11.83,10.56,10.56,0,0,0-6.4,8.65,9.54,9.54,0,0,0,0,1.08,10.72,10.72,0,0,0,.3,2.48,10.54,10.54,0,0,0,5,6.65v13.41a10.54,10.54,0,0,0,0,18.27v5.86c0,1.47-1.52,2.36-2,2.6a15.84,15.84,0,1,0,23.09,14.08,5.28,5.28,0,1,0-10.55,0,5.28,5.28,0,1,1-7.7-4.69,13.65,13.65,0,0,0,7.7-12v-5.86a10.55,10.55,0,0,0,0-18.27v-12h47.51a5.29,5.29,0,0,0,5.28,5.28H339.94l-36.3,26.39h-3.82a15.83,15.83,0,0,0-14.92,10.56H273.42V552.7a5.28,5.28,0,0,0-5.28-5.28h-35a10.57,10.57,0,0,0-9.85,6.76L203,606.9a52.92,52.92,0,0,0-3.52,19v21.88a5.28,5.28,0,0,0-5.28,5.28v10.56a5.29,5.29,0,0,0,5.28,5.28h5.28a5.28,5.28,0,0,0,5.28-5.28h16c-.08.87-.13,1.75-.13,2.64a29,29,0,0,0,58,2.64h10.69a5.28,5.28,0,0,0,5.28,5.28h36.95a5.28,5.28,0,0,0,5.28-5.28h10.69a29,29,0,0,0,57.82,0ZM257.58,637.17v.12c-.87-.07-1.75-.12-2.64-.12Z" transform="translate(-152.55 -489.9)"/></g><path class="cls-4" d="M161.13,560.29c.46-.24,2-1.13,2-2.6V511h10.56v46.67a13.65,13.65,0,0,1-7.7,12,5.28,5.28,0,1,0,7.7,4.69,5.28,5.28,0,1,1,10.55,0,15.84,15.84,0,1,1-23.09-14.08Z" transform="translate(-152.55 -489.9)"/><path class="cls-3" d="M168.39,521.58h52.79V500.46H168.39A10.56,10.56,0,0,0,157.83,511h0a10.56,10.56,0,0,0,10.56,10.56Z" transform="translate(-152.55 -489.9)"/><path class="cls-5" d="M168.39,500.46A10.56,10.56,0,1,0,178.94,511a10.56,10.56,0,0,0-10.55-10.56Z" transform="translate(-152.55 -489.9)"/><path class="cls-6" d="M168.39,532.14a10.56,10.56,0,1,0,10.55,10.56,10.55,10.55,0,0,0-10.55-10.56Z" transform="translate(-152.55 -489.9)"/><path class="cls-7" d="M464,526.86H226.46a5.29,5.29,0,0,1-5.28-5.28V500.46a5.28,5.28,0,0,1,5.28-5.28H464v31.68Z" transform="translate(-152.55 -489.9)"/><path class="cls-5" d="M469.32,553.25H464a5.28,5.28,0,0,1-5.28-5.27v-52.8A5.28,5.28,0,0,1,464,489.9h5.28a5.27,5.27,0,0,1,5.28,5.28V548a5.27,5.27,0,0,1-5.28,5.27Z" transform="translate(-152.55 -489.9)"/><path class="cls-6" d="M338.91,520.33a21,21,0,0,1,12.42-4h33.52a10.56,10.56,0,0,1,0,21.12H351.33L296,577.63l-12.42-17.08,55.3-40.22Z" transform="translate(-152.55 -489.9)"/><path class="cls-3" d="M384.85,521.58a5.28,5.28,0,1,0,5.28,5.28,5.27,5.27,0,0,0-5.28-5.28Z" transform="translate(-152.55 -489.9)"/><path class="cls-7" d="M390.13,574.37H464a5.28,5.28,0,0,1,5.28,5.28v47.52H344.93l32.22-46a15.84,15.84,0,0,1,13-6.76Z" transform="translate(-152.55 -489.9)"/><path class="cls-6" d="M416.53,584.93h52.79v31.68H406V595.49a10.56,10.56,0,0,1,10.56-10.56Z" transform="translate(-152.55 -489.9)"/><polygon class="cls-4" points="158.39 73.92 105.59 73.92 105.59 137.27 158.39 137.27 158.39 73.92 158.39 73.92"/><path class="cls-3" d="M247.58,637.73H469.32a5.28,5.28,0,0,0,5.28-5.28V621.89a5.27,5.27,0,0,0-5.28-5.28H247.58v21.12Z" transform="translate(-152.55 -489.9)"/><path class="cls-4" d="M242.3,637.73h227v15.84a5.28,5.28,0,0,1-5.28,5.28H242.3V637.73Z" transform="translate(-152.55 -489.9)"/><path class="cls-7" d="M223.15,537.42h35a5.28,5.28,0,0,1,5.28,5.28v79.19a5.28,5.28,0,0,1-5.28,5.28h-13.2v26.4H189.5V615.85a52.92,52.92,0,0,1,3.52-19l20.28-52.72a10.57,10.57,0,0,1,9.85-6.76Z" transform="translate(-152.55 -489.9)"/><polygon class="cls-6" points="92.39 137.27 36.96 137.27 36.96 163.67 92.39 163.67 92.39 137.27 92.39 137.27"/><path class="cls-8" d="M429.73,632a24.2,24.2,0,1,0,24.19,24.2A24.19,24.19,0,0,0,429.73,632Z" transform="translate(-152.55 -489.9)"/><path class="cls-9" d="M429.73,637.73a18.48,18.48,0,1,0,18.47,18.48,18.49,18.49,0,0,0-18.47-18.48Zm0,47.52a29,29,0,1,1,29-29,29.07,29.07,0,0,1-29,29Z" transform="translate(-152.55 -489.9)"/><path class="cls-7" d="M429.73,645.65a10.56,10.56,0,1,0,10.56,10.56,10.56,10.56,0,0,0-10.56-10.56Z" transform="translate(-152.55 -489.9)"/><path class="cls-8" d="M371.65,632a24.2,24.2,0,1,0,24.2,24.2,24.2,24.2,0,0,0-24.2-24.2Z" transform="translate(-152.55 -489.9)"/><path class="cls-9" d="M371.65,637.73a18.48,18.48,0,1,0,18.48,18.48,18.5,18.5,0,0,0-18.48-18.48Zm0,47.52a29,29,0,1,1,29-29,29.08,29.08,0,0,1-29,29Z" transform="translate(-152.55 -489.9)"/><path class="cls-7" d="M371.65,645.65a10.56,10.56,0,1,0,10.56,10.56,10.56,10.56,0,0,0-10.56-10.56Z" transform="translate(-152.55 -489.9)"/><path class="cls-8" d="M244.94,632a24.2,24.2,0,1,0,24.2,24.2,24.2,24.2,0,0,0-24.2-24.2Z" transform="translate(-152.55 -489.9)"/><path class="cls-9" d="M244.94,637.73a18.48,18.48,0,1,0,18.48,18.48,18.5,18.5,0,0,0-18.48-18.48Zm0,47.52a29,29,0,1,1,29-29,29.08,29.08,0,0,1-29,29Z" transform="translate(-152.55 -489.9)"/><path class="cls-7" d="M244.94,645.65a10.56,10.56,0,1,0,10.56,10.56,10.56,10.56,0,0,0-10.56-10.56Z" transform="translate(-152.55 -489.9)"/><path class="cls-4" d="M194.78,658.85H189.5a5.29,5.29,0,0,1-5.28-5.28V643a5.28,5.28,0,0,1,5.28-5.28h5.28a5.27,5.27,0,0,1,5.28,5.28v10.56a5.28,5.28,0,0,1-5.28,5.28Z" transform="translate(-152.55 -489.9)"/><path class="cls-8" d="M194.78,616.61H189.5v15.84h5.28a5.27,5.27,0,0,0,5.28-5.28v-5.28a5.27,5.27,0,0,0-5.28-5.28Z" transform="translate(-152.55 -489.9)"/><path class="cls-4" d="M224.75,548h22.83a5.27,5.27,0,0,1,5.28,5.27v26.4a5.27,5.27,0,0,1-5.28,5.28H208.84a3.81,3.81,0,0,1-3.56-5.18l9.61-25a10.57,10.57,0,0,1,9.86-6.76Z" transform="translate(-152.55 -489.9)"/><path class="cls-5" d="M326.77,637.73H289.82a5.27,5.27,0,0,0-5.28,5.28v15.84a5.28,5.28,0,0,0,5.28,5.28h36.95a5.28,5.28,0,0,0,5.28-5.28V643a5.27,5.27,0,0,0-5.28-5.28Z" transform="translate(-152.55 -489.9)"/><path class="cls-4" d="M321.49,643a5.28,5.28,0,1,0,5.28,5.28,5.28,5.28,0,0,0-5.28-5.28Z" transform="translate(-152.55 -489.9)"/><path class="cls-3" d="M289.82,584.93h26.39a5.27,5.27,0,0,0,5.28-5.28V558.53a5.28,5.28,0,0,0-5.28-5.28H289.82A15.84,15.84,0,0,0,274,569.09h0a15.84,15.84,0,0,0,15.84,15.84Z" transform="translate(-152.55 -489.9)"/><path class="cls-4" d="M289.82,563.81a5.28,5.28,0,1,0,5.28,5.28,5.28,5.28,0,0,0-5.28-5.28Z" transform="translate(-152.55 -489.9)"/><path class="cls-5" d="M427.09,595.49h26.39a5.29,5.29,0,0,0,5.28-5.28h0a5.29,5.29,0,0,0-5.28-5.28H427.09a5.29,5.29,0,0,0-5.28,5.28h0a5.29,5.29,0,0,0,5.28,5.28Z" transform="translate(-152.55 -489.9)"/><path class="cls-5" d="M427.09,611.33h26.39a5.29,5.29,0,0,0,5.28-5.28h0a5.29,5.29,0,0,0-5.28-5.28H427.09a5.29,5.29,0,0,0-5.28,5.28h0a5.29,5.29,0,0,0,5.28,5.28Z" transform="translate(-152.55 -489.9)"/></g></g></svg>