<svg id="Layer_1" data-name="Layer 1" xmlns="http://www.w3.org/2000/svg" viewBox="0 0 258.75 105.35"><defs><style>.cls-1{fill:#ededed;}.cls-2{fill:#57585e;}.cls-3{fill:#ede5a5;}.cls-4{fill:#f7efc4;}.cls-5{fill:#c6ba7d;}.cls-6{fill:#181a1c;}.cls-7{fill:#f26f75;}.cls-8{fill:#fcd9dc;}.cls-9{fill:#ed1c24;}.cls-10{fill:#89b5e1;}.cls-11{fill:#a0cdee;}.cls-12{fill:#32353a;}.cls-13{fill:#d3c888;}.cls-14{fill:#e1d599;}.cls-15{fill:#695c61;}.cls-16{fill:#847a7e;}.cls-17{fill:#629abf;}</style></defs><title>citadin</title><path class="cls-1" d="M1288.09,648h-10.83v7.94h10.83a2.59,2.59,0,0,0,2.59-2.59v-2.76A2.59,2.59,0,0,0,1288.09,648Z" transform="translate(-1031.93 -580.94)"/><path class="cls-2" d="M1277.26,653.58h13.41c0-.08,0-.17,0-.26v-2.76c0-.09,0-.17,0-.26h-13.41Z" transform="translate(-1031.93 -580.94)"/><path class="cls-2" d="M242.46,51h3.33a2.4,2.4,0,0,1,2.4,2.4V65.75a0,0,0,0,1,0,0h-5.73a0,0,0,0,1,0,0V51A0,0,0,0,1,242.46,51Z"/><path class="cls-3" d="M1273.25,633.47c-2.25-7.76-28.17-25-63.45-22.61-2.78-3.42-6.72-9.14-10-14a28.53,28.53,0,0,0-18-12.07c-19.85-4.12-60.32-9.08-90.2,9.88-42.3,26.81-43.48,43.49-45.9,49.54a43.47,43.47,0,0,1-7.23,11.33l11.7,6.44H1110l3.92,5.18h105.06l12.2-30.82,26.45-4Z" transform="translate(-1031.93 -580.94)"/><polygon class="cls-4" points="80.59 84.41 81.93 86.19 187 86.19 193.78 69.06 193.85 67.72 80.11 67.72 80.59 84.41"/><path class="cls-5" d="M1145.17,665.21V585.49c34.74,0,43.61,5.67,49.7,11.42,5.82,5.5,12.85,21.12,13.47,22.52v44.42h1V619.21l0-.1c-.31-.69-7.54-17.08-13.76-23s-15.37-11.71-50.93-11.71c-17.92,0-32.9,3.61-45.79,11S1075.27,614,1066,629.58l.89.53c18-30.29,42.53-44.48,77.21-44.62v79.72Z" transform="translate(-1031.93 -580.94)"/><path class="cls-5" d="M1270.64,629.39c-20-11.36-49.69-13-57.45-12.33a4,4,0,0,1-1.88-2.9,6.28,6.28,0,0,1,.59-3.42l-1.16.06a7.18,7.18,0,0,0-.45,3.5,5.1,5.1,0,0,0,2.5,3.74l.15.08h.17c7.68-.71,39.43,1,59.27,13.53A15.07,15.07,0,0,0,1270.64,629.39Z" transform="translate(-1031.93 -580.94)"/><rect class="cls-2" x="83.73" y="81.87" width="103.26" height="4.32"/><path class="cls-6" d="M1266.33,633.24l-15.49.06-19.71,3-11.59,29.28c5.1,5.2,11.82,7.7,16,7.7s26.59-6.67,31.89-8.08,11.44-6.09,12.75-8.59Z" transform="translate(-1031.93 -580.94)"/><path class="cls-6" d="M1102.13,637.21c-.92-.51-18.36-5.81-19.07-6.27s-16.26,6.27-16.26,6.27-8.29,12.14-10.41,14c-1.05.9-4.12,5.67-7,10.31l-4.31-2.38-.78,5.85h11.44l2,4h8.08s19.6,8,30.08,8.2c7.93.17,14.82-6.94,17.7-10.41l.25.33h.91l-1.85-13S1103.05,637.73,1102.13,637.21Z" transform="translate(-1031.93 -580.94)"/><path class="cls-7" d="M1053.45,643.49h-3.28a2.14,2.14,0,0,1-2.13-2.13v-8.29a2.14,2.14,0,0,1,2.13-2.13h7.6a1.24,1.24,0,0,1,1.1,1.8Z" transform="translate(-1031.93 -580.94)"/><path class="cls-8" d="M1054.92,632h-4.74a.83.83,0,0,0,0,1.66h4.74a.83.83,0,1,0,0-1.66Z" transform="translate(-1031.93 -580.94)"/><rect class="cls-9" x="26.24" y="55.37" width="0.35" height="16.26"/><rect class="cls-9" x="18.28" y="63.33" width="16.26" height="0.35"/><circle class="cls-2" cx="1085.44" cy="662.82" r="23.48" transform="translate(-1182.7 380.71) rotate(-45)"/><circle class="cls-1" cx="1085.44" cy="662.82" r="18.64" transform="translate(-1182.7 380.71) rotate(-45)"/><circle class="cls-10" cx="53.51" cy="81.87" r="14.15"/><path class="cls-11" d="M1085.44,657.41a5.41,5.41,0,1,0,5.41,5.41A5.41,5.41,0,0,0,1085.44,657.41Z" transform="translate(-1031.93 -580.94)"/><path class="cls-12" d="M1086.68,650h-2.47a1.16,1.16,0,0,0,0,2.31h2.47a1.16,1.16,0,0,0,0-2.31Z" transform="translate(-1031.93 -580.94)"/><path class="cls-12" d="M1077.29,652.91l-1.75,1.75a1.15,1.15,0,0,0,0,1.63,1.14,1.14,0,0,0,1.62,0l1.75-1.75a1.15,1.15,0,0,0,0-1.63A1.14,1.14,0,0,0,1077.29,652.91Z" transform="translate(-1031.93 -580.94)"/><path class="cls-12" d="M1072.67,661.58v2.47a1.15,1.15,0,1,0,2.3,0v-2.47a1.15,1.15,0,0,0-2.3,0Z" transform="translate(-1031.93 -580.94)"/><path class="cls-12" d="M1075.54,671l1.75,1.74a1.15,1.15,0,0,0,1.62-1.62l-1.75-1.75a1.14,1.14,0,0,0-1.62,0A1.15,1.15,0,0,0,1075.54,671Z" transform="translate(-1031.93 -580.94)"/><path class="cls-12" d="M1084.21,675.59h2.47a1.15,1.15,0,1,0,0-2.3h-2.47a1.15,1.15,0,0,0,0,2.3Z" transform="translate(-1031.93 -580.94)"/><path class="cls-12" d="M1093.6,672.72l1.75-1.74a1.15,1.15,0,0,0-1.63-1.63L1092,671.1a1.14,1.14,0,0,0,0,1.62A1.15,1.15,0,0,0,1093.6,672.72Z" transform="translate(-1031.93 -580.94)"/><path class="cls-12" d="M1098.22,664.05v-2.47a1.15,1.15,0,0,0-2.3,0v2.47a1.15,1.15,0,1,0,2.3,0Z" transform="translate(-1031.93 -580.94)"/><path class="cls-12" d="M1095.35,654.66l-1.75-1.75a1.15,1.15,0,1,0-1.63,1.63l1.75,1.75a1.15,1.15,0,0,0,1.63-1.63Z" transform="translate(-1031.93 -580.94)"/><circle class="cls-2" cx="220.24" cy="81.87" r="23.48"/><circle class="cls-1" cx="220.24" cy="81.87" r="18.64"/><circle class="cls-10" cx="220.24" cy="81.87" r="14.15"/><path class="cls-11" d="M1252.18,657.41a5.41,5.41,0,1,0,5.4,5.41A5.41,5.41,0,0,0,1252.18,657.41Z" transform="translate(-1031.93 -580.94)"/><path class="cls-12" d="M1253.41,650h-2.47a1.16,1.16,0,0,0,0,2.31h2.47a1.16,1.16,0,0,0,0-2.31Z" transform="translate(-1031.93 -580.94)"/><path class="cls-12" d="M1244,652.91l-1.75,1.75a1.15,1.15,0,0,0,1.63,1.63l1.75-1.75a1.15,1.15,0,1,0-1.63-1.63Z" transform="translate(-1031.93 -580.94)"/><path class="cls-12" d="M1239.4,661.58v2.47a1.15,1.15,0,1,0,2.3,0v-2.47a1.15,1.15,0,1,0-2.3,0Z" transform="translate(-1031.93 -580.94)"/><path class="cls-12" d="M1242.27,671l1.75,1.74a1.15,1.15,0,0,0,1.63,0,1.14,1.14,0,0,0,0-1.62l-1.75-1.75a1.15,1.15,0,1,0-1.63,1.63Z" transform="translate(-1031.93 -580.94)"/><path class="cls-12" d="M1250.94,675.59h2.47a1.15,1.15,0,1,0,0-2.3h-2.47a1.15,1.15,0,0,0,0,2.3Z" transform="translate(-1031.93 -580.94)"/><path class="cls-12" d="M1260.33,672.72l1.75-1.74a1.15,1.15,0,0,0,0-1.63,1.14,1.14,0,0,0-1.62,0l-1.75,1.75a1.15,1.15,0,1,0,1.62,1.62Z" transform="translate(-1031.93 -580.94)"/><path class="cls-12" d="M1265,664.05v-2.47a1.15,1.15,0,1,0-2.3,0v2.47a1.15,1.15,0,1,0,2.3,0Z" transform="translate(-1031.93 -580.94)"/><path class="cls-12" d="M1262.08,654.66l-1.75-1.75a1.14,1.14,0,0,0-1.62,0,1.15,1.15,0,0,0,0,1.63l1.75,1.75a1.14,1.14,0,0,0,1.62,0A1.15,1.15,0,0,0,1262.08,654.66Z" transform="translate(-1031.93 -580.94)"/><path class="cls-13" d="M1084.75,625.3c-14.73,0-19,1.08-28.19,11-2.87,3.1-13.62,17.36-17.11,24.9a2.19,2.19,0,0,0,2,3.1h4.06a16.06,16.06,0,0,0,8.45-2.24,19.5,19.5,0,0,0,8.19-9.31,25.37,25.37,0,0,1,48.67,10.06c0,.44,0,.89,0,1.33a3,3,0,0,0,3,3.16h1.93a3,3,0,0,0,3-3.15C1118,646.14,1110.19,625.3,1084.75,625.3Z" transform="translate(-1031.93 -580.94)"/><path class="cls-1" d="M1034.58,651.2h12.08l-4.72,8.63h-7.36a2.65,2.65,0,0,1-2.65-2.65v-3.34A2.65,2.65,0,0,1,1034.58,651.2Z" transform="translate(-1031.93 -580.94)"/><polygon class="cls-2" points="0 76 11.59 76 13.15 73.13 0 73.13 0 76"/><path class="cls-13" d="M1226,660.43c0-4.26,5-19.62,16-22.81s20.72-1.9,27.6,7.07c5.14,6.69,8.14,12.94,9.29,14.43a.91.91,0,0,0,1.13.25h0a.93.93,0,0,0,.5-.75c.22-3.36,1.11-23.94-6.51-27.48-8.38-3.88-19.1-7.25-35.92-3.45s-26.48,19.59-28.21,33.83c-.43,5.7,8.54,5.61,10.44,5.61A6.35,6.35,0,0,0,1226,660.43Z" transform="translate(-1031.93 -580.94)"/><path class="cls-14" d="M1200.24,607.85c-1.23-1.74-2.49-3.57-3.7-5.35a30,30,0,0,0-19.33-12.66,175.3,175.3,0,0,0-28.08-3,2.53,2.53,0,0,0-2.58,2.54v25.67a2.53,2.53,0,0,0,2.53,2.53h46a6.36,6.36,0,0,0,5-2.28A6.19,6.19,0,0,0,1200.24,607.85Z" transform="translate(-1031.93 -580.94)"/><path class="cls-15" d="M1149.08,615.87a.82.82,0,0,1-.81-.81V589.39a.82.82,0,0,1,.81-.82,172,172,0,0,1,27.81,3,28.51,28.51,0,0,1,18.23,11.93c1.32,2,2.58,3.77,3.71,5.38a4.47,4.47,0,0,1-.17,5.38,4.68,4.68,0,0,1-3.62,1.64Z" transform="translate(-1031.93 -580.94)"/><path class="cls-14" d="M1142.87,589.47a2.54,2.54,0,0,0-2.64-2.54c-18.08.74-33.35,5-45.45,12.66l-2.06,1.32a9.14,9.14,0,0,0-3.81,10.49,9,9,0,0,0,8.57,6.19h42.85a2.54,2.54,0,0,0,2.54-2.53Z" transform="translate(-1031.93 -580.94)"/><path class="cls-15" d="M1097.48,615.87a7.3,7.3,0,0,1-6.93-5,7.41,7.41,0,0,1,3.1-8.49l2-1.31c11.83-7.5,26.83-11.67,44.6-12.39h0a.81.81,0,0,1,.84.81v25.59a.81.81,0,0,1-.81.81Z" transform="translate(-1031.93 -580.94)"/><path class="cls-16" d="M1128.7,589.67l-2.07.31-4.27,25.89h2Z" transform="translate(-1031.93 -580.94)"/><path class="cls-16" d="M1112.93,615.87h7l4.19-25.47q-3.75.69-7.28,1.62Z" transform="translate(-1031.93 -580.94)"/><path class="cls-16" d="M1177.53,591.67l-.64-.13-1.6-.29L1170,615.87h2.33Z" transform="translate(-1031.93 -580.94)"/><path class="cls-16" d="M1163.13,615.87h4.67l5.33-25c-1.51-.25-3-.47-4.52-.68Z" transform="translate(-1031.93 -580.94)"/><path class="cls-15" d="M1079.38,609l10-9.17a10,10,0,0,0,3.13-5.8c-.31.19-.62.38-.92.58A197.76,197.76,0,0,0,1069.09,611,10,10,0,0,0,1079.38,609Z" transform="translate(-1031.93 -580.94)"/><path class="cls-1" d="M1085.44,624.9a.86.86,0,0,1-.74-.42.88.88,0,0,1,.31-1.19c8-4.7,47.1-4.83,51.53-4.83h65.8c17.54,0,34.22,2.39,44.18,3.81l1.13.17a.85.85,0,0,1,.73,1,.86.86,0,0,1-1,.73l-1.12-.16c-9.92-1.42-26.53-3.8-43.94-3.8h-65.8c-15.91,0-44.47,1-50.66,4.6A.88.88,0,0,1,1085.44,624.9Z" transform="translate(-1031.93 -580.94)"/><path class="cls-10" d="M1198.68,609.42a13,13,0,0,0,0,10.7h0a5.35,5.35,0,0,0,5.36-5.35h0a5.36,5.36,0,0,0-5.36-5.35Z" transform="translate(-1031.93 -580.94)"/><path class="cls-17" d="M1197.77,617.24a13.9,13.9,0,0,0,.91,2.88h0a5.35,5.35,0,0,0,5.36-5.35C1204.09,616.08,1201.3,617.15,1197.77,617.24Z" transform="translate(-1031.93 -580.94)"/><ellipse class="cls-14" cx="123.94" cy="45.24" rx="6.65" ry="3.84"/><path class="cls-2" d="M1161,628h-10.27a1.77,1.77,0,0,1-1.77-1.77h0a1.77,1.77,0,0,1,1.77-1.77H1161a1.77,1.77,0,0,1,1.77,1.77h0A1.77,1.77,0,0,1,1161,628Z" transform="translate(-1031.93 -580.94)"/><path class="cls-4" d="M1146.81,641.07h0a.69.69,0,0,1-.69-.69v-8.77a.69.69,0,0,1,.69-.69h0a.69.69,0,0,1,.69.69v8.77A.69.69,0,0,1,1146.81,641.07Z" transform="translate(-1031.93 -580.94)"/><path class="cls-3" d="M1223.19,638.94a.85.85,0,0,1-.56-.21.86.86,0,0,1-.1-1.22c.88-1,9-10,24.69-10.42a.84.84,0,0,1,.88.84.86.86,0,0,1-.84.88c-15.15.38-23.09,9.44-23.42,9.83A.85.85,0,0,1,1223.19,638.94Z" transform="translate(-1031.93 -580.94)"/><path class="cls-3" d="M1060,636.41a.87.87,0,0,1-.61-1.47c2.53-2.56,8.47-8.54,16.67-8.54a.86.86,0,0,1,0,1.72c-7.48,0-13.06,5.63-15.44,8A.89.89,0,0,1,1060,636.41Z" transform="translate(-1031.93 -580.94)"/><path class="cls-5" d="M1060.39,619.18l4.22,2.92a.46.46,0,0,0,.29.1.51.51,0,0,0,.43-.23.53.53,0,0,0-.13-.72l-4.08-2.82Z" transform="translate(-1031.93 -580.94)"/><path class="cls-5" d="M1063.35,623.91a.55.55,0,0,0,.3.09.51.51,0,0,0,.29-.94l-4.35-3-.7.77Z" transform="translate(-1031.93 -580.94)"/><path class="cls-5" d="M1062.1,625.72a.55.55,0,0,0,.3.09.52.52,0,0,0,.42-.22.51.51,0,0,0-.13-.72l-4.58-3.18-.68.79Z" transform="translate(-1031.93 -580.94)"/></svg>