<svg id="cars" xmlns="http://www.w3.org/2000/svg" viewBox="0 0 543.53 178.24"><defs><style>.cls-1{fill:#b3b3b3;opacity:0.5;}.cls-2{fill:#ff7a2e;}.cls-3{fill:#f4f1e1;}.cls-4{fill:#55848a;}.cls-5{fill:#231f20;}.cls-6{fill:#68a1a8;}.cls-7{fill:#58595b;}</style></defs><title>compact</title><path id="bottom_shadow" data-name="bottom shadow" class="cls-1" d="M1225,260.28c0,2.67-93.72,4.83-209.33,4.83S806.34,263,806.34,260.28s93.72-4.82,209.33-4.82S1225,257.62,1225,260.28Z" transform="translate(-760.65 -86.87)"/><g id="sport_car" data-name="sport car"><polygon points="454.66 159.71 34.66 159.71 34.66 83.82 484.57 83.82 484.57 151 473.62 152.25 454.66 159.71"/><path class="cls-2" d="M1281.62,180.4c-1.6-2.59-9.75-15.84-14.14-23H1284v23Z" transform="translate(-760.65 -86.87)"/><path class="cls-2" d="M773.65,180.78h16.19l-3.59,8.2H769.82C770.65,187.66,772.7,182.29,773.65,180.78Z" transform="translate(-760.65 -86.87)"/><polygon class="cls-3" points="307.58 151.95 180.01 151.95 180.01 57.73 325.27 57.73 307.58 151.95"/><path class="cls-4" d="M1095.23,136.84l5.58-29.52a301.19,301.19,0,0,1,72.45,14.15,8.27,8.27,0,0,1,5.28,9.68c-.56,2.83-2.49,5.69-5.12,5.69h-78.19Z" transform="translate(-760.65 -86.87)"/><path class="cls-4" d="M1087.34,136.84H952.76l31.83-16.4c4.47-1.69,39.1-14.2,84.15-14.2,7.64,0,15.75.14,24.27.59Z" transform="translate(-760.65 -86.87)"/><rect class="cls-5" x="302.89" y="69.06" width="11.63" height="7.75"/><polygon class="cls-6" points="330.81 51.97 330.81 38.42 318.17 51.97 330.81 51.97"/><polygon class="cls-6" points="249.55 18.76 216.13 54.96 228.81 54.96 262.23 18.76 249.55 18.76"/><polygon class="cls-6" points="311.38 17.11 278.62 17.11 245.19 53.32 280.33 53.32 311.38 19.66 311.38 17.11"/><polygon class="cls-6" points="368.19 21.81 340.41 51.91 350.96 51.91 378.74 21.81 368.19 21.81"/><polygon class="cls-6" points="420.39 21.36 393.16 21.36 365.38 51.46 394.59 51.46 420.39 23.48 420.39 21.36"/><path class="cls-3" d="M1286.75,222.79c-11.48,3.65-38.53,7-49,8.15v-8.85a49.24,49.24,0,1,0-98.47,0v16.72h-63.16l17.69-94.22h79.61c6.11,0,11.34-4.91,12.73-11.94,1.19-6.1-.69-14.56-10.22-18.45-42.31-13.84-77.93-15.71-107.19-15.71-46.94,0-83.12,13.27-87.1,14.78l-.39.17L935,137.26a.71.71,0,0,1-.09.07,4.18,4.18,0,0,0-.92.69l-.08.11a3.66,3.66,0,0,0-.61.9.93.93,0,0,0,0,.1,4,4,0,0,0-.3,1.07c0,.08,0,.16,0,.24s0,.18,0,.27v98.1H890.09V222.09a49.24,49.24,0,0,0-98.48,0v15.14l-23.21-8.1v-32.4h20.38a3.88,3.88,0,0,0,3.55-2.32l7-16a3.87,3.87,0,0,0-.3-3.67,3.91,3.91,0,0,0-3.25-1.76H778.53c.12-.18.21-.32.26-.41,5.22-3,43.18-23.13,131.83-28a3.9,3.9,0,0,0,1.56-.42l66.68-34.35c1.7-.67,39.24-15.2,88.9-15.2,46.55,0,99.09,5,167.69,41.42a3.63,3.63,0,0,0,1.06.38l47.53,9.51v3.75h-23.5a3.88,3.88,0,0,0-3.3,5.91l18.91,30.72a3.86,3.86,0,0,0,3.3,1.85h16.88c0,.89.09,1.65.09,2.62C1296.42,202.94,1294.32,220.39,1286.75,222.79Z" transform="translate(-760.65 -86.87)"/><path class="cls-5" d="M1189.5,186.48a35.57,35.57,0,0,0-35.5,33.67V224a35.55,35.55,0,0,0,71,0v-3.88A35.57,35.57,0,0,0,1189.5,186.48Z" transform="translate(-760.65 -86.87)"/><path class="cls-7" d="M1212.48,224a23.07,23.07,0,0,1-46,0v-3.88a23.07,23.07,0,0,1,46,0Z" transform="translate(-760.65 -86.87)"/><path class="cls-5" d="M841.84,186.48a35.56,35.56,0,0,0-35.5,33.67V224a35.55,35.55,0,0,0,71,0v-3.88A35.57,35.57,0,0,0,841.84,186.48Z" transform="translate(-760.65 -86.87)"/><path class="cls-7" d="M864.82,224a23.07,23.07,0,0,1-46,0v-3.88a23.07,23.07,0,0,1,46,0Z" transform="translate(-760.65 -86.87)"/><path class="cls-5" d="M841.84,207.73a14.36,14.36,0,1,0,14.36,14.36A14.36,14.36,0,0,0,841.84,207.73Z" transform="translate(-760.65 -86.87)"/><path class="cls-5" d="M1189.5,207.73a14.36,14.36,0,1,0,14.36,14.36A14.35,14.35,0,0,0,1189.5,207.73Z" transform="translate(-760.65 -86.87)"/><path class="cls-5" d="M1303.94,184a3.87,3.87,0,0,0-3.86-3.59h-8.28V142.74a3.88,3.88,0,0,0-3.12-3.8l-50.13-10c-69.84-36.94-123.36-42-170.79-42-52.16,0-90.35,15.16-92,15.81l-.32.15L909.34,136.9c-97.17,5.5-133.92,28.61-135.44,29.6a3.91,3.91,0,0,0-1.17,1.19L760.65,189v42.91a3.9,3.9,0,0,0,2.6,3.66l31,10.8a3.87,3.87,0,0,0,5.15-3.66v-20.6a41.49,41.49,0,0,1,83,0v20.6a3.88,3.88,0,0,0,3.88,3.88h256.93a3.88,3.88,0,0,0,3.88-3.88v-20.6a41.49,41.49,0,1,1,83,0v13.17a3.88,3.88,0,0,0,4.28,3.86c1.61-.17,39.75-4.15,54.81-8.94,13.26-4.22,15.09-26.73,15.09-38.84C1304.18,187.67,1304,185,1303.94,184Zm-22.32-3.59c-1.6-2.59-9.75-15.84-14.14-23H1284v23Zm-508,.38h16.19l-3.59,8.2H769.82C770.65,187.66,772.7,182.29,773.65,180.78Zm294.58,58H940.67V144.59h145.25Zm27-102,5.58-29.52a301.19,301.19,0,0,1,72.45,14.15,8.27,8.27,0,0,1,5.28,9.68c-.56,2.83-2.49,5.69-5.12,5.69h-78.19Zm-7.89,0H952.76l31.83-16.4c4.47-1.69,39.1-14.2,84.15-14.2,7.64,0,15.75.14,24.27.59Zm199.41,85.95c-11.48,3.65-38.53,7-49,8.15v-8.85a49.24,49.24,0,1,0-98.47,0v16.72h-63.16l17.69-94.22h79.61c6.11,0,11.34-4.91,12.73-11.94,1.19-6.1-.69-14.56-10.22-18.45-42.31-13.84-77.93-15.71-107.19-15.71-46.94,0-83.12,13.27-87.1,14.78l-.39.17L935,137.26a.71.71,0,0,1-.09.07,4.18,4.18,0,0,0-.92.69l-.08.11a3.66,3.66,0,0,0-.61.9.93.93,0,0,0,0,.1,4,4,0,0,0-.3,1.07c0,.08,0,.16,0,.24s0,.18,0,.27v98.1H890.09V222.09a49.24,49.24,0,0,0-98.48,0v15.14l-23.21-8.1v-32.4h20.38a3.88,3.88,0,0,0,3.55-2.32l7-16a3.87,3.87,0,0,0-.3-3.67,3.91,3.91,0,0,0-3.25-1.76H778.53c.12-.18.21-.32.26-.41,5.22-3,43.18-23.13,131.83-28a3.9,3.9,0,0,0,1.56-.42l66.68-34.35c1.7-.67,39.24-15.2,88.9-15.2,46.55,0,99.09,5,167.69,41.42a3.63,3.63,0,0,0,1.06.38l47.53,9.51v3.75h-23.5a3.88,3.88,0,0,0-3.3,5.91l18.91,30.72a3.86,3.86,0,0,0,3.3,1.85h16.88c0,.89.09,1.65.09,2.62C1296.42,202.94,1294.32,220.39,1286.75,222.79Z" transform="translate(-760.65 -86.87)"/></g></svg>