<svg xmlns="http://www.w3.org/2000/svg" width="977.745" height="521.13" viewBox="0 0 977.745 521.13">
  <g id="undraw_fast_car_p4cu" transform="translate(160 44.431)">
    <path id="Path_8" data-name="Path 8" d="M1029.88,665.85c0,1.72,0,3.44-.11,5.14a121.561,121.561,0,0,1-2.38,19.69c-6.57,32.11-25.54,57.07-49.37,64.44a49.289,49.289,0,0,1-14.64,2.23c-36.73,0-66.5-41-66.5-91.5s29.77-91.5,66.5-91.5c34.45,0,62.79,36.06,66.16,82.25C1029.77,659.64,1029.88,662.73,1029.88,665.85Z" transform="translate(-242.63 -326.65)" fill="#36334a"/>
    <path id="Path_9" data-name="Path 9" d="M1029.77,671a121.561,121.561,0,0,1-2.38,19.69c-6.57,32.11-25.54,57.07-49.37,64.44-18.45-8.49-32.14-40.31-32.14-78.27,0-44.46,18.8-80.5,42-80.5,19.47,0,35.85,25.42,40.6,59.91C1029.14,661,1029.57,665.94,1029.77,671Z" transform="translate(-242.63 -326.65)" opacity="0.1"/>
    <path id="Path_10" data-name="Path 10" d="M695.88,463.35s180-37,275-3c0,0,14,7,0,19,0,0,13.24,14-9.88,19L869.15,504,695.88,486.35Z" transform="translate(-242.63 -326.65)" fill="#3f3d56"/>
    <path id="Path_11" data-name="Path 11" d="M727.38,468s154.11-31.68,235.45-2.57c0,0,12,6,0,16.27,0,0,11.33,12-8.46,16.27l-78.64,4.83L727.38,487.71Z" transform="translate(-242.63 -326.65)" opacity="0.1"/>
    <path id="Path_12" data-name="Path 12" d="M902.88,523.35l-12-24s5.26-24.28-37.5-31.42c-2.37-10.59-13.11-18.58-26-18.58-12.58,0-23.1,7.6-25.82,17.8-6.14.53-12.68,1.25-19.68,2.2l-9.78,52.44-1.22-2.44s6.21-28.68-49.76-32.87a20.82,20.82,0,0,0,4.76-13.13c0-12.71-11.87-23-26.5-23s-26.5,10.29-26.5,23a21,21,0,0,0,5.56,14.08q-7.85.75-16.56,1.92l-11,59,51,7,81-12L775.71,529l46.17,6.34Z" transform="translate(-242.63 -326.65)" fill="#00b0ff"/>
    <path id="Path_13" data-name="Path 13" d="M902.88,523.35l-12-24s5.26-24.28-37.5-31.42c-2.37-10.59-13.11-18.58-26-18.58-12.58,0-23.1,7.6-25.82,17.8-6.14.53-12.68,1.25-19.68,2.2l-9.78,52.44-1.22-2.44s6.21-28.68-49.76-32.87a20.82,20.82,0,0,0,4.76-13.13c0-12.71-11.87-23-26.5-23s-26.5,10.29-26.5,23a21,21,0,0,0,5.56,14.08q-7.85.75-16.56,1.92l-11,59,51,7,81-12L775.71,529l46.17,6.34Z" transform="translate(-242.63 -326.65)" opacity="0.2"/>
    <path id="Path_14" data-name="Path 14" d="M730.86,470.23s-8-44.88,29-45.88,25,65,25,65,28,6,30,17-97,14-97,14Z" transform="translate(-242.63 -326.65)" fill="#00b0ff"/>
    <path id="Path_15" data-name="Path 15" d="M665.88,707.35c0,53-39.4,96-88,96s-88-43-88-96,39.89-104.5,88.5-104.5S665.88,654.33,665.88,707.35Z" transform="translate(-242.63 -326.65)" fill="#36334a"/>
    <ellipse id="Ellipse_1" data-name="Ellipse 1" cx="70" cy="80.99" rx="70" ry="80.99" transform="translate(265.25 303.71)" opacity="0.1"/>
    <ellipse id="Ellipse_2" data-name="Ellipse 2" cx="88" cy="96" rx="88" ry="96" transform="translate(-139.75 275.69)" fill="#36334a"/>
    <path id="Path_16" data-name="Path 16" d="M340.88,469.35s-41,2-39,24,35,6,35,6Z" transform="translate(-242.63 -326.65)" fill="#36334a"/>
    <path id="Path_17" data-name="Path 17" d="M682,506l16.88-112.65s4-14-50-14c0,0-173-11-217,7,0,0-51,19-122,117C309.88,503.35,675,512,682,506Z" transform="translate(-242.63 -326.65)" fill="#3f3d56"/>
    <path id="Path_18" data-name="Path 18" d="M675.88,388.35l-31,123-19.44-.47-92-2.24-205.19-5c-.57-9.72,96.6-110.29,96.6-110.29Z" transform="translate(-242.63 -326.65)" fill="#36334a"/>
    <path id="Path_19" data-name="Path 19" d="M533.47,508.64l8.38-32.4s-8-44.89,29-45.89,25,65,25,65,25.5,5.47,29.56,15.53Z" transform="translate(-242.63 -326.65)" fill="#00b0ff" opacity="0.2"/>
    <path id="Path_20" data-name="Path 20" d="M1030.38,658.85c-6-58-43.5-70.5-43.5-70.5-36-2-60,135-60,135l-277,25s9.5-116.5-57.5-135.5-84.5,117.5-87.5,136.5-404-2-415-10-7-85-4-91,11-33,11-33c0-6.44,3.08-14.58,5.64-20.23,1.8-4,3.36-6.77,3.36-6.77,8.69-49.28,53.81-61.21,56.84-62h.16c12-12,123-20,123-20l42-8,341.47,6.71,14.53.29L857.48,497l117.4-5.65c27,0,41,68,41,68C1040.88,619.35,1030.38,658.85,1030.38,658.85Z" transform="translate(-242.63 -326.65)" fill="#3f3d56"/>
    <ellipse id="Ellipse_3" data-name="Ellipse 3" cx="51.48" cy="32.23" rx="51.48" ry="32.23" transform="translate(152.975 232.727) rotate(-21.92)" opacity="0.1"/>
    <ellipse id="Ellipse_4" data-name="Ellipse 4" cx="51.48" cy="32.23" rx="51.48" ry="32.23" transform="translate(150.976 228.723) rotate(-21.92)" fill="#f2f2f2"/>
    <path id="Path_21" data-name="Path 21" d="M164.72,528.39c-.51,11-5.44,24.88-14.31,38.25-14.27,21.52-33.84,34.19-45.89,30.48,1.8-4,3.36-6.77,3.36-6.77C116.57,541.07,161.69,529.14,164.72,528.39Z" transform="translate(-242.63 -326.65)" opacity="0.1"/>
    <path id="Path_22" data-name="Path 22" d="M161.72,526.39c-.51,11-5.44,24.88-14.31,38.25-14.27,21.52-33.84,34.19-45.89,30.48,1.8-4,3.36-6.77,3.36-6.77C113.57,539.07,158.69,527.14,161.72,526.39Z" transform="translate(-242.63 -326.65)" fill="#f2f2f2"/>
    <path id="Path_23" data-name="Path 23" d="M219.25,459.69h-79l-4-11h96Z" transform="translate(-160 -230)" fill="#36334a"/>
    <rect id="Rectangle_1" data-name="Rectangle 1" width="130" height="38" transform="translate(-88.75 310.69)" fill="#36334a"/>
    <circle id="Ellipse_5" data-name="Ellipse 5" cx="18" cy="18" r="18" transform="translate(163.25 349.69)" opacity="0.1"/>
    <circle id="Ellipse_6" data-name="Ellipse 6" cx="18" cy="18" r="18" transform="translate(161.25 346.69)" fill="#f2f2f2"/>
    <ellipse id="Ellipse_7" data-name="Ellipse 7" cx="9" cy="19" rx="9" ry="19" transform="translate(-154.75 334.69)" opacity="0.1"/>
    <ellipse id="Ellipse_8" data-name="Ellipse 8" cx="9" cy="19" rx="9" ry="19" transform="translate(-157.75 333.69)" fill="#f2f2f2"/>
    <path id="Path_24" data-name="Path 24" d="M886.88,599.35c-11,34-12,87-12,87l-4,14-195,22s1-98,4-144c2.11-32.45-5.72-59.92-10.53-73.29l14.53.29L857.48,497C886.48,517.33,896.75,568.82,886.88,599.35Z" transform="translate(-242.63 -326.65)" fill="#36334a"/>
    <path id="Path_25" data-name="Path 25" d="M842.42,538.05a4.91,4.91,0,0,0-4.52,5.69,3.51,3.51,0,0,0,2,2.61c3.23,1.61,24.73-2,32.88-3.44a5.53,5.53,0,0,0,4.62-4.93c.1-1.42-.42-2.63-2.5-2.63Z" transform="translate(-242.63 -326.65)" fill="#f2f2f2"/>
    <path id="Path_26" data-name="Path 26" d="M668.88,501.35s5,22,29,15l8-31-16-9Z" transform="translate(-242.63 -326.65)" fill="#36334a"/>
    <path id="Path_27" data-name="Path 27" d="M698.27,456.68c11-6.52,28.45-12.22,45.71,1.47a20.4,20.4,0,0,1,5.89,24.54c-5.65,12.23-19.06,25.5-50.37,9.61a20.2,20.2,0,0,1-7.62-6.74l-.16-.24a20.3,20.3,0,0,1,6.55-28.64Z" transform="translate(-242.63 -326.65)" fill="#36334a"/>
    <circle id="Ellipse_9" data-name="Ellipse 9" cx="20" cy="20" r="20" transform="translate(315.75 360.19)" fill="#f2f2f2"/>
    <ellipse id="Ellipse_10" data-name="Ellipse 10" cx="11" cy="20" rx="11" ry="20" transform="translate(737.75 324.19)" fill="#f2f2f2"/>
    <rect id="Rectangle_2" data-name="Rectangle 2" width="26" height="35" rx="12" transform="translate(322.25 318.69)" fill="#36334a"/>
    <path id="Path_28" data-name="Path 28" d="M908.75,510.19h0a7,7,0,0,1,7,7v16a12,12,0,0,1-12,12h0a7,7,0,0,1-7-7v-16a12,12,0,0,1,12-12Z" transform="translate(-160 -230)" fill="#36334a"/>
    <path id="Path_29" data-name="Path 29" d="M991.38,734.85h0a12,12,0,0,1-12-12v-11a12,12,0,0,1,12-12h0c6.6,0,6,5.4,6,12v11C997.37,729.45,998,734.85,991.38,734.85Z" transform="translate(-242.63 -326.65)" fill="#36334a"/>
    <path id="Path_30" data-name="Path 30" d="M878.75,556.19h0a12,12,0,0,1,12,12v15a8,8,0,0,1-8,8h0a12,12,0,0,1-12-12v-15A8,8,0,0,1,878.75,556.19Z" transform="translate(-160 -230)" fill="#36334a"/>
    <path id="Path_31" data-name="Path 31" d="M1029.88,665.85c0,1.72,0,3.44-.11,5.14a121.561,121.561,0,0,1-2.38,19.69,12.212,12.212,0,0,1-2,.17,12,12,0,0,1-12-12v-11a12,12,0,0,1,12-12,11.713,11.713,0,0,1,3.1.41c.36.1.72.21,1.06.34C1029.77,659.64,1029.88,662.73,1029.88,665.85Z" transform="translate(-242.63 -326.65)" fill="#36334a"/>
    <rect id="Rectangle_3" data-name="Rectangle 3" width="26" height="35" rx="12" transform="translate(372.75 361.19)" fill="#36334a"/>
    <rect id="Rectangle_4" data-name="Rectangle 4" width="26" height="35" rx="12" transform="translate(274.75 361.19)" fill="#36334a"/>
    <rect id="Rectangle_5" data-name="Rectangle 5" width="26" height="35" rx="12" transform="translate(322.75 413.19)" fill="#36334a"/>
    <path id="Path_32" data-name="Path 32" d="M927.64,302.66a16.422,16.422,0,0,1-1,5.59,16.6,16.6,0,0,1-31.09.44,16.331,16.331,0,0,1-1.14-6,16.6,16.6,0,1,1,33.2,0Z" transform="translate(-242.63 -326.65)" fill="#ff6584"/>
    <path id="Path_33" data-name="Path 33" d="M897.78,306.8a16.6,16.6,0,0,1,6.46-22.57,16.43,16.43,0,0,1,6-2,16.6,16.6,0,1,0,1.4,33.07A16.59,16.59,0,0,1,897.78,306.8Z" transform="translate(-242.63 -326.65)" fill="#ff6584"/>
    <rect id="Rectangle_6" data-name="Rectangle 6" width="44.47" height="69.37" transform="translate(647.66 -0.87)" fill="#ff6584"/>
    <rect id="Rectangle_7" data-name="Rectangle 7" width="44.47" height="69.37" transform="translate(648.66 -2.87)" opacity="0.1"/>
    <path id="Path_34" data-name="Path 34" d="M820,577.46s-4.74,13-16,14.82S786.24,597,786.24,597l26.68,17.19,14.23-1.78s1.77-18.38,7.7-22.53S820,577.46,820,577.46Z" transform="translate(-242.63 -326.65)" fill="#fbbebe"/>
    <path id="Path_35" data-name="Path 35" d="M1012.72,577.46s4.74,13,16,14.82,17.78,4.75,17.78,4.75l-26.68,17.19-14.23-1.78s-1.77-18.38-7.7-22.53S1012.72,577.46,1012.72,577.46Z" transform="translate(-242.63 -326.65)" fill="#fbbebe"/>
    <path id="Path_36" data-name="Path 36" d="M882.88,462.44s-7.12,3.56-9.49,10.67c0,0-13,4.15-20.16,15.42,0,0-8.89,9.48-10.08,14.23S828.33,536,828.33,536s-13.63,44.46-20.75,49.21c0,0,22.53-4.75,26.68,17.78,0,0,5.34,0,11.27-20.75S865.68,536,865.68,536s4.75-17.79,8.9-20.75,10.67-16.6,16.6-13.05,45.06-.59,45.06-.59,23.12,10.67,23.71,17.79,4.75,7.7,5.34,13.63,22.53,52.77,22.53,52.77,4.15,13,5.33,16c0,0,13.05-31.42,30.24-13.64,0,0-.59-11.86-5.93-19S989,506.31,989,506.31s-2.37-8.3-4.74-10.67S963.51,474.3,957,474.3c0,0-3.56-8.9-7.71-10.08Z" transform="translate(-242.63 -326.65)" fill="#696880"/>
    <path id="Path_37" data-name="Path 37" d="M829.52,608.29a28.89,28.89,0,0,1-28.23-3.8,56.27,56.27,0,0,0-12.59-7.29c-6.28-2.54-13.81-4.43-16.1-.17-4.15,7.7,50.4,26.68,50.4,26.68S830.11,619.55,829.52,608.29Z" transform="translate(-242.63 -326.65)" fill="#696880"/>
    <path id="Path_38" data-name="Path 38" d="M1003.23,608.29a28.89,28.89,0,0,0,28.23-3.8,56.266,56.266,0,0,1,12.59-7.29c6.28-2.54,13.81-4.43,16.1-.17,4.15,7.7-50.4,26.68-50.4,26.68S1002.64,619.55,1003.23,608.29Z" transform="translate(-242.63 -326.65)" fill="#696880"/>
    <path id="Path_39" data-name="Path 39" d="M902.26,364.92c-.23,2.06-.9,4.29-2.66,5.39-1.44.9-3.26.82-4.92,1.17a11.44,11.44,0,0,0-7.83,6.76,17.52,17.52,0,0,0-.74,10.55,38.855,38.855,0,0,0,1.51,5.07c1.75,4.92,3.85,9.79,7.09,13.89a59,59,0,0,0,9.3,8.76c2.11,1.72,4.29,3.48,6.89,4.29a21.357,21.357,0,0,0,5.41.71c2.25.11,4.64.18,6.59-.94,3-1.73,3.9-5.56,5.52-8.62,1.39-2.61,3.45-4.81,4.74-7.47a29.778,29.778,0,0,0,2-6.51l2.77-12.31c1-4.46,1.92-9.5-.6-13.33a2.1,2.1,0,0,0-.74-.77,2.75,2.75,0,0,0-1.51-.16,16.32,16.32,0,0,1-9.15-2.09,3.619,3.619,0,0,1-1.15-.9,4.529,4.529,0,0,1-.71-2.11,22.291,22.291,0,0,0-1.28-4.46,3,3,0,0,0-.87-1.33,3.11,3.11,0,0,0-1.4-.47,114.489,114.489,0,0,0-12.93-1.36c-1.43-.06-3.57-.63-4.54.62S902.42,363.42,902.26,364.92Z" transform="translate(-242.63 -326.65)" fill="#fbbebe"/>
    <path id="Path_40" data-name="Path 40" d="M902.26,364.92c-.23,2.06-.9,4.29-2.66,5.39-1.44.9-3.26.82-4.92,1.17a11.44,11.44,0,0,0-7.83,6.76,17.52,17.52,0,0,0-.74,10.55,38.855,38.855,0,0,0,1.51,5.07c1.75,4.92,3.85,9.79,7.09,13.89a59,59,0,0,0,9.3,8.76c2.11,1.72,4.29,3.48,6.89,4.29a21.357,21.357,0,0,0,5.41.71c2.25.11,4.64.18,6.59-.94,3-1.73,3.9-5.56,5.52-8.62,1.39-2.61,3.45-4.81,4.74-7.47a29.778,29.778,0,0,0,2-6.51l2.77-12.31c1-4.46,1.92-9.5-.6-13.33a2.1,2.1,0,0,0-.74-.77,2.75,2.75,0,0,0-1.51-.16,16.32,16.32,0,0,1-9.15-2.09,3.619,3.619,0,0,1-1.15-.9,4.529,4.529,0,0,1-.71-2.11,22.291,22.291,0,0,0-1.28-4.46,3,3,0,0,0-.87-1.33,3.11,3.11,0,0,0-1.4-.47,114.489,114.489,0,0,0-12.93-1.36c-1.43-.06-3.57-.63-4.54.62S902.42,363.42,902.26,364.92Z" transform="translate(-242.63 -326.65)" opacity="0.1"/>
    <path id="Path_41" data-name="Path 41" d="M894.23,372a27.431,27.431,0,0,0-7.14-1.13c-5.72-.14-11.83,1.84-15.14,6.51a15.37,15.37,0,0,0-2.29,11.45,23.709,23.709,0,0,0,5.2,10.67,32.07,32.07,0,0,1,4,5.24c1.58,3,1.62,6.58,2,10,1,8.11,4.46,15.75,5.84,23.81s.18,17.42-6.19,22.56c-1.07.86-2.36,1.76-2.45,3.13-.15,2.19,2.7,3.13,4.89,3.33,6.55.63,13.27,1.24,19.63-.45,2.64-.7,5.17-1.79,7.85-2.29,6.81-1.27,13.65,1.33,20.45,2.59a91.809,91.809,0,0,0,14.91,1.21,8,8,0,0,0,3.44-.45,2.75,2.75,0,0,0,1.74-2.74,4.64,4.64,0,0,0-1.18-2c-3.44-4.26-4.49-9.9-5.43-15.29L941.26,430c-1.69-9.68-3.26-20.19,1.32-28.89,3.3-6.25,9.36-10.65,12.84-16.8A9.79,9.79,0,0,0,957,378c-.52-3.09-3.31-5.3-6.17-6.6a23.21,23.21,0,0,0-17.39-.63c.1,4.33-1,8.71-1.72,13l-1.21,7a89.113,89.113,0,0,1-2.7,12.2,13.219,13.219,0,0,1-2.17,4.42,11.428,11.428,0,0,1-3.83,2.79,22.761,22.761,0,0,1-10.15,2.31,13.32,13.32,0,0,1-4.48-.68c-2.38-.86-4.31-2.63-6.17-4.35a10.081,10.081,0,0,1-1.63-1.76,10.612,10.612,0,0,1-1.11-2.67,54.293,54.293,0,0,1-1.9-7.48c-.31-1.94-.4-3.91-.54-5.87C895.39,384,895.4,377.57,894.23,372Z" transform="translate(-242.63 -326.65)" fill="#f2f2f2"/>
    <path id="Path_42" data-name="Path 42" d="M888.21,486.75s-2.37,31.42,12.45,36.76,1.78-26.09,1.78-26.09l-4.74-9.49Z" transform="translate(-242.63 -326.65)" fill="#fbbebe"/>
    <path id="Path_43" data-name="Path 43" d="M938.61,486.75s2.37,31.42-12.45,36.76-1.78-26.09-1.78-26.09l4.74-9.49Z" transform="translate(-242.63 -326.65)" fill="#fbbebe"/>
    <path id="Path_44" data-name="Path 44" d="M875.17,381.81l-4.74,7.71s4.15,26.68,4.74,31.42A61.843,61.843,0,0,0,877.54,431s.59,14.23.59,19.56,3,14.23,3,14.23a64.528,64.528,0,0,0,3,14.82c2.37,6.53,4.75,14.23,4.75,14.23s3-8.3,14.82,4.15a7.19,7.19,0,0,0,0-10.08s-3.56-16-3.56-24.3-6.52-48-6.52-48S889.4,370.54,875.17,381.81Z" transform="translate(-242.63 -326.65)" opacity="0.1"/>
    <path id="Path_45" data-name="Path 45" d="M874,381.22l-4.74,7.7s4.15,26.68,4.74,31.43a62.254,62.254,0,0,0,2.38,10.07S877,444.65,877,450s3,14.23,3,14.23a64.813,64.813,0,0,0,3,14.82c2.37,6.52,4.74,14.23,4.74,14.23s3-8.3,14.82,4.15a7.18,7.18,0,0,0,0-10.08s-3.56-16-3.56-24.31-6.52-48-6.52-48S888.21,370,874,381.22Z" transform="translate(-242.63 -326.65)" fill="#f2f2f2"/>
    <path id="Path_46" data-name="Path 46" d="M952.24,377.06l3,3.53s3.5,20.19-4.21,45.68l-2.37,23.13s-4.15,19.56-4.75,24.31-.59,5.33-1.77,7.11a2.28,2.28,0,0,0,0,3l-3.56,13.05s-5.34-6.52-16,1.78c0,0-3-4.75-.59-8.9s2.37-5.93,1.78-7.11,2.37-7.12,2.37-8.3,4.15-28.46,4.15-28.46,1.78-26.68,3.56-35.57c1.09-5.47,1.06-17.67.88-26.25-.19-8.93,10.62-13.78,17-7.49A4.621,4.621,0,0,1,952.24,377.06Z" transform="translate(-242.63 -326.65)" opacity="0.1"/>
    <path id="Path_47" data-name="Path 47" d="M954,375.88l3,3.53s3.49,20.18-4.21,45.68l-2.37,23.12s-4.15,19.57-4.75,24.31-.59,5.34-1.78,7.11a2.31,2.31,0,0,0,0,3l-3.55,13s-5.34-6.52-16,1.78c0,0-3-4.74-.59-8.89s2.37-5.93,1.77-7.12,2.38-7.11,2.38-8.3,4.15-28.46,4.15-28.46,1.78-26.68,3.55-35.57.6-35.57.6-35.57S945.72,367,954,375.88Z" transform="translate(-242.63 -326.65)" fill="#f2f2f2"/>
    <circle id="Ellipse_11" data-name="Ellipse 11" cx="23.72" cy="23.72" r="23.72" transform="translate(647.95 -6.51)" fill="#fbbebe"/>
    <path id="Path_48" data-name="Path 48" d="M926.67,308.25a16.6,16.6,0,0,1-31.09.44c9.25-3.72,18.72-.4,18.72-.4A16.777,16.777,0,0,1,926.67,308.25Z" transform="translate(-242.63 -326.65)" opacity="0.1"/>
    <path id="Path_49" data-name="Path 49" d="M914.3,309.48s-45.65-16-34.39,61.66c0,0,10.08,6.52,17.79,2.37,0,0-5.34-54,15.41-51.58s17.2,50.39,17.2,50.39,11.86,3.56,15.41-3S944.54,298.8,914.3,309.48Z" transform="translate(-242.63 -326.65)" fill="#ff6584"/>
    <path id="Path_50" data-name="Path 50" d="M913.11,318.37c-14.24-1.63-16.19,23.26-16,39.05.18-15.69,2.82-37,16-35.49,14.82,1.69,17.24,26.65,17.42,40.79C930.69,349.75,929.27,320.22,913.11,318.37Z" transform="translate(-242.63 -326.65)" opacity="0.1"/>
    <path id="Path_51" data-name="Path 51" d="M879.91,367.58A161.187,161.187,0,0,1,878.14,347a152.222,152.222,0,0,0,1.77,24.1s10.08,6.52,17.79,2.37c0,0-.13-1.28-.27-3.43C889.76,374,879.91,367.58,879.91,367.58Z" transform="translate(-242.63 -326.65)" opacity="0.1"/>
    <path id="Path_52" data-name="Path 52" d="M945.72,365.8c-3.31,6.07-13.82,3.41-15.25,3-.07,2.2-.16,3.51-.16,3.51s11.86,3.56,15.41-3c.74-1.35,1.12-5.14,1-10.21C946.62,362.41,946.27,364.79,945.72,365.8Z" transform="translate(-242.63 -326.65)" opacity="0.1"/>
  </g>
</svg>
