<svg id="manually" xmlns="http://www.w3.org/2000/svg" width="227.63" height="238.19" viewBox="0 0 227.63 238.19">
  <path id="Path_1" data-name="Path 1" d="M111.59,853.4c0-84.43,51-152.88,113.82-152.88S339.22,769,339.22,853.4s-51,85.31-113.81,85.31S111.59,937.83,111.59,853.4Z" transform="translate(-111.59 -700.52)" fill="#0a0a0a"/>
  <path id="Path_2" data-name="Path 2" d="M124.18,851.21c0-75.08,45.32-136,101.23-136s101.22,60.87,101.22,136S281.31,924,225.41,924,124.18,926.3,124.18,851.21Z" transform="translate(-111.59 -700.52)" fill="#a5bf8f"/>
  <path id="Path_3" data-name="Path 3" d="M278.73,780.33h-3.42a4.55,4.55,0,0,0-4.55,4.55V824H231.67V784.88a4.56,4.56,0,0,0-4.56-4.55H223.7a4.56,4.56,0,0,0-4.56,4.55V824H180.05V784.88a4.55,4.55,0,0,0-4.55-4.55h-3.42a4.56,4.56,0,0,0-4.56,4.55v90.75a4.56,4.56,0,0,0,4.56,4.56h3.42a4.56,4.56,0,0,0,4.55-4.56V836.52h39.09v39.11a4.56,4.56,0,0,0,4.56,4.56h3.41a4.56,4.56,0,0,0,4.56-4.56V836.52h39.09v39.11a4.56,4.56,0,0,0,4.55,4.56h3.42a4.56,4.56,0,0,0,4.56-4.56V784.88a4.56,4.56,0,0,0-4.56-4.55Z" transform="translate(-111.59 -700.52)"/>
  <path id="Path_4" data-name="Path 4" d="M172,775.88V758.7h-2.87v-2.35a4.879,4.879,0,0,0,2.31-.92,4.439,4.439,0,0,0,1.57-1.87h2.35v22.32Z" transform="translate(-111.59 -700.52)" fill="#161616"/>
  <path id="Path_5" data-name="Path 5" d="M167.57,889.19a6.48,6.48,0,0,1,1.71-4.84,5.24,5.24,0,0,1,3.88-1.48,5,5,0,0,1,3.77,1.65,5.49,5.49,0,0,1,1.56,3.87,10.05,10.05,0,0,1-1,4.4,30.927,30.927,0,0,1-2.58,4c-.37.52-.91,1.33-1.64,2.44l-.6.91c-.39.59-.69,1.06-.89,1.4a1,1,0,0,0-.14.32h6.6v3.3h-10.7v-3.09a8,8,0,0,1,.74-1.23c.22-.34.48-.72.77-1.14l.87-1.26c.51-.7,1.31-1.82,2.41-3.36a22.2,22.2,0,0,0,2.31-3.94,6.71,6.71,0,0,0,.63-2.68,2.67,2.67,0,0,0-.57-1.73,2,2,0,0,0-1.6-.75,2.08,2.08,0,0,0-2,1.62,3.789,3.789,0,0,0-.19,1.28v.86h-3.32Z" transform="translate(-111.59 -700.52)"/>
  <path id="Path_6" data-name="Path 6" d="M225.18,773c1.55,0,2.32-.72,2.32-2.15v-1.31q0-3.43-3.6-3.44v-2.88a3.59,3.59,0,0,0,2.87-1.08,4,4,0,0,0,.85-2.74v-.52q0-2.19-1.92-2.19a1.72,1.72,0,0,0-1.57.82,3.07,3.07,0,0,0-.37,1.61v.58h-3.29v-.51a5.94,5.94,0,0,1,1.21-3.88,4.66,4.66,0,0,1,3.86-1.71,4.81,4.81,0,0,1,3.79,1.6,5.19,5.19,0,0,1,1.28,3.6v.94a5.49,5.49,0,0,1-1.24,3.6,5.412,5.412,0,0,1-1.25,1.08,5.54,5.54,0,0,1,2.31,2.55,4.71,4.71,0,0,1,.43,2.12v1.76a5.31,5.31,0,0,1-1.69,4.06,5.48,5.48,0,0,1-3.9,1.53,5.081,5.081,0,0,1-3.77-1.57,5.14,5.14,0,0,1-1.55-3.75v-.56l3.2-.25.07.79a2.19,2.19,0,0,0,.6,1.37,1.82,1.82,0,0,0,1.36.53Z" transform="translate(-111.59 -700.52)"/>
  <path id="Path_7" data-name="Path 7" d="M217.85,897l6-14.14h3.36V897h2.16v3.38h-2.16v4.81H223.8v-4.81h-6Zm6,0v-7L221,897Z" transform="translate(-111.59 -700.52)" fill="#030303"/>
  <path id="Path_8" data-name="Path 8" d="M275.21,757.1v4.79a3.29,3.29,0,0,1,1.41-1.11,3,3,0,0,1,1.13-.19,3.65,3.65,0,0,1,3.26,1.55,6.61,6.61,0,0,1,.91,3.77v4.81a5.55,5.55,0,0,1-1.56,4.06,5.07,5.07,0,0,1-3.78,1.53,4.76,4.76,0,0,1-3.66-1.6,5.32,5.32,0,0,1-1.41-3.74v-.54l3.22-.25.07.77a2,2,0,0,0,1.09,1.78,1.39,1.39,0,0,0,.6.14c1.38,0,2.07-.72,2.07-2.15v-5.47a2.08,2.08,0,0,0-.72-1.62,1.37,1.37,0,0,0-.95-.3,1.45,1.45,0,0,0-1.32.69,2.52,2.52,0,0,0-.36,1.29v.6h-3.36V753.72h9.84v3.38Z" transform="translate(-111.59 -700.52)"/>
  <path id="Path_9" data-name="Path 9" d="M278.63,882.88a5.16,5.16,0,0,1,4.14,1.55,5.63,5.63,0,0,1,1.15,3.77v3.24a5.25,5.25,0,0,1-1.79,4l2.49,9.74H281l-2-8.41h-2.3v8.41h-3.37v-22.3Zm2,5.38a1.71,1.71,0,0,0-1.93-1.94h-2v7.14h2a1.93,1.93,0,0,0,1.93-2Z" transform="translate(-111.59 -700.52)"/>
</svg>
