<svg id="Layer_1" data-name="Layer 1" xmlns="http://www.w3.org/2000/svg" viewBox="0 0 433.28 213.54"><defs><style>.cls-1{fill:#e6e6e6;}.cls-2{fill:#777;}.cls-3{fill:#adadad;}.cls-4{fill:#c5c5c5;}.cls-5{fill:#171717;}.cls-6{fill:#383838;}.cls-7{fill:#9a9a9a;}.cls-8{fill:#702a23;}.cls-9{fill:#b84034;}.cls-10{fill:#3e2719;}.cls-11{fill:#d4d4d4;}.cls-12{fill:#8a3329;}.cls-13{fill:#d03b2c;}</style></defs><title>moto</title><path class="cls-1" d="M867.54,315.71a67.59,67.59,0,0,0,60.93-38.3l31.79,10a21.48,21.48,0,0,0,6.51,1H974a6.88,6.88,0,0,0,5.24-2.42H1049a12.77,12.77,0,0,0,12.25-9l15.26-48.95a12.79,12.79,0,0,0-3-12.57l6.64-21.36a11.37,11.37,0,0,0,.4-5.1c4.17-6.54,13.18-19.82,17.48-19.63a8.33,8.33,0,0,1,6.29,3.86,4.52,4.52,0,0,0,5.59,1.47l7.67-3.59,5,10.57a3.06,3.06,0,0,0-1.49,4l1.14,2.69a3.19,3.19,0,0,0,.49.76,67.14,67.14,0,1,0,13.06-5.6,2.93,2.93,0,0,0-.21-.86L1134.4,180a3.06,3.06,0,0,0-4-1.61l-.19.08-17-35.94,4.25-2.86c5.49,7.1,17.4,9.5,24,10.3a4.46,4.46,0,0,0,.73,0h.06a3.54,3.54,0,0,0,.47-.07c.12,0,.24,0,.36-.08a5.64,5.64,0,0,0,.76-.3l.37-.22a2.62,2.62,0,0,0,.32-.23,3.88,3.88,0,0,0,.31-.26c.1-.1.2-.21.29-.32a3.25,3.25,0,0,0,.23-.29,3.38,3.38,0,0,0,.24-.41c.06-.1.12-.2.17-.3a5.25,5.25,0,0,0,.17-.52c0-.1.06-.18.08-.28a4.12,4.12,0,0,0,.1-.86h0v-29.3h0a4.81,4.81,0,0,0-.09-.85c0-.09-.06-.18-.09-.27a2.78,2.78,0,0,0-.17-.51,1.82,1.82,0,0,0-.16-.31,3.18,3.18,0,0,0-.23-.4,3.15,3.15,0,0,0-.24-.3,3.74,3.74,0,0,0-.27-.31,3.88,3.88,0,0,0-.31-.26,3.65,3.65,0,0,0-.31-.24c-.12-.07-.24-.15-.37-.21l-.33-.16a3.12,3.12,0,0,0-.43-.15,2,2,0,0,0-.35-.08,3.69,3.69,0,0,0-.46-.08h-.12a4,4,0,0,0-.6,0c-16.49,1.38-23.28,10.17-25.78,15.18h-9.69l-6.15-13a4.14,4.14,0,1,0-7.49,3.54l2.61,5.51-8.14,2.93a2.75,2.75,0,0,0-1.58,3.73l1.35,3a2.54,2.54,0,0,1-.1,2.29l-2.34,4.19c-1.53-3.87-2.9-6.66-3.76-7-3.11-1.38-34.88-5-45.24-2.42s-46.43,8.63-52,14c-5.09,4.93-11.93,11.62-13.51,17.1a6.66,6.66,0,0,0-3.26-.71c-4,.16-9.93.47-16,1-11,1-44.19-1.9-54.73-4.83s-39-.1-39.79.69a2.6,2.6,0,0,0-.79,1.59l-.06,0a3.63,3.63,0,1,0-3.13,6.54l39.54,18.91a4.9,4.9,0,0,0-.55.13,67.59,67.59,0,1,0-23.44,131Zm0-107A39.35,39.35,0,0,1,880.76,211a1,1,0,0,0,.45.35l2.75,1-.17.45-3.14-.23a1,1,0,0,0-.87.39,1.06,1.06,0,0,0-.48.54,1,1,0,0,0,.61,1.33l2.76,1-.17.45-3.14-.23a1,1,0,0,0-.87.39,1.06,1.06,0,0,0-.48.54,1,1,0,0,0,.61,1.33l2.75,1-.16.45-1.84-.14-1.09-.4a1,1,0,0,0-1.33.61,1,1,0,0,0,0,.74,1.06,1.06,0,0,0,.55.91,1.8,1.8,0,0,0-1.61,1.17l-1.3,3.53A23,23,0,1,0,890,253.1h16.63a39.45,39.45,0,1,1-39.13-44.42Zm22.77,35.91a22.89,22.89,0,0,0-5.49-11.7l2.26-6.1a1.8,1.8,0,0,0-1.07-2.31l-2-.75.06-.16,2.75,1a1,1,0,0,0,1.33-.61h0a1,1,0,0,0-.61-1.33l-1.09-.4,1.3.1a1,1,0,0,0,1-.75,1,1,0,0,0-.2-1.82l-2.75-1,0-.15,3.14.24a1,1,0,0,0,1.06-.75,1,1,0,0,0,.4-.49,1,1,0,0,0-.61-1.33l-2.75-1,0-.15,2.2.17a39.41,39.41,0,0,1,17.46,29.32Zm-10-22.4-.06.16-1.94-.72.61.05Zm78.9,46.57-13.54-7.24,18.15,5.29,4.28,6.07.24.31Zm34-82.41v10.16h-3l-.06-1.89a1.68,1.68,0,0,0-2.06-1.57l-7.64,1.79,3.21-8.49ZM978.89,209.6l9.67,3a1.68,1.68,0,0,0,2.17-1.65l-.06-1.84h2.59v3.06a3.93,3.93,0,0,0,3.93,3.93h9.66a3.92,3.92,0,0,0,3.92-3.93v-.56a2.58,2.58,0,0,1,2.83-2.56l2.65.27a4.44,4.44,0,0,1,3.94,3.8l2.25,16.62h-4.64a7.37,7.37,0,0,0-8.59,0H967.35l10.11-26.8v4.72A2,2,0,0,0,978.89,209.6Zm82.58,20.14h-10.92l4-11.33a1.47,1.47,0,0,1,2.17-.76,2.83,2.83,0,0,0,4.22-1.57l.35-1.18,4.27,1.72Zm5.62-18.08-4.31-1.74.56-1.83a2.83,2.83,0,0,0-2.71-3.64h-1.39a1.47,1.47,0,0,1-1.47-1.36l-.68-8.87a4,4,0,0,0-3.57-3.66L1028.45,188a4,4,0,0,0-4,2.22l-1.68,3.47a4.44,4.44,0,0,1-4.37,2.47l-4.29-.38a2.57,2.57,0,0,1-2.34-2.56v-6.86h57.28a4.34,4.34,0,0,1,4.15,5.63ZM969.78,179.1h-.44l.38-.12Zm6.2,7.25-20.93,55.44L916,186.35Zm95.54,40.17-15.26,49a7.62,7.62,0,0,1-7.31,5.37H980.87v-.45a17.65,17.65,0,0,0,1.92.11h57.26a17.91,17.91,0,0,0,17.17-12.65L1071.48,222A7.59,7.59,0,0,1,1071.52,226.52Zm84.13,61.06a39.46,39.46,0,0,1-18.22-74.45l7,14.85a23,23,0,1,0,11.19-2.9,22.12,22.12,0,0,0-3.28.24l-7.21-15.22a39.45,39.45,0,1,1,10.49,77.48ZM898.27,186.35h8.82l41.06,58.24H935a67.57,67.57,0,0,0-34.13-55.24A5.37,5.37,0,0,0,898.27,186.35Z" transform="translate(-789.95 -102.17)"/><path class="cls-2" d="M1092.24,117.54H1114a3.47,3.47,0,0,1,1.94,6.35l-15.43,10.4Z" transform="translate(-789.95 -102.17)"/><path class="cls-3" d="M1104.5,121c0-.65,4.27-16.73,27.06-18.63a4.17,4.17,0,0,1,4.53,4.15v29.3a4.16,4.16,0,0,1-4.66,4.13C1122.64,138.88,1104.5,135,1104.5,121Z" transform="translate(-789.95 -102.17)"/><path class="cls-4" d="M1132.16,140a4.17,4.17,0,0,0,3.93-4.15V106.5a4.16,4.16,0,0,0-3.93-4.14Z" transform="translate(-789.95 -102.17)"/><path class="cls-3" d="M970.87,269.29v2.24a6.9,6.9,0,0,1-6.9,6.91h-7.2a21.48,21.48,0,0,1-6.51-1l-41.71-13.15L917.87,242l31.34,16.75Z" transform="translate(-789.95 -102.17)"/><path class="cls-5" d="M857.54,170.54a67.59,67.59,0,1,0,67.59,67.59A67.59,67.59,0,0,0,857.54,170.54Zm0,111.09a43.51,43.51,0,1,1,43.5-43.5A43.51,43.51,0,0,1,857.54,281.63Z" transform="translate(-789.95 -102.17)"/><path class="cls-6" d="M857.54,194.36a43.77,43.77,0,1,0,43.76,43.77A43.77,43.77,0,0,0,857.54,194.36Zm0,83.22A39.45,39.45,0,1,1,897,238.13,39.45,39.45,0,0,1,857.54,277.58Z" transform="translate(-789.95 -102.17)"/><circle class="cls-7" cx="857.54" cy="238.13" r="23.05" transform="translate(-707.16 573.94) rotate(-45)"/><path class="cls-8" d="M1068.33,182.58s14-23.43,19.68-23.18a8.33,8.33,0,0,1,6.29,3.86,4.52,4.52,0,0,0,5.59,1.47l7.89-3.69-20.72-48.16-10.14,3.65a2.75,2.75,0,0,0-1.58,3.73l1.35,3a2.54,2.54,0,0,1-.1,2.29l-5.07,9.06-17.09,35.74Z" transform="translate(-789.95 -102.17)"/><polygon class="cls-6" points="162.88 117.57 263.36 117.57 248.86 162.11 176.35 162.11 155.37 134.14 162.88 117.57"/><path class="cls-8" d="M1030.05,270.5H972.79a18,18,0,0,1-14.69-7.62l-61-86.53H886a3.53,3.53,0,0,1-1.56-.36L842,155.68a3.63,3.63,0,1,1,3.13-6.54l41.73,20h172.21a11.59,11.59,0,0,1,11.07,15l-22.91,73.72A17.91,17.91,0,0,1,1030.05,270.5ZM906,176.35,964,258.7a10.75,10.75,0,0,0,8.77,4.55h57.26a10.71,10.71,0,0,0,10.25-7.55L1063.21,182a4.34,4.34,0,0,0-4.15-5.63Z" transform="translate(-789.95 -102.17)"/><path class="cls-8" d="M946,243.1a3.64,3.64,0,0,1-3.39-4.91l25.19-66.75a3.62,3.62,0,0,1,6.78,2.56l-25.19,66.75A3.62,3.62,0,0,1,946,243.1Z" transform="translate(-789.95 -102.17)"/><path class="cls-9" d="M1054.83,172.7a7.23,7.23,0,0,0,2.34-.48c3-1.2,12.25-5.86,18.86-9.24a10.27,10.27,0,0,0,5.21-11.94c-3-10.54-8.53-27.33-10.75-28.32-3.11-1.38-34.88-5-45.23-2.42s-46.44,8.63-52,14-13.12,12.77-13.81,18.47c-.38,3.16-.71,7.23-.93,10.22-.17,2.27.73,7.4,3,7.56C978.4,171.75,1043,173.08,1054.83,172.7Z" transform="translate(-789.95 -102.17)"/><path class="cls-10" d="M963.4,156.07a6.75,6.75,0,0,0-6.88-5.39c-4,.16-9.93.47-16,1-11,1-44.19-1.9-54.73-4.83s-39-.1-39.79.69c-1.59,1.59-1.55,4.57,7,8.2S877.48,170,886,170.54c6.81.41,53.21-.75,71.81-1.24a6.81,6.81,0,0,0,6.54-7.91C964.08,159.63,963.74,157.77,963.4,156.07Z" transform="translate(-789.95 -102.17)"/><path class="cls-2" d="M187.31,149.85h26.24a0,0,0,0,1,0,0v4.66a4.49,4.49,0,0,1-4.49,4.49H191.8a4.49,4.49,0,0,1-4.49-4.49v-4.66A0,0,0,0,1,187.31,149.85Z"/><path class="cls-11" d="M960.52,258.76,906.74,243.1H850.31a4.25,4.25,0,0,1-4.25-4.26h0a4.25,4.25,0,0,1,4.25-4.25H963.45l3.31,16.55a6.37,6.37,0,0,1-6.24,7.62Z" transform="translate(-789.95 -102.17)"/><path class="cls-11" d="M856.24,234.59l6.42-7.58a3.8,3.8,0,0,1,5.57-.25l7.95,7.83Z" transform="translate(-789.95 -102.17)"/><path class="cls-5" d="M1145.65,170.54a67.59,67.59,0,1,0,67.58,67.59A67.59,67.59,0,0,0,1145.65,170.54Zm0,111.09a43.51,43.51,0,1,1,43.5-43.5A43.51,43.51,0,0,1,1145.65,281.63Z" transform="translate(-789.95 -102.17)"/><path class="cls-6" d="M1145.65,194.36a43.77,43.77,0,1,0,43.76,43.77A43.77,43.77,0,0,0,1145.65,194.36Zm0,83.22a39.45,39.45,0,1,1,39.45-39.45A39.45,39.45,0,0,1,1145.65,277.58Z" transform="translate(-789.95 -102.17)"/><circle class="cls-7" cx="1145.65" cy="238.13" r="23.05" transform="translate(-62.87 1228.66) rotate(-80.78)"/><path class="cls-3" d="M1039,276H968.28a2.59,2.59,0,0,1,0-5.18H1039a7.62,7.62,0,0,0,7.31-5.37l15.26-49a7.61,7.61,0,0,0-4.4-9.27l-7.45-3a2.59,2.59,0,1,1,1.93-4.8l7.45,3a12.81,12.81,0,0,1,7.41,15.61L1051.2,267A12.77,12.77,0,0,1,1039,276Z" transform="translate(-789.95 -102.17)"/><path class="cls-3" d="M1150.42,246.16a4.15,4.15,0,0,1-3.75-2.38l-64.22-135.69a4.14,4.14,0,1,1,7.49-3.54l64.22,135.69a4.15,4.15,0,0,1-3.74,5.92Z" transform="translate(-789.95 -102.17)"/><path class="cls-9" d="M1115.41,177.72l31.26,66.06a4.14,4.14,0,1,0,7.49-3.54L1123,174.43Z" transform="translate(-789.95 -102.17)"/><path class="cls-2" d="M1037.77,227.64l6.77-19.23a1.47,1.47,0,0,1,2.17-.76h0a2.83,2.83,0,0,0,4.22-1.57l2.41-8a2.83,2.83,0,0,0-2.71-3.64h-1.39a1.47,1.47,0,0,1-1.47-1.36l-.68-8.87a4,4,0,0,0-3.57-3.66L1018.45,178a4,4,0,0,0-4,2.22l-1.68,3.47a4.44,4.44,0,0,1-4.37,2.47l-4.29-.38a2.57,2.57,0,0,1-2.34-2.56v-6.86H983.26v25.82a3.93,3.93,0,0,0,3.93,3.93h9.66a3.92,3.92,0,0,0,3.92-3.93v-.56a2.58,2.58,0,0,1,2.83-2.56l2.65.27a4.44,4.44,0,0,1,3.94,3.8l3.15,23.27Z" transform="translate(-789.95 -102.17)"/><rect class="cls-7" x="190.33" y="84.33" width="2.98" height="12.61"/><path class="cls-3" d="M978.16,183.05,969,185.19a2,2,0,0,0-1.57,2v10.49a2,2,0,0,0,1.43,1.94l9.67,3a1.68,1.68,0,0,0,2.17-1.65l-.51-16.33A1.68,1.68,0,0,0,978.16,183.05Z" transform="translate(-789.95 -102.17)"/><path class="cls-7" d="M1023.27,218.36a19.69,19.69,0,0,0-12.85,4.75,7.42,7.42,0,0,0-13.74-.26H972a7.13,7.13,0,0,0-5.65,2.77L960,233.7a7.36,7.36,0,0,0-1.24,6.55l1.94,6.62a7.15,7.15,0,0,0,6.87,5.15h35.81a4.94,4.94,0,0,0,4-2.07,19.77,19.77,0,1,0,15.84-31.59Z" transform="translate(-789.95 -102.17)"/><path class="cls-3" d="M1009.72,226.86a6.22,6.22,0,1,1-6.22-6.21A6.22,6.22,0,0,1,1009.72,226.86Z" transform="translate(-789.95 -102.17)"/><path class="cls-12" d="M885.48,191.34l-9.81-.74a1,1,0,0,1-1-1.11h0a1,1,0,0,1,1.11-1l9.81.73a1,1,0,0,1,1,1.11h0A1,1,0,0,1,885.48,191.34Z" transform="translate(-789.95 -102.17)"/><path class="cls-12" d="M884.19,194.84l-9.82-.74a1,1,0,0,1-1-1.11h0a1,1,0,0,1,1.11-1l9.81.73a1,1,0,0,1,1,1.11h0A1,1,0,0,1,884.19,194.84Z" transform="translate(-789.95 -102.17)"/><path class="cls-12" d="M882.89,198.34l-9.81-.74a1,1,0,0,1-1-1.11h0a1,1,0,0,1,1.12-1l9.81.73a1,1,0,0,1,1,1.11h0A1,1,0,0,1,882.89,198.34Z" transform="translate(-789.95 -102.17)"/><path class="cls-12" d="M881.6,201.84l-9.81-.74a1,1,0,0,1-1-1.11h0a1,1,0,0,1,1.11-1l9.81.73a1,1,0,0,1,1,1.11h0A1,1,0,0,1,881.6,201.84Z" transform="translate(-789.95 -102.17)"/><path class="cls-12" d="M880.31,205.34l-9.82-.74a1,1,0,0,1-1-1.11h0a1,1,0,0,1,1.11-1l9.81.73a1,1,0,0,1,1,1.11h0A1,1,0,0,1,880.31,205.34Z" transform="translate(-789.95 -102.17)"/><path class="cls-12" d="M879,208.84l-9.81-.74a1,1,0,0,1-1-1.11h0a1,1,0,0,1,1.11-1l9.81.73a1,1,0,0,1,1,1.11h0A1,1,0,0,1,879,208.84Z" transform="translate(-789.95 -102.17)"/><path class="cls-12" d="M877.72,212.34l-9.81-.74a1,1,0,0,1-1-1.11h0a1,1,0,0,1,1.11-1l9.82.73a1,1,0,0,1,1,1.11h0A1,1,0,0,1,877.72,212.34Z" transform="translate(-789.95 -102.17)"/><rect class="cls-7" x="875.22" y="184.6" width="3.97" height="29.35" transform="translate(-666.51 -393.86) rotate(20.28)"/><path class="cls-9" d="M876,214.48l-7.79-2.88a1.8,1.8,0,0,0-2.32,1.06l-3.12,8.45a4.09,4.09,0,0,0,.84,4.19,4,4,0,0,0-.88,1.4,4.06,4.06,0,1,0,7.86,1.18,4.1,4.1,0,0,0,3.36-2.65l3.12-8.44A1.8,1.8,0,0,0,876,214.48Z" transform="translate(-789.95 -102.17)"/><polygon class="cls-9" points="76.6 125.94 76.59 125.94 76.59 125.93 76.6 125.93 76.6 125.94"/><path class="cls-9" d="M879.23,175.14h9.82a2.26,2.26,0,0,1,2.26,2.26v3.1a5.35,5.35,0,0,1-5.35,5.35h-3.63a5.35,5.35,0,0,1-5.35-5.35v-3.1a2.26,2.26,0,0,1,2.26-2.26Z" transform="translate(860.97 554.06) rotate(-159.72)"/><path class="cls-13" d="M885.61,190.71l-9.23-3.41a1,1,0,0,1-.61-1.33h0a1,1,0,0,1,1.33-.61l9.23,3.41a1,1,0,0,1,.61,1.33h0A1,1,0,0,1,885.61,190.71Z" transform="translate(-789.95 -102.17)"/><path class="cls-13" d="M884.32,194.21l-9.23-3.41a1,1,0,0,1-.62-1.33h0a1,1,0,0,1,1.33-.61l9.23,3.41a1,1,0,0,1,.62,1.33h0A1,1,0,0,1,884.32,194.21Z" transform="translate(-789.95 -102.17)"/><path class="cls-13" d="M883,197.71l-9.23-3.41a1,1,0,0,1-.61-1.33h0a1,1,0,0,1,1.33-.61l9.23,3.41a1,1,0,0,1,.61,1.33h0A1,1,0,0,1,883,197.71Z" transform="translate(-789.95 -102.17)"/><path class="cls-13" d="M881.73,201.21l-9.23-3.41a1,1,0,0,1-.61-1.33h0a1,1,0,0,1,1.33-.61l9.23,3.41a1,1,0,0,1,.61,1.33h0A1,1,0,0,1,881.73,201.21Z" transform="translate(-789.95 -102.17)"/><path class="cls-13" d="M880.44,204.71l-9.23-3.41a1,1,0,0,1-.62-1.33h0a1,1,0,0,1,1.33-.61l9.23,3.41a1,1,0,0,1,.62,1.33h0A1,1,0,0,1,880.44,204.71Z" transform="translate(-789.95 -102.17)"/><path class="cls-13" d="M879.14,208.21l-9.23-3.41a1,1,0,0,1-.61-1.33h0a1,1,0,0,1,1.33-.61l9.23,3.41a1,1,0,0,1,.61,1.33h0A1,1,0,0,1,879.14,208.21Z" transform="translate(-789.95 -102.17)"/><path class="cls-13" d="M877.85,211.71l-9.23-3.41A1,1,0,0,1,868,207h0a1,1,0,0,1,1.33-.61l9.23,3.41a1,1,0,0,1,.61,1.33h0A1,1,0,0,1,877.85,211.71Z" transform="translate(-789.95 -102.17)"/><path class="cls-13" d="M876.79,214.58l-9.23-3.41a1,1,0,0,1-.61-1.33h0a1,1,0,0,1,1.33-.61l9.23,3.41a1,1,0,0,1,.61,1.33h0A1,1,0,0,1,876.79,214.58Z" transform="translate(-789.95 -102.17)"/><rect class="cls-8" x="1111.06" y="169.63" width="14.5" height="9.06" rx="3.07" transform="translate(-768.41 351.38) rotate(-23.14)"/><path class="cls-7" d="M1066.51,155.76a4.15,4.15,0,0,1-3.37-6.55l23.31-32.63a4.14,4.14,0,1,1,6.74,4.82L1069.89,154A4.14,4.14,0,0,1,1066.51,155.76Z" transform="translate(-789.95 -102.17)"/><rect class="cls-10" x="1062.16" y="136.87" width="11.87" height="27.97" rx="4.01" transform="translate(-498.61 -699.81) rotate(35.9)"/></svg>