<svg id="Layer_1" data-name="Layer 1" xmlns="http://www.w3.org/2000/svg" viewBox="0 0 258.75 75.08"><defs><style>.cls-1{fill:#f26f75;}.cls-2{fill:#ede5a5;}.cls-3{fill:#e1d599;}.cls-4{fill:#d3c888;}.cls-5{fill:#181a1c;}.cls-6{fill:#424449;}.cls-7{fill:#f4f4f4;}.cls-8{fill:#32353a;}.cls-9{fill:#57585e;}.cls-10{fill:#629abf;}.cls-11{fill:#f4ebc0;}.cls-12{fill:#c65d67;}.cls-13{fill:#fcd9dc;}.cls-14{fill:#c6ba7d;}.cls-15{fill:#a09356;}.cls-16{fill:#ededeb;}.cls-17{fill:#f7efc4;}</style></defs><title>sedan</title><path class="cls-1" d="M1070.9,356.4c2.68-1.95,11.93-3.26,20.91-3.73a12.87,12.87,0,0,1,8.71,2.61,6.36,6.36,0,0,0,2.36,1.12l25.9,7.86s-42.16-.69-42.75-.79S1070.9,356.4,1070.9,356.4Z" transform="translate(-1031.93 -339.79)"/><path class="cls-1" d="M1138.69,355.65a7.09,7.09,0,0,0-8.26-5.68,2.2,2.2,0,0,0-1.77,2.57l3.1,16.81,9.15-1.69Z" transform="translate(-1031.93 -339.79)"/><path class="cls-2" d="M1090.3,406.42h193.33a7.05,7.05,0,0,0,7-7.05V387.55a11,11,0,0,0-5.9-9.74c-10.66-5.58-35.38-16.25-71-18,0,0-34.2-19.66-45.6-20l-.11.06a5.11,5.11,0,0,0,.08,8.73c7.41,4.46,20.53,12.48,22.3,14.53H1133c-7.33,0-44.81-3.14-61.58-10.35-7.47,0-23.72,6-31.19,11.79h-5.11c-1.7,0-2.88,4.72,0,7.73s-2.42,3.54-3,6.29c-.38,1.79.06,11.5.42,18.07a6.92,6.92,0,0,0,6.51,6.53l42,2.48Z" transform="translate(-1031.93 -339.79)"/><path class="cls-3" d="M1224.05,400.45c-9.58.76-146.79-4.55-192.07-20.9-.18,3.11.21,11.31.52,17.09a6.92,6.92,0,0,0,6.51,6.53l42,2.48,9.24.77h137Z" transform="translate(-1031.93 -339.79)"/><path class="cls-4" d="M1268.59,396.46v10h-2.75v-10a23,23,0,1,0-46,0v10h-2.75v-10a25.75,25.75,0,1,1,51.49,0Zm-166.74,10v-10a25.75,25.75,0,1,0-51.49,0v7.38l2.75.16v-7.54a23,23,0,1,1,46,0v10Z" transform="translate(-1031.93 -339.79)"/><path class="cls-5" d="M1242.84,373.46a23,23,0,0,0-23,23v10h46v-10A23,23,0,0,0,1242.84,373.46Z" transform="translate(-1031.93 -339.79)"/><path class="cls-5" d="M1076.11,373.46a23,23,0,0,0-23,23V404l28,1.65,9.24.77h8.8v-10A23,23,0,0,0,1076.11,373.46Z" transform="translate(-1031.93 -339.79)"/><circle class="cls-6" cx="1076.11" cy="395.41" r="19.46" transform="translate(-1081.38 -162.31) rotate(-9.22)"/><circle class="cls-7" cx="44.17" cy="55.62" r="15.66"/><path class="cls-8" d="M1072,395.75a.77.77,0,0,0,.84-.63.76.76,0,0,0-.58-.88l-9.9-2.45a13.63,13.63,0,0,0-.45,2.88Z" transform="translate(-1031.93 -339.79)"/><path class="cls-8" d="M1073,398.38a.78.78,0,0,0,.24-1,.77.77,0,0,0-1-.3l-9,4.4a13.83,13.83,0,0,0,1.49,2.48Z" transform="translate(-1031.93 -339.79)"/><path class="cls-8" d="M1072.92,393.1a.77.77,0,0,0,1.18-1l-6.11-8.37a14,14,0,0,0-2.22,1.92Z" transform="translate(-1031.93 -339.79)"/><path class="cls-8" d="M1072.71,409.22l2.74-9.47a.78.78,0,0,0-.48-.94.77.77,0,0,0-1,.42l-4,9A14.1,14.1,0,0,0,1072.71,409.22Z" transform="translate(-1031.93 -339.79)"/><path class="cls-8" d="M1080,394.24a.76.76,0,0,0-.57.88.77.77,0,0,0,.84.63l10.08-1.08a14.3,14.3,0,0,0-.44-2.88Z" transform="translate(-1031.93 -339.79)"/><path class="cls-8" d="M1078.21,399.23a.77.77,0,0,0-1-.42.78.78,0,0,0-.48.94l2.74,9.47a14.1,14.1,0,0,0,2.71-1Z" transform="translate(-1031.93 -339.79)"/><path class="cls-8" d="M1076.88,391.66l.7-10.39a14.32,14.32,0,0,0-1.47-.08,14.52,14.52,0,0,0-1.48.08l.71,10.39a.76.76,0,0,0,.77.71A.77.77,0,0,0,1076.88,391.66Z" transform="translate(-1031.93 -339.79)"/><path class="cls-8" d="M1089,401.45l-9-4.4a.77.77,0,0,0-1,.3.78.78,0,0,0,.24,1l8.27,5.55A15.1,15.1,0,0,0,1089,401.45Z" transform="translate(-1031.93 -339.79)"/><path class="cls-8" d="M1078.24,393.15a.77.77,0,0,0,1,0l7.16-7.44a14,14,0,0,0-2.23-1.92l-6.11,8.37A.77.77,0,0,0,1078.24,393.15Z" transform="translate(-1031.93 -339.79)"/><path class="cls-9" d="M1076.11,396.74a1.16,1.16,0,1,1,1.15-1.15A1.16,1.16,0,0,1,1076.11,396.74Z" transform="translate(-1031.93 -339.79)"/><circle class="cls-9" cx="44.17" cy="57.88" r="0.34"/><path class="cls-9" d="M1073.81,396.33a.34.34,0,0,1,.21-.43.36.36,0,0,1,.44.22.34.34,0,0,1-.22.43A.34.34,0,0,1,1073.81,396.33Z" transform="translate(-1031.93 -339.79)"/><path class="cls-9" d="M1074.68,393.63a.34.34,0,0,1,.48.08.34.34,0,0,1-.07.47.34.34,0,1,1-.41-.55Z" transform="translate(-1031.93 -339.79)"/><path class="cls-9" d="M1077.53,393.63a.35.35,0,0,1,.07.48.34.34,0,0,1-.47.07.33.33,0,0,1-.08-.47A.34.34,0,0,1,1077.53,393.63Z" transform="translate(-1031.93 -339.79)"/><path class="cls-9" d="M1078.41,396.33a.34.34,0,0,1-.43.22.34.34,0,0,1-.22-.43.34.34,0,0,1,.43-.22A.35.35,0,0,1,1078.41,396.33Z" transform="translate(-1031.93 -339.79)"/><circle class="cls-6" cx="1242.84" cy="395.41" r="19.46" transform="translate(-1079.22 -135.6) rotate(-9.22)"/><circle class="cls-7" cx="1242.84" cy="395.41" r="15.66" transform="translate(-630.02 1052.54) rotate(-67.5)"/><path class="cls-8" d="M1238.73,395.75a.77.77,0,0,0,.84-.63.76.76,0,0,0-.57-.88l-9.91-2.45a14.3,14.3,0,0,0-.44,2.88Z" transform="translate(-1031.93 -339.79)"/><path class="cls-8" d="M1239.73,398.38a.78.78,0,0,0,.24-1,.77.77,0,0,0-1-.3l-9,4.4a15.1,15.1,0,0,0,1.49,2.48Z" transform="translate(-1031.93 -339.79)"/><path class="cls-8" d="M1239.66,393.1a.77.77,0,0,0,1.18-1l-6.11-8.37a14,14,0,0,0-2.23,1.92Z" transform="translate(-1031.93 -339.79)"/><path class="cls-8" d="M1239.45,409.22l2.74-9.47a.78.78,0,0,0-.48-.94.77.77,0,0,0-1,.42l-4,9A14.1,14.1,0,0,0,1239.45,409.22Z" transform="translate(-1031.93 -339.79)"/><path class="cls-8" d="M1246.69,394.24a.76.76,0,0,0-.58.88.77.77,0,0,0,.84.63l10.09-1.08a13.63,13.63,0,0,0-.45-2.88Z" transform="translate(-1031.93 -339.79)"/><path class="cls-8" d="M1245,399.23a.77.77,0,0,0-1-.42.78.78,0,0,0-.48.94l2.74,9.47a14.1,14.1,0,0,0,2.71-1Z" transform="translate(-1031.93 -339.79)"/><path class="cls-8" d="M1243.61,391.66l.71-10.39a14.52,14.52,0,0,0-1.48-.08,14.32,14.32,0,0,0-1.47.08l.7,10.39a.77.77,0,0,0,.77.71A.76.76,0,0,0,1243.61,391.66Z" transform="translate(-1031.93 -339.79)"/><path class="cls-8" d="M1255.71,401.45l-9-4.4a.77.77,0,0,0-1,.3.78.78,0,0,0,.24,1l8.26,5.55A13.83,13.83,0,0,0,1255.71,401.45Z" transform="translate(-1031.93 -339.79)"/><path class="cls-8" d="M1245,393.15a.77.77,0,0,0,1,0l7.15-7.44a14,14,0,0,0-2.22-1.92l-6.11,8.37A.77.77,0,0,0,1245,393.15Z" transform="translate(-1031.93 -339.79)"/><path class="cls-9" d="M1242.84,396.74a1.16,1.16,0,1,1,1.16-1.15A1.16,1.16,0,0,1,1242.84,396.74Z" transform="translate(-1031.93 -339.79)"/><path class="cls-9" d="M1242.84,398a.35.35,0,1,1,.35-.35A.35.35,0,0,1,1242.84,398Z" transform="translate(-1031.93 -339.79)"/><path class="cls-9" d="M1240.54,396.33a.34.34,0,0,1,.22-.43.34.34,0,0,1,.43.22.34.34,0,0,1-.22.43A.34.34,0,0,1,1240.54,396.33Z" transform="translate(-1031.93 -339.79)"/><circle class="cls-9" cx="209.69" cy="54.12" r="0.34"/><circle class="cls-9" cx="212.13" cy="54.12" r="0.34"/><path class="cls-9" d="M1245.14,396.33a.34.34,0,0,1-.43.22.34.34,0,0,1-.22-.43.35.35,0,0,1,.43-.22A.34.34,0,0,1,1245.14,396.33Z" transform="translate(-1031.93 -339.79)"/><path class="cls-10" d="M1193.25,361.41c1.67.91,12.77,1,20.43-1.65-2.1-1.2-28.67-16.3-41.83-19.42-1.41,1.65-2.95,3.81-1.8,5.54C1171.63,348.24,1188.73,358.46,1193.25,361.41Z" transform="translate(-1031.93 -339.79)"/><path class="cls-6" d="M1187.94,363.14l2.09,2.27a1.07,1.07,0,0,1-.79,1.79h-3.1a1.05,1.05,0,0,1-.81-.37l-2.76-3.23Z" transform="translate(-1031.93 -339.79)"/><path class="cls-11" d="M1176.44,360.72v1.74a2.36,2.36,0,0,0,2.36,2.35h7.88a2.64,2.64,0,0,0,2.64-2.63h0a3.13,3.13,0,0,0-1.29-2.53l-3.13-2.28a3.12,3.12,0,0,0-3-.39l-4,1.55A2.35,2.35,0,0,0,1176.44,360.72Z" transform="translate(-1031.93 -339.79)"/><path class="cls-4" d="M1188,359.65l-3.13-2.28a3.12,3.12,0,0,0-3-.39l-1.48.58,2.87,2.09a3.13,3.13,0,0,1,1.29,2.53,2.63,2.63,0,0,1-2.63,2.63h4.71a2.64,2.64,0,0,0,2.64-2.63A3.13,3.13,0,0,0,1188,359.65Z" transform="translate(-1031.93 -339.79)"/><path class="cls-12" d="M1044.44,378.7a1.29,1.29,0,0,0,1-.47l5.91-7.12a1.3,1.3,0,0,0-1-2.13h-16.91a6.35,6.35,0,0,0,1.65,3.3c2.89,3-2.42,3.54-3,6.29,0,0,0,.08,0,.13Z" transform="translate(-1031.93 -339.79)"/><path class="cls-1" d="M1050.46,370.23a.1.1,0,0,0-.11-.07h-16.58a6,6,0,0,0,1.32,2.12c2.48,2.59-1.07,3.34-2.5,5.24h11.85a.13.13,0,0,0,.09,0l5.91-7.13A.09.09,0,0,0,1050.46,370.23Z" transform="translate(-1031.93 -339.79)"/><path class="cls-13" d="M1044.07,370.71h-7.14a.85.85,0,1,0,0,1.7h7.14a.85.85,0,0,0,0-1.7Z" transform="translate(-1031.93 -339.79)"/><path class="cls-14" d="M1195.21,372.41c0-6.22-3.41-8.61-5.91-10.36l-.17-.12a10,10,0,0,1,1.36,1.18h-1c2.36,1.68,5,3.94,5,9.3v28.43h-55.12a13.37,13.37,0,0,1-12.89-9.88l-4-14.91a6,6,0,0,1,.73-4.72l2.82-4.39a6.69,6.69,0,0,0,1-3.61v-.49l-.79,0v.54a5.87,5.87,0,0,1-.93,3.18l-2.81,4.4a6.74,6.74,0,0,0-.83,5.34l4,14.91a14.16,14.16,0,0,0,13.65,10.47h80.54v-.79h-24.64Z" transform="translate(-1031.93 -339.79)"/><path class="cls-4" d="M1290.68,399.37v-6.86c-2.74,0-6.67,0-8.89,0a3.05,3.05,0,0,0-2.57,1.42l-2.83,4.49a3.07,3.07,0,0,0,2.59,4.7h10.59A7,7,0,0,0,1290.68,399.37Z" transform="translate(-1031.93 -339.79)"/><path class="cls-15" d="M1279.22,394l-2.83,4.49a3.07,3.07,0,0,0,2.59,4.7h3.12a11.53,11.53,0,0,0,1.2-5.14,11.65,11.65,0,0,0-1.37-5.48h-.14A3.05,3.05,0,0,0,1279.22,394Z" transform="translate(-1031.93 -339.79)"/><path class="cls-16" d="M1286.56,380.76q-4.53-3.66-13.64-5.53a1.11,1.11,0,0,0-1.27,1.49l3,7.77a2.48,2.48,0,0,0,1.7,1.51l7.68,1.93a2.94,2.94,0,0,0,3.65-2.86v-2A2.94,2.94,0,0,0,1286.56,380.76Z" transform="translate(-1031.93 -339.79)"/><path class="cls-1" d="M1272.89,380l1.72,4.52a2.48,2.48,0,0,0,1.7,1.51l5.4,1.36C1278.36,382.22,1275.69,380.51,1272.89,380Z" transform="translate(-1031.93 -339.79)"/><path class="cls-17" d="M1071.39,352.76c-4.64,0-12.68,2.33-19.89,5.48,2.38,2.93,13.71,5.51,49.58,1.73C1090.06,358.29,1078.74,355.92,1071.39,352.76Z" transform="translate(-1031.93 -339.79)"/><path class="cls-3" d="M1134.37,368.68c-3.48,0-6.3.91-6.3,2s2.82,2,6.3,2,6.3-.91,6.3-2S1137.85,368.68,1134.37,368.68Z" transform="translate(-1031.93 -339.79)"/><path class="cls-6" d="M1138.57,369.6h-8.39a1.11,1.11,0,0,0,0,2.22h8.39a1.11,1.11,0,0,0,0-2.22Z" transform="translate(-1031.93 -339.79)"/><path class="cls-17" d="M1173.31,364.81h-41.19a1.2,1.2,0,1,0,0,2.39h41.19a1.2,1.2,0,1,0,0-2.39Z" transform="translate(-1031.93 -339.79)"/></svg>