<svg id="Layer_1" data-name="Layer 1" xmlns="http://www.w3.org/2000/svg" viewBox="0 0 419.22 414.61"><defs><style>.cls-1{fill:#414042;fill-rule:evenodd;}</style></defs><title>shape</title><path class="cls-1" d="M496.87,494.33l.16-.46,1.47,3,1.6,3c.43.82.79,1.86,1.21,2.72,1.74,3.82,3.86,7.5,5.86,11,.89,1.65,2,3.24,3,4.81s2,3.11,3.06,4.67,2.12,3,3.17,4.47,2.08,2.93,3.22,4.3,2.2,2.19,3.3,3.31c.53.54,1,1.3,1.56,1.86,1.13,1.25,2.39,2.45,3.61,3.62s2.43,2.33,3.63,3.44a24.11,24.11,0,0,0,2.12,1.52,4.21,4.21,0,0,1,1.68,3,17.39,17.39,0,0,0,1.48,4.1c.52,1.08.57,1.18.14,1.48a.49.49,0,0,0-.2.47c.33,1.54.11,2.38-.68,2.54-.35.07-.66.36-1.07.19a21.86,21.86,0,0,1-5.11-3.78c-1.75-1.59-3.53-2.78-5.32-4.4a35.36,35.36,0,0,1-3.47-4c-.17-.21-.33-.63-.48-.74a15.27,15.27,0,0,1-3.09-3.09c-1-1.26-1.9-2.66-2.89-3.8-.79-.92-1.57-1.9-2.36-2.93-.39-.52-.79-1-1.17-1.58s-.72-1.1-1.09-1.65c-1.45-2.26-2.93-4.56-4.35-6.79-.9-1.49-1.87-2.7-2.78-4.17-.71-1.14-1.42-2.32-2.12-3.51s-1.31-2.41-2-3.59l-3.48-6.2c-.75-1.52-1.45-3.18-2.21-4.71-.52-1.06-1.09-1.94-1.63-3l-1-2-.94-2-1.87-4.12c-1.86-4-3.34-8.14-4.93-12.29-.34-.89-.7-1.72-1.05-2.56s-.63-1.69-.92-2.62c-.57-1.91-1-4.06-1.55-6.13a8.62,8.62,0,0,0,.15-2.74,2.71,2.71,0,0,1,.79-2.35,1.24,1.24,0,0,0,.23-.51c-.08-2.4.51-2.31,1.06-2.22,1,.15,2-.7,3-1.39.76-.53,1,.9,1,2a13.1,13.1,0,0,0,.71,4c.48,1.65,1.09,3.32,1.66,5s1.12,3.33,1.7,5l.65,2.1.72,2.15c.49,1.44,1,2.86,1.48,4.22s1.16,3,1.78,4.41,1.31,2.86,2,4.32A19.5,19.5,0,0,1,496.87,494.33Z" transform="translate(-479.36 -280.48)"/><path class="cls-1" d="M875,574.68c.55,1.4,0,4,.15,5.87a15.79,15.79,0,0,1-1.56,7.31l.35-.22-1.24,1.55c.3.94-.45,1.81-1.33,2.92-2.12,2.64-3.31,3.08-3.9,1.53-.17-.45-.33-1.29-1.52-.06-.29.3-.85-.69-.79-1.56.14-1.9.64-4.13.89-6.13.18-1.56.18-2.89.32-4.5.21-2.16.58-4.45.83-6.63.09-.85.19-1.66.23-2.49s.08-1.68.14-2.53c.15-2,.43-4.11.52-6a47.78,47.78,0,0,0-.17-4.82c0-.72,0-1.47,0-2.23,0-1.74.09-3.43,0-5.16l-.15-5.17c-.06-1.42.1-3,0-4.37-.19-1.91-.52-3.63-.73-5.5-.15-1.23-.1-2.63-.24-3.89-.43-3.27-.81-6.5-1.37-9.56s-1.48-6-2.22-9c-.63-2.14-1.2-4.36-1.87-6.38-1-3.12-2.35-6.1-3.55-9.06a8.88,8.88,0,0,1-.5-2.93,12.11,12.11,0,0,1,.22-3.28,12.34,12.34,0,0,1,.32-1.7c.29-.59.13-2.42,1-1.66.21.18.7-.45.93-1,.68-1.61,1.54-.25,1.68.19.45,1.38,1.14,2.09,1.6,3.41A33.62,33.62,0,0,0,865,497a43.22,43.22,0,0,1,2.94,7.08c.57,1.52,1,3.05,1.45,4.61l1.35,4.73c.44,1.45.51,3.58,1.09,4.29s0,2.85.83,2.74c-.36,2.46.49,3.45.72,5.09.27,2,.66,3.74.9,5.74.2,1.71.32,3.62.37,5.37,0,.75.23,1.34.3,2.06s.15,1.76.21,2.67c.08,1.36.16,2.78.22,4.13a47.3,47.3,0,0,0,.23,6.45,31,31,0,0,1,.42,3.54c0,1.23,0,2.51,0,3.81-.06,2.64-.13,5.33-.19,7.83,0,1.9-.19,3.93-.37,6A9.81,9.81,0,0,1,875,574.68Z" transform="translate(-479.36 -280.48)"/><path class="cls-1" d="M673.82,655.86c-1.38.53-2.83.91-4.3,1.36s-3,.89-4.43,1.38c-2.08.75-3.76,1.51-5.84,2.15-1.7.52-3.69.89-5.58,1.31-2.26.41-4.52.84-6.88,1.21-2.17.39-4.46.5-6.61.76-1.45.18-2.71.52-4.09.77a37.77,37.77,0,0,1-4.34.65c-1.7.14-3.55.16-5.33.23l-1.88.08h-1.85l-3.74,0-4.43,0-7.63-.52c-2.73-.1-5.28-.33-8-.62-2.4-.27-5-.63-7.33-1-1.46-.23-2.74-.23-4.2-.43s-2.68-.39-4-.63l-4-.8c-.4-.07-.59.11-.56.11l-4.1-1.51-.35-.67c-1.17-.13-1.92.12-3-1.39l-.39-.08c-.85-.88-1.65-1.66-2.3-2.42s-1-1.34-1.45-2l.83.43c.17-.73.78-1.28.4-2.24s.14-1,1-.78l5.75,1.5c1,.25,1.9.51,2.86.74l2.9.61,4.93.92c2.05.46,4.25.84,6.33,1.18s3.92.56,5.88.83l8.67.85c2,.2,4.08.27,6,.34a39.89,39.89,0,0,0,5.63-.15c1-.12,2.53.14,3.66.08l3.43-.18c1.12-.06,2.25-.14,3.38-.28l6.73-.75c1.58-.13,3.22-.42,4.83-.62l4.84-.63c1.85-.23,3.74-.64,5.54-1s3.55-.72,5.21-1.23c2.46-.79,5.21-1.39,7.8-2a4.31,4.31,0,0,1,1.49-.08c2,.39,3.89.84,5.84,1.29a.6.6,0,0,1,.29.12c.57.76,1.17,1.53,1.74,2.24A9.33,9.33,0,0,1,673.82,655.86Z" transform="translate(-479.36 -280.48)"/><path class="cls-1" d="M527.16,452.74a9.41,9.41,0,0,0-.59,1.8c-.19,1.12-.28,2.24-.45,3.35a3.56,3.56,0,0,1-.29.83c-.84,1.78-3,3-3.68,1.84a15.77,15.77,0,0,1-.44-1.9c-.51-1.46-1-2.9-1.52-4.34-.25-.73-.51-1.48-.75-2.23s-.4-1.51-.59-2.3c-.31-1.29-.73-2.46-1.05-3.77a15.8,15.8,0,0,1-.37-2.12c0-.38-.07-.78-.08-1.21s0-.85.09-1.32c-1.22-1.33-.79-4.93-1.35-7.26a60,60,0,0,1-.68-7.52,30.75,30.75,0,0,0-.42-3.07c-.16-1-.29-1.92-.42-2.91-.24-2-.65-3.86-.75-6.07a39.74,39.74,0,0,1,.06-4.62c.07-1.59.15-3.18.23-4.74,0-.91,0-1.82.08-2.71s.08-1.75.09-2.59c0-2.9,0-5.77.05-8.68.14-2.71.29-5.45.55-8.29a13.27,13.27,0,0,1,.28-1.63c.15-.56.3-1.12.39-1.63.21-1.23.25-2.32.47-3.56s.41-2.24.63-3.38.46-2.29.77-3.42a4.67,4.67,0,0,1,.74-1.48,4.17,4.17,0,0,0,1.42-3,11.49,11.49,0,0,0,1.86-1.81c1.18-1.92,1.87-1.63,2-1.19.34,1.22,1.77.19,3.16-.82,1-.76,1.28-.61,1,.28-.35,1.17-.7,2.36-1.05,3.55s-.61,2.4-.84,3.54c-.49,2.49-.73,4.78-1.06,7.13-.15,1.14-.26,2.31-.42,3.49-.33,2.5-.67,5-1,7.43-.15,1.88-.25,3.71-.43,5.6-.13,1.34-.27,2.7-.41,4.06s-.19,2.75-.25,4.09c-.1,2.31-.15,4.52-.14,6.73.05,1.76.06,3.58.26,5.17.23,1.75.29,3.57.42,5.48s.23,3.87.3,5.83l.14,2.93c.09,1,.18,1.95.28,2.93q.28,2.91.63,5.7c.29,2.12.73,4.22,1.11,6.27s.78,4.06,1.29,6.12a34.71,34.71,0,0,1,.34,3.56C526.9,451.58,527.05,452.17,527.16,452.74Z" transform="translate(-479.36 -280.48)"/><path class="cls-1" d="M503.79,575.12a2.61,2.61,0,0,1,1.74.85,21.9,21.9,0,0,1,2,2,65.25,65.25,0,0,0,4.84,4.76,40.44,40.44,0,0,0,3.47,2.77c1.74,1.25,3.6,3.14,5.13,3.33.6.09,1.8,1.28,2.72,1.92,1.74,1.22,3.48,2.44,5.18,3.54s3.23,1.83,4.83,2.76a8.3,8.3,0,0,1,1,1.14c1.45-.78,4.32,1.76,6.86,2.75l5.69,2.33c1.13.49,2.33.91,3.54,1.45l4.28,1.87,2.12.93,2.18.85a104.37,104.37,0,0,0,10.35,3.75c1.31.37,2.56.64,3.79.89l1.85.35,1.89.31a20,20,0,0,1,2,.57l3.41,1c1.35.4,2.45,1.56,3.65,2.5s1.8,1.64,1.93,2.6l.63.14c.4,1,.83,1.87,1.26,2.76.31.67-1.16,1.29-2.29,1.15-2.5-.38-4.91-.68-7.5-1.16-.84-.18-1.75-.38-2.62-.65l-2.63-.82c-.59-.18-1.13-.24-1.72-.41l-4.07-1.17-4-1.38c-2.68-.93-5.43-1.82-8-2.78-2.28-.8-5-2.37-6.77-1.93-.62.17-2.12-.92-3.27-1.53s-2.42-1.46-3.6-2.09c-.39-.21-.6.08-1-.07-1.47-.57-2.86-1.21-4.28-1.87s-2.87-1.34-4.34-2.1c-1.94-1-3.8-2.06-5.69-3.2l-5.69-3.46c-3-2-6-3.79-9.09-6-1.89-1.46-3.88-3.43-5.83-5.1a8.31,8.31,0,0,1-2.55-3c-.63-1.32-1.22-2.66-1.75-4-.29-.69-.35-1.39-.66-2-1.05-2.19-.57-2.19.33-1.84S504.28,576.84,503.79,575.12Z" transform="translate(-479.36 -280.48)"/><path class="cls-1" d="M607.39,296.81a2.75,2.75,0,0,0,2.25-1.06,6.54,6.54,0,0,1,1.8-1.26,7.79,7.79,0,0,1,1.53-.43l2.39-.71.51.59c3-.83.84.85,1.44,1.16,1.59-.43,2.64-.44,3-.13s.14.87-.83,1.74l-4.31,3.93c-1.41,1.33-2.84,2.56-4.19,4L605.74,310c-1.73,1.77-3.35,3.69-5,5.5-2.89,3.22-5.24,6.73-7.91,10.07-1.46,1.88-2.9,3.91-4.35,5.83-.72,1-1.45,1.94-2.14,2.92l-2,3c-1,1.62-1.66,3.14-2.51,4.71-1,2-1.9,4-3,6.06-.58,1.1-1.33,2.16-2,3.32a36,36,0,0,0-1.74,3.35c-2,4.5-3.36,9.08-4.92,13.57a7.9,7.9,0,0,1-2.69,4.45c.4.32.46.65-.68,1.39a33,33,0,0,0-3.24,2.56c-.09.07-.22.19-.25.17-.79-.4-2.61.94-3-.32a8.05,8.05,0,0,1,.41-4c.42-1.74.77-3.32,1.28-5,.25-.84.71-1.79,1-2.68.47-1.24.9-2.54,1.42-3.77l1.55-3.7c.7-1.6,1.38-3.27,2.14-4.87l2.3-4.77c1.47-3.24,3-6.24,4.71-9.41,1.22-2.31,2.83-4.54,4.31-6.79,1-1.45,1.81-2.91,2.83-4.36.81-1.11,1.85-2.26,2.59-3.35l2.9-4.42c1-1.43,2-2.84,3.19-4.29s2.38-2.93,3.67-4.36,2.66-2.81,4-4.21c.86-.95,1.69-1.9,2.5-2.84l2.48-2.72C604.94,299.62,606.11,298.24,607.39,296.81Z" transform="translate(-479.36 -280.48)"/><path class="cls-1" d="M792.42,669.24a38.19,38.19,0,0,1-3.73,1.3,1.58,1.58,0,0,1-1.3-.24c-.26-.2-.1-.65-.3-.9-.42-.49.37-1.71-1.63-1.3a3.91,3.91,0,0,1,.78-1.36c1.53-1.82,3-3.75,4.61-5.61,2.36-2.75,4.48-5.71,6.76-8.62,1.89-2.32,3.95-4.91,5.69-7.34.9-1.28,1.74-2.5,2.51-3.8s1.56-2.61,2.45-3.92c1.25-1.89,1.74-3.41,3.42-5.61,1.17-1.48,1.19-2.92,1.84-4.41l1.36-3c.44-1,.88-2.08,1.32-3.13l2.13-5c.67-1.69,1.28-3.41,1.86-5.07.83-2.38,1.5-4.65,2.08-7,.4-1.51.76-3,1.2-4.52.19-.66.38-1.34.58-2l.51-2.07c.33-1.36.67-2.73,1-4.08.53-2.1.86-4.25,1.23-6.39a10.12,10.12,0,0,1,.43-1l.61.8a8.23,8.23,0,0,1,1.34-3,7.77,7.77,0,0,1,2.18-2.41c.51-.29.85.23,1.32.28a4.21,4.21,0,0,0,1.12-.37,8.37,8.37,0,0,1,.73,1.88,11.36,11.36,0,0,1-.33,1.85c-.07,1.32-.12,2.5-.27,3.8-.09.75-.36,1.63-.52,2.44-.26,1.4-.52,2.8-.77,4.17-.41,1.94-.83,3.85-1.28,5.81-.78,3.76-1.84,7.37-3,11.16-.22.7-.5,1.45-.81,2.19s-.65,1.45-.92,2.15c-.53,1.42-.85,2.73-1.36,4.14-.36,1-.72,2-1.12,3l-1.29,3-2.45,5.61c-.87,1.85-1.82,3.68-2.83,5.56a46,46,0,0,1-3.41,5c-.58.83-.92,1.6-1.45,2.42-2.85,4.53-6.28,8.79-8.6,13a56.09,56.09,0,0,1-5.33,7.38,10.5,10.5,0,0,1-4.53,3.76A8.49,8.49,0,0,0,792.42,669.24Z" transform="translate(-479.36 -280.48)"/><path class="cls-1" d="M686.88,694.31c-.74-.69-.16-1.47.34-2.24a.06.06,0,0,0,0-.09c-.91-.67-2.69-1.33.13-1.92a22.43,22.43,0,0,0,2.22-.58c.7-.22,1.37-.5,2-.76,1.69-.69,3.23-1.43,4.78-2.16,1.94-.92,3.68-1.85,5.74-2.85l6.67-3.07c2.22-1,4.38-2.23,6.46-3.34.88-.49,1.64-1,2.38-1.51s1.44-1,2.19-1.6,1.69-1.22,2.63-1.8a10.34,10.34,0,0,1,1.84-.45l-.3-.65,1.3-.78.87.25c.85-.4.69-.84.72-1.28s.23-.86,1.78-1.3l-.46.83.4,0,3.43-2.83-2.11.68,3.31-2.47c1.07-.8,2.11-1.57,3.11-2.44l.95.07c-.1-.12-.25-.22-.3-.35s-.25-.36-.06-.51c1.19-1,2.5-1.92,3.65-2.88,2.14-1.72,4.08-3.7,6-5.56.2-.2.33-.41.54-.62.87-.84,1.75-1.65,2.6-2.52l2.49-2.65c1.76-1.91,3.48-3.72,5.16-5.74a4.56,4.56,0,0,1,1.4-.78c1.47-.6,3-1.24,4.41-1.66a5.23,5.23,0,0,1,2.24.09c.33,0,.5.33.83.24,2.06-.58,1.55.45,1.39,1.19-.29,1.35-.4,1.37-2.1,3.08-.33.32-.12.68-.4,1-1.75,2-3.61,4.11-5.48,6.2-1.62,1.76-3.26,3.41-5,5.15-2.1,2.17-4.44,4.13-6.7,6.16-.77.68-1.25,1.4-2.06,2.08-2.39,2-4.47,3.82-6.49,5.78a8.38,8.38,0,0,1-3.69,2.27,3.64,3.64,0,0,0-1.27.9c-1.17,1.07-1.84,2.5-3.57,3.16-3,1.13-2.4,2.22-4.4,3.23a55.2,55.2,0,0,0-5.27,3.34l-1.2.75-1.24.69-2.53,1.36c-1.5.79-3.11,1.55-4.64,2.33-.75.39-1.45.78-2.07,1.15a3.39,3.39,0,0,1-2.46,1c-.44,0-1,.45-1.38.71-1,.63-2,1.29-3.08,1.91a20.62,20.62,0,0,1-2.42,1c-1.31.46-3.33,1.39-3.87,1.29-2-.38-4.59.92-6.19-.23A21.45,21.45,0,0,0,686.88,694.31Z" transform="translate(-479.36 -280.48)"/><path class="cls-1" d="M730,283.85c2,.43,2.53,1.11,1.42,1.6l1.79.54c-1.16.26-2.16.49-3.21.77-1.8.45-3.54.93-5.41,1.34-.71.16-1.93,0-2.59.21a29.08,29.08,0,0,0-3,.94c-1,.35-2,.69-3,1s-2.22.46-3.19.76c-1.23.39-2.16.89-3.44,1.27L703.76,294c-1.87.58-3.72,1.06-5.51,1.79-2.22.84-4.15,1.81-6.27,2.68-2.28.87-4.71,1.93-6.88,3-1.1.54-2.14,1.1-3.17,1.66l-1.54.84-1.57.9c-1.31.74-2.92,1.39-4.24,2.12a26.81,26.81,0,0,0-3.81,2.45c-1.75,1.44-4.18,2.68-6.12,4-1.6,1.07-3.11,2.34-4.59,3.52l-4.4,3.56a12.53,12.53,0,0,1-1.48.77c-.3.18-.77.44-.74.58.19,1.13-1.8,2.1-3.05,3-.75.56-2.58.84-3.91,1.35-.31.11-.66.16-1,.27-.54.18-1.3.67-1.2,0,0,0-.18-.07-.24-.05-1.91.72-2-.23-3-.35-1.93-.25-1.18-1.18-.47-2a30.11,30.11,0,0,1,2.69-2.52l3-2.69,3.07-2.54c2.28-1.87,4.6-3.85,6.95-5.58,1.56-1.18,3-2.4,4.55-3.6.14-.11.35-.21.51-.31,2-1.16,4.12-2.19,6-3.34l3-1.79c1-.58,2-1.1,3-1.66,2-1.1,4.07-2.2,6.19-3.29s4.93-1.76,6.49-2.85a16.15,16.15,0,0,1,3-1.51,32.9,32.9,0,0,0,3.09-1.33c.45-.26,1.3-.39,1.85-.62l4.87-2c1.64-.71,3.28-1.23,4.94-1.86l6.52-2.32c2.19-.71,4.4-1.36,6.64-2,1.12-.34,2-.78,3.3-1.05a33,33,0,0,1,5.19-.64,5.17,5.17,0,0,1,2,.42c.85.71,4.15,1.18,2.87,2.1C730,283.24,730.08,283.57,730,283.85Z" transform="translate(-479.36 -280.48)"/><path class="cls-1" d="M830.1,376a8.45,8.45,0,0,1,2.38.57l3.29,1.78,3.19,2,3.23,2,1.62,1,1.56,1c2.28,1.48,4.46,2.44,6.75,3.8a23.27,23.27,0,0,1,2.17,1.82c2.16,1.72,4.37,3.43,6.53,5.19l6.31,5.45c1.09.92,2.07,1.9,3.09,2.86l3.06,2.92,2.31,2.21c.75.75,1.47,1.51,2.21,2.27,1.47,1.52,3,3.05,4.43,4.64.8.83,1.54,1.68,2.27,2.58s1.48,1.81,2.22,2.79a32.25,32.25,0,0,1,2.27,3.89c.72,1.41.9,2.78.42,3.41s-.43,3.18-1.64,2.61c-.28-.14-.3,1.37-.49,2.35-4.13-5.39-8.61-10.36-13.52-16.3-.31.3-2.32-1.81-2.75-2.9-1.11-1.11-2.07-1.68-2.64-2.74-.71-1.32-.92-1.1-1.35-1.19s-1-.3-1.42-1.74c-.7,0-2.24-1.4-2.73-2.64-.64.6-1.39-.1-2.47-1.62a7.61,7.61,0,0,0-2.9-2.77c-.38-.17-1-1.26-1.6-1.8q.33.56.66,1.14s0,.09,0,.13a15.56,15.56,0,0,1-1-1.21,5.57,5.57,0,0,0-3.85-2.72,8.35,8.35,0,0,1-2.35-1.23,12.53,12.53,0,0,1-1.62-1,15.45,15.45,0,0,1-1.28-1.44l1.84,1.49-.05-.52-1.46-1.7c-.64,1.21-2.38-.56-3.75-1.3a18.23,18.23,0,0,1-2.25-1.58c-.59-.45-1.18-1-1.76-1.51-.33-.28-.77-.73-1-.69-.47.07-.74.56-1.61-.77-.33.86-1.4-.57-2.12-1a67.38,67.38,0,0,0-6.82-3.73,40.75,40.75,0,0,1-4-2.06,7.78,7.78,0,0,0-2.27-.86c-.76-.16-1.5-.27-2.28-.51a10.47,10.47,0,0,1-5.79-3.85,24.21,24.21,0,0,1-2.52-4.12.9.9,0,0,1,.16-1c1.08-1.2,3.16-.87,5.56,0,.78.29,1.61.65,2.43,1s1.59.83,2.36,1.16c1.56.67,3,1.1,4.61,1.74.5.2,1,.42,1.52.66s1,.55,1.5.85A10.33,10.33,0,0,1,830.1,376Z" transform="translate(-479.36 -280.48)"/><path class="cls-1" d="M829,331.81c.51,1,1.28,2.12,1.18,2.57a6.08,6.08,0,0,0-.09,3.83c.19.58-1.3.59-2.29.06a49,49,0,0,0-6.57-2.61,25.32,25.32,0,0,1-2.79-1.69l.4,1.1-2.73-1-2.8-.85-5.61-1.65c-.44-.65-.73-1.11-1.06-1.54l-.38-.15c.15.39.31.76.46,1.22a8.61,8.61,0,0,0-4.61-1.15c-1.15.09-3.09-.66-4.64-1-.83-.19-1.63-.23-2.47-.37s-1.66-.39-2.37-.45a48.58,48.58,0,0,1-5-.7c-1.71-.33-3.55-.61-5.36-1-1.41-.28-2.78-.5-4.12-.69s-2.71-.27-4.07-.43c-.17,0-.45-.19-.66-.25-.58-.16-1.51-.51-1.65-.38-.81.7-2.8.11-4.27.13s-3.09,0-4.65-.05c-.82,0-1.7-.12-2.53-.17-.46,0-.91,0-1.34,0-1.59.05-3,.5-4.82.21s-2.08.34-3.36.26c-.28,0-.32.27-.48.43a5.4,5.4,0,0,0-2.49-.29,1.14,1.14,0,0,0-1,.9c0,.05-.14.1-.22.09-2.33-.47-2,1-3.92.95a20.3,20.3,0,0,0-4.62.54c-.1,0-.48-.26-.75-.33-1-.26-2-.56-3-.74a3.54,3.54,0,0,1-2.9-1.89,7.36,7.36,0,0,0-1.05-1l-1-.18A17.11,17.11,0,0,1,732,321.9a22.44,22.44,0,0,1,3.81-1.08c2.38-.52,4.91-1.08,7.38-1.48a7.41,7.41,0,0,1,1.53-.32,48,48,0,0,0,6.79-.55,40.86,40.86,0,0,1,6.9-.14c.84.07,1.31-.3,2.12-.29,2.75.09,5.58.41,8.43.62.68.06,1.38.11,2.06.18l2,.27c1.36.17,2.7.33,4,.45,3.92.3,7.64.87,11.51,1.32,1.71.19,3.35.47,5,.73l5,.85c2,.32,3.91.76,5.88,1.2s4,.95,6.08,1.57c2.25.76,4.34,1.32,6.4,1.81s4.12.93,6.17,1.6C824.77,329.13,827,330.69,829,331.81Z" transform="translate(-479.36 -280.48)"/><path class="cls-1" d="M501.77,443l.27-.39c.45,2.21.89,4.38,1.34,6.61.21.9.3,2,.48,2.95.41,2.06.83,4.12,1.24,6.17s1,4.06,1.55,6l.75,2.73c.24.9.51,1.8.82,2.69.6,1.77,1.19,3.54,1.79,5.32.29.85.58,1.72.87,2.58s.64,1.72,1,2.58c.66,1.7,1.32,3.38,2,5a19.6,19.6,0,0,0,1.07,2.1c.4.66.81,1.3,1.2,2s.7,1.51,1.07,2.2l2.43,4.47c.89,1.46,1.79,2.89,2.68,4.28.51.79,1.1,1.3,1.61,2a4.58,4.58,0,0,1,.79,3.36,22.61,22.61,0,0,0,.39,4.36c.16,1.17.19,1.3-.32,1.46a.54.54,0,0,0-.32.41c-.15,1.59-.5,2.31-1.33,2.26-.36,0-.74.18-1.09-.09-1.47-1.11-2.58-3.16-3.84-5s-2.82-3.6-4-5.66c-.82-1.38-1.53-3.14-2.29-4.78a7.28,7.28,0,0,0-.29-.84,12.64,12.64,0,0,1-2.1-3.81c-.6-1.48-1.16-3.07-1.83-4.43a54,54,0,0,1-2.79-7.17l-1.26-3.84c-.45-1.29-.74-2.58-1.14-3.85-.49-1.68-1.12-3.11-1.64-4.77-.2-.64-.4-1.3-.6-2s-.32-1.32-.49-2c-.33-1.34-.65-2.67-1-4-.58-2.31-1.27-4.55-1.7-6.89-.31-1.68-.64-3.46-.94-5.14-.23-1.16-.6-2.16-.81-3.28-.55-2.9-1.08-5.85-1.58-8.88-.37-2.17-.55-4.33-.82-6.54s-.52-4.44-.67-6.64c-.13-1.88-.41-3.55-.48-5.51a58.8,58.8,0,0,1,.12-6.34c1-1.25.71-4.1,2.26-4.67a1.13,1.13,0,0,0,.35-.43c.52-2.36,1.07-2.1,1.58-1.87.88.39,2.09-.15,3.26-.54.9-.3.69,1.12.42,2.19a13.45,13.45,0,0,0-.31,4.07c.07,1.73.14,3.47.22,5.24s.24,3.54.34,5.32c.2,2.92.11,6,.48,8.93.17,1.61.38,3.18.59,4.74s.41,3.09.7,4.67A17.35,17.35,0,0,1,501.77,443Z" transform="translate(-479.36 -280.48)"/><path class="cls-1" d="M845.22,620.56c.12,1.47-1,3.87-1.36,5.75a15.78,15.78,0,0,1-3.48,6.59l.38-.13-1.57,1.2c0,1-.85,1.68-2,2.48-2.78,1.94-4.06,2-4.21.4,0-.47,0-1.32-1.46-.47-.37.21-.64-.88-.34-1.69s.77-1.83,1.23-2.78c.23-.48.46-.95.68-1.43s.42-1,.6-1.44c.56-1.47.86-2.81,1.46-4.29.8-2,1.83-4.06,2.58-6.15.6-1.61,1.08-3.15,1.68-4.75l1.11-2.83c.35-1,.68-1.94,1-2.87.49-1.62.76-3.12,1.14-4.67.17-.7.39-1.39.59-2.13.89-3.39,1.81-6.67,2.62-10,.31-1.4.81-2.91,1.07-4.26.34-1.89.57-3.57.81-5.47.17-1.23.54-2.6.74-3.85.26-1.62.56-3.2.76-4.81s.34-3.22.47-4.77.24-3.11.25-4.66V558.9c0-1.09,0-2.21.06-3.32s-.05-2.23-.11-3.29c-.26-3.33-.49-6.46-1-9.67a11.48,11.48,0,0,1,1.42-6A11.6,11.6,0,0,1,851,535c.42-.49.72-2.3,1.35-1.36.16.24.79-.24,1.14-.7,1-1.37,1.54.17,1.57.64.09,1.45.58,2.32.7,3.72,0,.5.07,1,.11,1.52s0,1,0,1.51a12.23,12.23,0,0,0,.34,2.68,24,24,0,0,1,.69,3.64c.08.65.16,1.31.21,2l.09,2,.18,4.83.08,2.46,0,2.45c0,1.5-.48,3.59-.1,4.43s-.67,2.79.13,2.89c-1,2.26-.56,3.41-.75,5.06-.25,2-.25,3.84-.6,5.81-.29,1.68-.77,3.51-1.12,5.25-.15.75-.11,1.36-.21,2.09s-.31,1.75-.52,2.62c-.32,1.33-.64,2.69-.95,4-.48,2.13-1.21,4.54-1.43,6.31a47.57,47.57,0,0,1-1.53,7.22c-.72,2.52-1.64,5-2.3,7.46-.25.92-.54,1.87-.85,2.83s-.7,1.89-1.06,2.85A9.48,9.48,0,0,1,845.22,620.56Z" transform="translate(-479.36 -280.48)"/><path class="cls-1" d="M629.75,645.71l-4.51.18-2.34.11-2.29,0c-2.16.06-4,.46-6.22.55a53,53,0,0,1-5.69-.31c-2.3-.18-4.66-.25-7-.61-2.15-.29-4.43-.72-6.6-1-1.46-.19-2.73-.26-4.12-.4s-2.84-.25-4.37-.51c-1.72-.26-3.47-.77-5.19-1.21-2.4-.62-4.84-1.17-7.26-1.87l-4.2-1.29-3.66-1.18c-1.23-.39-2.4-.87-3.59-1.28-2.52-.92-5.05-1.68-7.59-2.69-2.21-.92-4.52-2-6.76-3-.69-.29-1.35-.51-2-.74s-1.28-.48-1.94-.78c-2.43-1.09-4.92-2.31-7.4-3.47-.36-.17-.58,0-.56,0l-3.5-2.59-.16-.75c-1.06-.44-1.89-.37-2.53-2.09l-.37-.17a32.1,32.1,0,0,1-1.57-2.94c-.36-.82-.57-1.57-.83-2.34l.66.64c.37-.66,1.1-1,1-2.07s.41-.94,1.2-.47c3.33,2.06,6.9,4,10.33,5.79.76.4,1.5.77,2.23,1.13l2.29,1.06c1.92.92,3.87,1.94,5.77,2.83.9.44,1.82.82,2.75,1.19l2.77,1.11,4,1.62c1.32.56,2.74,1,4.09,1.5,1.92.69,3.84,1.38,5.7,2a46.12,46.12,0,0,0,5.51,1.28c1,.17,2.38.85,3.47,1.12,2.25.51,4.52.89,6.73,1.31l3.32.59,3.37.48c3.2.44,6.39,1,9.66,1.35,1.88.22,3.74.45,5.56.63s3.67.15,5.4.12c1.28,0,2.6,0,4,.07l4.1,0a3.64,3.64,0,0,1,1.46.33l2.62,1.45,2.66,1.35a.83.83,0,0,1,.24.19c.36.88.73,1.76,1.09,2.62A10,10,0,0,1,629.75,645.71Z" transform="translate(-479.36 -280.48)"/><path class="cls-1" d="M542,410.94a14.87,14.87,0,0,0-1,1.58c-.5,1-1,2-1.39,3.07a2.83,2.83,0,0,1-.49.73c-1.24,1.52-3.62,2.09-4,.82a16.5,16.5,0,0,1,0-2c-.07-.78-.13-1.55-.19-2.31l-.11-2.28c-.06-1.53-.11-3.09-.08-4.72,0-2.71-.39-4.95.91-8.49a5.84,5.84,0,0,1-.09-3.42,33.78,33.78,0,0,0,.73-3.93,28.63,28.63,0,0,1,.5-3.65c.13-.65.25-1.29.38-1.94l.42-1.88c.45-2.12.53-4,.79-6a45,45,0,0,1,.9-6c.72-2.88,1.71-6,2.75-9,.57-1.72,1.12-3.43,1.55-5.09.36-1.43.76-2.79,1.16-4.16l1.22-4.16c.41-1.3.8-2.63,1.24-3.94s1-2.6,1.47-3.92c.35-.92,1.07-2,1.49-3,.52-1.14.8-2.23,1.36-3.35,1-2,2.06-4.06,3.19-6.15a4.39,4.39,0,0,1,1.07-1.26A4.37,4.37,0,0,0,558,324.1a12.3,12.3,0,0,0,2.3-1.22c1.68-1.51,2.22-1.11,2.22-.63,0,1.27,1.64.64,3.22,0,1.17-.48,1.4-.25.91.54-1.21,2.13-2.6,4.32-3.66,6.38-.57,1.13-1.09,2.18-1.54,3.3l-1.33,3.33c-.44,1.07-.88,2.14-1.36,3.23-1,2.25-2,4.63-2.84,6.95-.66,1.75-1.26,3.46-1.95,5.21-.92,2.58-1.91,5.19-2.78,7.72-.77,2.13-1.29,4.36-1.86,6.49-.44,1.7-.94,3.43-1.2,5-.22,1.77-.56,3.6-1,5.46-.2.93-.42,1.87-.65,2.81-.12.46-.23.94-.35,1.41l-.3,1.45c-.79,3.91-1.62,7.66-2,11.47-.25,2.15-.52,4.2-.65,6.3s-.25,4.16-.37,6.28a10.6,10.6,0,0,1-.3,1.69c-.13.6-.25,1.23-.33,1.81S542.07,410.35,542,410.94Z" transform="translate(-479.36 -280.48)"/><path class="cls-1" d="M487.14,522.72c1.1.24,1.9,1.91,2.77,3.81.26.55.52,1.07.78,1.58s.59,1,.88,1.48l1.8,2.8c.83,1.29,1.68,2.5,2.54,3.61.63.84,1.32,1.84,2,2.69a6,6,0,0,0,2.11,1.87c.6.24,1.38,1.72,2.08,2.59s1.28,1.66,2,2.46,1.39,1.57,2.09,2.32c1.3,1.4,2.59,2.63,3.88,4a10.59,10.59,0,0,1,.6,1.34c1.6-.35,3.86,2.81,5.93,4.47.81.64,1.59,1.28,2.4,1.9l2.5,1.85c1,.74,2,1.49,3,2.34,2.32,2,4.89,3.9,7.31,5.79l2.2,1.7c.73.56,1.52,1.09,2.27,1.63,1.52,1.06,3,2.09,4.5,3a28,28,0,0,0,3.44,1.84l3.44,1.62c.56.27,1.17.74,1.76,1.11,1,.65,2,1.25,3.06,1.83,1.26.7,1.95,2.15,2.83,3.38s1.3,2.07,1.2,3l.58.27c.17,1,.33,2,.49,3,.12.74-1.46.94-2.49.49l-3.51-1.45c-1.17-.49-2.27-1-3.44-1.63-1.53-.78-3.13-1.84-4.72-2.78-.55-.3-1-.51-1.55-.83-2.35-1.47-4.74-3-7.15-4.6s-4.62-3.26-7-4.8c-1-.66-2-1.58-3-2.33a5.61,5.61,0,0,0-2.9-1.35c-.63,0-1.85-1.43-2.81-2.31s-1.93-2.06-2.9-3c-.31-.3-.59-.08-.91-.33a88.56,88.56,0,0,1-7.29-6.1c-1.55-1.47-3.11-3-4.67-4.6s-3-3.26-4.49-4.88l-3.68-4c-1.16-1.35-2.32-2.74-3.49-4.23a77.13,77.13,0,0,1-4.31-6.46,9.44,9.44,0,0,1-1.64-3.59c-.28-1.44-.53-2.87-.7-4.29-.07-.75.07-1.45,0-2.15-.36-2.4.09-2.28.85-1.7S487.21,524.51,487.14,522.72Z" transform="translate(-479.36 -280.48)"/><path class="cls-1" d="M660.76,281.75a2.6,2.6,0,0,0,2.46-.4,6.59,6.59,0,0,1,2.06-.77,9,9,0,0,1,1.59,0c.68,0,1.37-.08,2.49-.05l.33.7c3.16.11.58,1.07,1.08,1.54,3.31.13,4,1.08,1.7,2.18-3.52,1.58-6.92,3.53-10.29,5.33-2.21,1.14-4.37,2.46-6.51,3.75l-3.17,1.93c-1,.64-2.07,1.29-3.08,2-3.59,2.54-6.88,4.93-10.29,7.65-1,.73-1.92,1.46-2.89,2.19s-1.94,1.43-2.88,2.23c-1.9,1.55-3.77,3.09-5.54,4.62a44.46,44.46,0,0,0-3.64,3.94c-1.5,1.68-2.94,3.26-4.55,5s-3.88,3.66-5.36,5.44c-1.56,2-2.95,4-4.32,5.89s-2.65,4-4,6a8.23,8.23,0,0,1-3.8,3.53c.3.4.28.74-1,1.19s-2.53,1-3.81,1.58c-.11,0-.27.13-.29.1-.34-.29-1-.25-1.65-.3s-1.13-.14-1.15-.81a7.6,7.6,0,0,1,1.47-3.71c.9-1.5,1.63-3,2.53-4.52a25.82,25.82,0,0,1,1.72-2.29c1.59-2.12,3.16-4.32,4.83-6.45l3.38-4.06c1.14-1.36,2.27-2.77,3.45-4.05l3.45-3.93,1.74-2c.6-.65,1.22-1.26,1.86-1.9,1.83-1.8,3.93-3.65,5.94-5.44,1.32-1.11,2.56-2.24,3.92-3.37,1.06-.88,2.37-1.75,3.35-2.64,2.72-2.25,5.25-4.51,8.2-6.77,3-2.09,6.42-4.19,9.64-6.23,2.19-1.3,4.22-2.65,6.29-4l2.34-1.56Z" transform="translate(-479.36 -280.48)"/><path class="cls-1" d="M740.58,690c-1.61.1-2.89.23-4,.19a1.5,1.5,0,0,1-1.18-.55c-.2-.26.07-.66-.06-.95-.26-.59.82-1.58-1.21-1.67-.09,0,.56-.76,1.1-1.13,2-1.39,4-2.66,6-4.11l4.41-3.25c1.46-1.09,3-2.11,4.41-3.29,2.39-1.87,5.13-3.63,7.45-5.54s4.4-4.11,6.84-6.11c1.71-1.53,2.52-3,4.77-4.58,1.52-1.09,1.95-2.41,2.95-3.73,1.35-1.75,2.79-3.51,4.21-5.24,1.16-1.37,2.25-2.88,3.35-4.32s2.16-2.9,3.18-4.32c1.41-2.11,2.59-4.22,3.84-6.29l1.18-2,1.15-2.06,2.13-3.65c.71-1.23,1.44-2.39,2-3.66,1-2,1.94-3.91,2.89-5.83a6.25,6.25,0,0,1,.7-.84l.36.93c.72-1.61,3.13-3.92,4.81-4.33.58-.15.77.44,1.21.62a3.92,3.92,0,0,0,1.19-.05,8,8,0,0,1,.19,2c0,.42-.64,1.14-.83,1.67-.46,1.22-.77,2.39-1.25,3.62a20.34,20.34,0,0,1-1.12,2.24l-1.9,3.76c-.9,1.77-1.73,3.62-2.71,5.32-1.86,3.27-3.65,6.74-5.84,10-.8,1.23-2,2.53-2.79,3.77s-1.55,2.42-2.42,3.62c-1.23,1.71-2.56,3.45-3.9,5.2s-2.56,3.12-3.88,4.7l-2,2.35c-.68.8-1.39,1.58-2.14,2.32-1.26,1.28-3.11,2.58-4.62,3.88-.78.66-1.29,1.35-2,2-2,1.72-4.11,3.47-6.12,5.15l-1.49,1.3L758,678.35c-1,.82-1.87,1.64-2.72,2.48s-2.07,1.95-3.24,2.94a39.58,39.58,0,0,1-3.85,2.78,11.63,11.63,0,0,1-5.37,2.47A12.05,12.05,0,0,0,740.58,690Z" transform="translate(-479.36 -280.48)"/><path class="cls-1" d="M632.15,686.25c-.54-.85.22-1.45.92-2.07,0,0,0-.06,0-.09-.71-.87-2.27-2,.63-1.82a30.28,30.28,0,0,0,4.44-.15c1.79-.13,3.5-.53,5.19-.82,2.12-.4,4.07-.91,6.29-1.22l7.26-1.27,3.59-.65,3.52-.85c2-.49,3.5-1.2,5.23-1.8,1-.32,2-.69,3-1a11.17,11.17,0,0,1,1.89,0s-.06-.36-.11-.7l1.45-.44.78.46c1.84-.34-.12-1.89,3.09-1.78l-.66.64.38.17c1.29-.5,2.58-1.14,4-1.82l-2.22.13,7.51-3.08.9.35a1.83,1.83,0,0,1-.2-.43c0-.17-.14-.42.08-.5,1.4-.58,2.91-1.22,4.28-1.86l3.71-1.81,1.81-.91,1.79-1c.25-.14.42-.32.68-.46,2.13-1.21,4.24-2.37,6.29-3.59l6.51-4.19a5.51,5.51,0,0,1,1.58-.36,37.13,37.13,0,0,1,4.67-.5,5.28,5.28,0,0,1,2.15.73c.31.13.4.47.74.47,2.15,0,1.38.85,1,1.54-.66,1.2-.76,1.19-2.87,2.32-.4.21-.3.59-.66.84l-3.4,2.34c-1.15.81-2.34,1.45-3.53,2.2-2,1.22-4,2.51-6.16,3.71-2.64,1.38-5.4,2.75-8.12,4.16-.93.46-1.57,1-2.54,1.4-2.83,1.2-5.33,2.58-7.79,3.91a9.68,9.68,0,0,1-4.16,1.15,3.5,3.5,0,0,0-1.46.55c-1.41.74-2.44,2-4.29,2.15-3.14.19-2.89,1.47-5.08,1.92a22.68,22.68,0,0,0-3.07.89c-1,.35-1.89.71-2.9,1-1.79.48-3.63.95-5.53,1.39-1.65.37-3.42.77-5.09,1a18.88,18.88,0,0,0-2.29.53,3.4,3.4,0,0,1-2.65.34,3.82,3.82,0,0,0-1.52.34c-1.16.35-2.24.78-3.48,1a23.9,23.9,0,0,1-2.58.24c-1.39.11-3.6.5-4.09.27a11.37,11.37,0,0,0-3.21-.65,4.11,4.11,0,0,1-2.71-1.25A17.65,17.65,0,0,0,632.15,686.25Z" transform="translate(-479.36 -280.48)"/><path class="cls-1" d="M782.44,301.7c1.82,1,2.14,1.74.92,1.95l1.6,1-3.31-.1c-1.84-.07-3.6-.16-5.54-.2-.74,0-1.89-.45-2.58-.44-2.16,0-4.13.18-6.23.22-1,.06-2.29-.11-3.3-.06-1.3.06-2.35.34-3.68.34-3.84-.05-7.9.16-11.66.38-2.34.12-4.49.64-6.76.93-1.23.17-2.48.31-3.73.45-.62.08-1.24.14-1.86.23l-1.82.34c-2.43.49-4.61,1.12-7,1.63-1.45.3-3.18.59-4.65.95a36.62,36.62,0,0,0-4.32,1.37c-.52.22-1.07.4-1.64.58s-1.18.4-1.78.58c-1.21.38-2.43.73-3.55,1.14l-2.7,1-1.33.52-1.32.59-5.19,2.36a11.15,11.15,0,0,1-1.63.29c-.34.08-.87.19-.87.33-.12,1.14-2.29,1.58-3.75,2.17-.87.35-2.73.18-4.14.23-.33,0-.69-.06-1,0-.57,0-1.44.33-1.16-.3,0,0-.16-.11-.22-.1-2,.23-1.87-.71-2.79-1.08-1.79-.72-.82-1.43.1-2.09a31,31,0,0,1,3.27-1.78c2.37-1.23,4.8-2.26,7.23-3.42,2.7-1.32,5.45-2.38,8.19-3.54.9-.38,1.78-.77,2.67-1.17s1.76-.8,2.66-1.13c.17-.06.39-.09.58-.14,2.21-.56,4.56-1.07,6.71-1.69,1.12-.34,2.23-.6,3.34-.88l3.35-.83c2.24-.54,4.52-1.15,6.83-1.52s5.25-.46,7-1.12,4.66-.54,6.63-1.07c.5-.13,1.35-.05,2-.14l2.62-.37,2.61-.27,5.28-.5c1.14-.1,2.3-.24,3.44-.3l3.44-.16,7-.28c1.17,0,2.17-.16,3.43-.06,1.62.13,3.4.4,5.2.72a5.4,5.4,0,0,1,1.8.9c.63.94,3.65,2.35,2.18,2.86C782.63,301.11,782.61,301.46,782.44,301.7Z" transform="translate(-479.36 -280.48)"/><path class="cls-1" d="M854.7,417a7.29,7.29,0,0,1,2.13,1.19c1.74,1.7,3.49,3.5,5.27,5.32s3.35,3.74,5.06,5.57c.91,1,1.9,1.88,2.78,2.76s1.79,1.74,2.69,2.71c.55.59,1.09,1.61,1.64,2.33,1.74,2.2,3.27,4.48,4.87,6.74l2.4,3.43c.81,1.15,1.5,2.33,2.26,3.51,1.47,2.37,3,4.76,4.44,7.2l3.13,5.52,1.57,2.8c.51.94,1,1.9,1.45,2.86,1,2,2,4.08,3,6.36a23.82,23.82,0,0,1,1.09,4.35c.3,1.55.16,2.9-.47,3.39s-1.21,3-2.24,2.08c-.24-.21-.64,1.24-1.06,2.14-1.36-3.15-2.77-6.21-4.17-9.37s-3.08-6.4-4.57-9.92c-.2.1-.58-.5-1-1.26a7.82,7.82,0,0,1-.89-2.28c-.78-1.35-1.62-2.16-1.85-3.33-.3-1.47-.55-1.31-.94-1.51s-.9-.58-.86-2.06c-.7-.15-1.84-1.95-2-3.27-.75.41-1.39-.45-2-2.21a6.9,6.9,0,0,0-2-3.46,22.78,22.78,0,0,1-1.11-2.16l.36,1.27-.08.12a15.86,15.86,0,0,1-.71-1.43c-.77-2.06-1.89-3.27-3-3.66-.59-.21-1.23-1.17-1.89-1.82a13.07,13.07,0,0,1-1.33-1.42,14.27,14.27,0,0,1-.9-1.72l1.43,1.91.08-.51-1-2c-1,1-2.12-1.19-3.2-2.27-.57-.57-1.13-1.38-1.74-2.14-.46-.57-.9-1.28-1.35-1.9-.25-.35-.58-.9-.76-.91-.46-.06-.86.34-1.31-1.17-.57.73-1.17-.94-1.74-1.52-1.83-1.83-3.78-3.85-5.62-5.4-1.1-.91-2.11-1.95-3.28-3-1.34-1.28-2.69-1.64-4-2.52a13.26,13.26,0,0,1-2.42-2,10.17,10.17,0,0,1-2.17-3.27,30.2,30.2,0,0,1-1.27-4.66.88.88,0,0,1,.39-.9,2.86,2.86,0,0,1,2.43-.16,10.9,10.9,0,0,1,2.92,1.64c1.33,1,2.71,2.35,4.06,3.38s2.61,1.89,3.95,2.91a31.45,31.45,0,0,1,2.52,2.25A12.29,12.29,0,0,1,854.7,417Z" transform="translate(-479.36 -280.48)"/><path class="cls-1" d="M865.24,374.15c.2,1.11.67,2.39.46,2.79a5.85,5.85,0,0,0-1,3.64c0,.6-1.43.24-2.27-.52-2-1.78-3.76-2.85-5.62-4.28-.62-.51-1.4-1.46-2.28-2.34,0,.23.06.6.12,1.15l-4.88-3.19-2.44-1.58-2.54-1.49-.65-1.74-.31-.25.11,1.3a8.67,8.67,0,0,0-4.09-2.37c-1.1-.25-2.82-1.44-4.26-2.14-.78-.38-1.51-.65-2.28-1s-1.48-.84-2.15-1.1c-1.46-.59-3.06-1.22-4.66-1.95s-3.22-1.55-4.86-2.41c-2.57-1.3-5.12-2.18-7.62-3.23-.16-.07-.38-.32-.56-.43-.51-.32-1.31-.92-1.49-.82-1,.47-2.79-.57-4.21-.94s-2.94-.87-4.41-1.35l-2.44-.79c-.44-.13-.88-.25-1.3-.35a20,20,0,0,1-4.66-1.14c-1.5-.7-2.12-.19-3.34-.6-.27-.09-.38.18-.58.29-1.91-1.12-3.13-1.25-3.56-.35,0,0-.16.05-.24,0-2.1-1.1-2.11.42-4-.15a28.25,28.25,0,0,0-4.63-.67c-.1,0-.39-.39-.62-.53a19,19,0,0,0-2.65-1.53,3.35,3.35,0,0,1-2.32-2.53,7.23,7.23,0,0,0-.73-1.3l-.9-.47a17.63,17.63,0,0,1,2.93-.84,26.19,26.19,0,0,1,4-.08c1.25,0,2.48.12,3.72.24l3.76.34a7.86,7.86,0,0,1,1.59.07c.6.16,1.19.29,1.77.41l1.65.36c1.09.22,2.16.39,3.23.56a30.79,30.79,0,0,1,6.73,1.65c.78.3,1.33.08,2.1.32,1.31.41,2.65.85,4,1.31s2.65,1,4,1.5l3.83,1.5,1.92.73,1.85.76c3.58,1.45,7.25,2.75,10.73,4.33l4.68,2c1.58.64,3.05,1.42,4.6,2.17l5.41,2.67c1.78.95,3.54,2,5.37,3.18,4.08,2.55,7.51,4.31,11.27,6.56C861.93,370.38,863.63,372.51,865.24,374.15Z" transform="translate(-479.36 -280.48)"/></svg>