<svg id="cars" xmlns="http://www.w3.org/2000/svg" viewBox="0 0 481.81 196"><defs><style>.cls-1{fill:#ccc;}.cls-2{fill:#a5bf8f;}.cls-3{fill:#55848a;}.cls-4{fill:#68a1a8;}.cls-5{fill:#231f20;}.cls-6{fill:#58595b;}</style></defs><title>utilitaire</title><g id="mini_bus" data-name="mini bus"><polygon points="441.59 179.25 127.31 179.25 110.34 179.25 57.8 179.25 44.34 183.16 34.32 183.16 34.32 119.7 441.59 119.7 441.59 179.25"/><path class="cls-1" d="M809.18,493.14c2.69-2.68,17.23-7.9,33.48-13C834.19,488,820.71,498,805.57,500,806.32,498.58,808.4,493.91,809.18,493.14Z" transform="translate(-791.51 -391.33)"/><path class="cls-2" d="M911.7,523.26a46.43,46.43,0,0,0-82.1,29.64s0,9.62,0,14.26l-19.77,0c-2.16-1.08-11-6.52-11-23.63v-.06l18.23.05,0-7.32-18.22,0c.62-9.2,2.29-21.6,4-28.52C830.49,506,852.66,481,857,475.81c5.06-1.48,10-2.87,14.53-4.11l40.31-1.88Z" transform="translate(-791.51 -391.33)"/><path class="cls-2" d="M1035.43,563.53l-112.94-.26c0-4,0-10.15,0-10.15A46.15,46.15,0,0,0,919,535.26l.15-66.12,116.54-5.09Z" transform="translate(-791.51 -391.33)"/><path class="cls-2" d="M1159.16,514.5a46.4,46.4,0,0,0-21.67,39.12s0,6.2,0,10.15l-94.71-.21L1043,464l116.31-5.7Z" transform="translate(-791.51 -391.33)"/><path class="cls-2" d="M1265.87,547c-2.46,3.22-13.45,15.43-35.49,16.7,0-4,0-9.87,0-9.87a46.51,46.51,0,0,0-46.35-46.57c-1.39,0-2.76.08-4.12.2l-1.57.18c-.79.1-1.58.22-2.36.35s-1.3.24-1.94.38-1.2.29-1.79.45-1.43.36-2.13.58l-3.66,1.37.13-53.17,55.24-2.24a3.67,3.67,0,0,0,3.49-3.65l.1-45.38a3.64,3.64,0,0,0-3.64-3.66l-204.09-.48a254.41,254.41,0,0,1,42.63-3.56l178.45.42,2.89,8,.42,47.54a3.67,3.67,0,0,0,3.65,3.63l13.39,0,0,19.94-9.14,0,0,7.31,11.28,0,4.79,4.81v7l-30.15-.07,0,7.31,30.15.08Z" transform="translate(-791.51 -391.33)"/><path class="cls-3" d="M1035.7,456.73h0c-39.74,1.85-85.78,3.67-116.52,5.08l0-23.56c2.07-1.19,4.21-2.39,6.39-3.59.88-.48,1.79-1,2.68-1.43,1.31-.7,2.62-1.4,4-2.1l3.64-1.84c1.08-.54,2.15-1.07,3.25-1.6,1.44-.7,2.89-1.4,4.37-2.09l2.66-1.22c1.69-.78,3.4-1.55,5.15-2.31l1.67-.71c6.09-2.6,21.86-8.79,30.6-11.93h.3l51.89.12Z" transform="translate(-791.51 -391.33)"/><path class="cls-3" d="M1257.59,450.93l-8.21,0c0-3-.12-13.24-.2-23.19C1251.8,435,1255.7,445.73,1257.59,450.93Z" transform="translate(-791.51 -391.33)"/><path class="cls-3" d="M1159.39,409.85l-.06,41.11L1043,456.39l.08-46.82Z" transform="translate(-791.51 -391.33)"/><path class="cls-3" d="M1166.71,409.86l51.41.12-.09,38.24-1.69.08-19,.89-1,0-1.19.06c-6.1.29-19,.62-28.5,1Z" transform="translate(-791.51 -391.33)"/><path class="cls-3" d="M911.85,462.5h0l-29.93,1.4h0l4.51-3.88,1.84-1.39,1.1-.82,1.77-1.3,1.61-1.17,1.62-1.16c1.08-.77,2.2-1.55,3.35-2.35L899,451l2.71-1.83,1.46-1,2.91-1.89,1.37-.88c1.46-.93,3-1.86,4.48-2.81Z" transform="translate(-791.51 -391.33)"/><polygon class="cls-4" points="244.27 65.84 244.27 49.96 229.46 65.84 244.27 65.84"/><polygon class="cls-4" points="185.02 17.46 134.87 72.57 149.73 72.57 199.88 17.46 185.02 17.46"/><polygon class="cls-4" points="244.27 17.46 217.82 17.46 167.99 72.57 197.23 72.57 244.27 20.45 244.27 17.46"/><polygon class="cls-4" points="407.46 18.38 369.48 59.11 376.9 59.11 414.88 18.38 407.46 18.38"/><polygon class="cls-4" points="431.38 18.38 424.89 18.38 386.91 59.11 428.72 59.11 431.3 53.62 431.38 18.38"/><polygon class="cls-4" points="303.83 18.54 258.73 66.9 273.59 66.9 318.69 18.54 303.83 18.54"/><polygon class="cls-4" points="367.86 18.54 341.41 18.54 296.31 66.9 325.54 66.9 367.86 21.52 367.86 18.54"/><path class="cls-5" d="M876.13,519.41a33.57,33.57,0,0,0-33.57,31.69v3.66h0a33.55,33.55,0,0,0,67,.15v-3.65h0A33.57,33.57,0,0,0,876.13,519.41Z" transform="translate(-791.51 -391.33)"/><path class="cls-6" d="M897.75,554.89h0a21.76,21.76,0,0,1-43.37-.11v-3.65h0a21.76,21.76,0,0,1,43.37.1Z" transform="translate(-791.51 -391.33)"/><path class="cls-5" d="M1184,520.14a33.57,33.57,0,0,0-33.57,31.68v3.66h0s0,.06,0,.1v.2h0a33.54,33.54,0,0,0,67-.14V552h0A33.56,33.56,0,0,0,1184,520.14Z" transform="translate(-791.51 -391.33)"/><path class="cls-6" d="M1205.64,555.61h0a21.77,21.77,0,0,1-43.38-.1h0v-3.66h.06a21.77,21.77,0,0,1,43.38.11Z" transform="translate(-791.51 -391.33)"/><path class="cls-5" d="M1184,540.18a13.55,13.55,0,1,0,13.52,13.59A13.55,13.55,0,0,0,1184,540.18Z" transform="translate(-791.51 -391.33)"/><path class="cls-5" d="M876.09,539.46A13.55,13.55,0,1,0,889.6,553,13.54,13.54,0,0,0,876.09,539.46Z" transform="translate(-791.51 -391.33)"/><path class="cls-5" d="M1272.26,486.23l-5.86-5.88c0-2.71.07-25.74.07-25.74a3.5,3.5,0,0,0-.21-1.16s0-.07,0-.1l-.88-2.4h0l-20.58-56.79a3.66,3.66,0,0,0-3.43-2.41l-181-.42a268.71,268.71,0,0,0-75.42,10.82,3.6,3.6,0,0,0-1.46.44c-7,2.07-13.76,4.36-20.25,6.79C949.53,415,928,424.85,917.21,431q-2.72,1.54-5.29,3.08c-15.48,9.21-34.43,23.5-43.89,31-12.9,3.54-57.11,16-64,22.88-2,2-5,8.52-6.54,12.08l7.74,0h0l-7.74,0c-3,9-5.24,24.75-6,36.27v7.17c-.06,24.38,15.53,30.48,16.2,30.73a3.86,3.86,0,0,0,1.27.23l24.22.05a3.66,3.66,0,0,0,3.67-3.65l0-17.92a39.15,39.15,0,1,1,78.29.19l0,13.81a3.65,3.65,0,0,0,3.65,3.66l122.47.29h0l99.81.23a3.65,3.65,0,0,0,3.66-3.65l0-13.81a39.15,39.15,0,0,1,21.67-34.89l3.65-1.6a39.06,39.06,0,0,1,53,36.68l0,13.8a3.65,3.65,0,0,0,3.64,3.67c31.62.08,45.31-20.23,45.88-21.09a3.65,3.65,0,0,0,.61-2l.11-49.41h0v-10A3.65,3.65,0,0,0,1272.26,486.23Zm-463.08,6.91c2.69-2.68,17.23-7.9,33.48-13C834.19,488,820.71,498,805.57,500,806.32,498.58,808.4,493.91,809.18,493.14ZM911.7,523.26a46.43,46.43,0,0,0-82.1,29.64s0,9.62,0,14.26l-19.77,0c-2.16-1.08-11-6.52-11-23.63v-.06l18.23.05,0-7.32-18.22,0c.62-9.2,2.29-21.6,4-28.52C830.49,506,852.66,481,857,475.81c5.06-1.48,10-2.87,14.53-4.11l40.31-1.88Zm.15-60.76h0l-29.93,1.4h0l4.51-3.88,1.84-1.39,1.1-.82,1.77-1.3,1.61-1.17,1.62-1.16c1.08-.77,2.2-1.55,3.35-2.35L899,451l2.71-1.83,1.46-1,2.91-1.89,1.37-.88c1.46-.93,3-1.86,4.48-2.81Zm345.74-11.57-8.21,0c0-3-.12-13.24-.2-23.19C1251.8,435,1255.7,445.73,1257.59,450.93Zm-222.16,112.6-112.94-.26c0-4,0-10.15,0-10.15A46.15,46.15,0,0,0,919,535.26l.15-66.12,116.54-5.09Zm.27-106.8h0c-39.74,1.85-85.78,3.67-116.52,5.08l0-23.56c2.07-1.19,4.21-2.39,6.39-3.59.88-.48,1.79-1,2.68-1.43,1.31-.7,2.62-1.4,4-2.1l3.64-1.84c1.08-.54,2.15-1.07,3.25-1.6,1.44-.7,2.89-1.4,4.37-2.09l2.66-1.22c1.69-.78,3.4-1.55,5.15-2.31l1.67-.71c6.09-2.6,21.86-8.79,30.6-11.93h.3l51.89.12Zm123.46,57.77a46.4,46.4,0,0,0-21.67,39.12s0,6.2,0,10.15l-94.71-.21L1043,464l116.31-5.7Zm.17-63.54L1043,456.39l.08-46.82,116.3.28ZM1266,497.35l-30.15-.07,0,7.31,30.15.08-.11,42.34c-2.46,3.22-13.45,15.43-35.49,16.7,0-4,0-9.87,0-9.87a46.51,46.51,0,0,0-46.35-46.57c-1.39,0-2.76.08-4.12.2l-1.57.18c-.79.1-1.58.22-2.36.35s-1.3.24-1.94.38-1.2.29-1.79.45-1.43.36-2.13.58l-3.66,1.37.13-53.17,55.24-2.24a3.67,3.67,0,0,0,3.49-3.65l.1-45.38a3.64,3.64,0,0,0-3.64-3.66l-204.09-.48a254.41,254.41,0,0,1,42.63-3.56l178.45.42,2.89,8,.42,47.54a3.67,3.67,0,0,0,3.65,3.63l13.39,0,0,19.94-9.14,0,0,7.31,11.28,0,4.79,4.81Zm-99.36-47.07.07-40.42,51.41.12-.09,38.24-1.69.08-19,.89-1,0-1.19.06C1189,449.58,1176.14,449.91,1166.64,450.28Z" transform="translate(-791.51 -391.33)"/><rect class="cls-5" x="1019.17" y="477.86" width="7.31" height="10.97" transform="matrix(0, -1, 1, 0, -254.34, 1113.75)"/><rect class="cls-5" x="1052.08" y="477.94" width="7.31" height="10.97" transform="translate(-221.59 1146.73) rotate(-89.87)"/></g></svg>